<?xml version="1.0" encoding="utf-8" standalone="no"?>
<!DOCTYPE svg PUBLIC "-//W3C//DTD SVG 1.1//EN"
  "http://www.w3.org/Graphics/SVG/1.1/DTD/svg11.dtd">
<svg xmlns:xlink="http://www.w3.org/1999/xlink" width="720pt" height="432pt" viewBox="0 0 720 432" xmlns="http://www.w3.org/2000/svg" version="1.1">
 <metadata>
  <rdf:RDF xmlns:dc="http://purl.org/dc/elements/1.1/" xmlns:cc="http://creativecommons.org/ns#" xmlns:rdf="http://www.w3.org/1999/02/22-rdf-syntax-ns#">
   <cc:Work>
    <dc:type rdf:resource="http://purl.org/dc/dcmitype/StillImage"/>
    <dc:date>2025-08-24T18:01:51.319532</dc:date>
    <dc:format>image/svg+xml</dc:format>
    <dc:creator>
     <cc:Agent>
      <dc:title>Matplotlib v3.10.5, https://matplotlib.org/</dc:title>
     </cc:Agent>
    </dc:creator>
   </cc:Work>
  </rdf:RDF>
 </metadata>
 <defs>
  <style type="text/css">*{stroke-linejoin: round; stroke-linecap: butt}</style>
 </defs>
 <g id="figure_1">
  <g id="patch_1">
   <path d="M 0 432
L 720 432
L 720 0
L 0 0
z
" style="fill: #ffffff"/>
  </g>
  <g id="axes_1">
   <g id="patch_2">
    <path d="M 47.855 390.04
L 495.445 390.04
L 495.445 26.16
L 47.855 26.16
z
" style="fill: #ffffff"/>
   </g>
   <g id="FillBetweenPolyCollection_1">
    <defs>
     <path id="m31e464694c" d="M 68.2 -99.71873
L 68.2 -41.96
L 102.108333 -41.96
L 136.016667 -41.96
L 169.925 -41.96
L 203.833333 -41.96
L 237.741667 -41.96
L 271.65 -41.96
L 305.558333 -41.96
L 339.466667 -41.96
L 373.375 -41.96
L 407.283333 -41.96
L 441.191667 -41.96
L 475.1 -41.96
L 475.1 -85.279048
L 475.1 -85.279048
L 441.191667 -128.598095
L 407.283333 -85.279048
L 373.375 -128.598095
L 339.466667 -99.71873
L 305.558333 -128.598095
L 271.65 -91.467483
L 237.741667 -91.467483
L 203.833333 -85.279048
L 169.925 -85.279048
L 136.016667 -85.279048
L 102.108333 -99.71873
L 68.2 -99.71873
z
" style="stroke: #1f77b4"/>
    </defs>
    <g clip-path="url(#p395c6f51bf)">
     <use xlink:href="#m31e464694c" x="0" y="432" style="fill: #1f77b4; stroke: #1f77b4"/>
    </g>
   </g>
   <g id="FillBetweenPolyCollection_2">
    <defs>
     <path id="m2c208851e1" d="M 68.2 -157.47746
L 68.2 -99.71873
L 102.108333 -99.71873
L 136.016667 -85.279048
L 169.925 -85.279048
L 203.833333 -85.279048
L 237.741667 -91.467483
L 271.65 -91.467483
L 305.558333 -128.598095
L 339.466667 -99.71873
L 373.375 -128.598095
L 407.283333 -85.279048
L 441.191667 -128.598095
L 475.1 -85.279048
L 475.1 -85.279048
L 475.1 -85.279048
L 441.191667 -128.598095
L 407.283333 -85.279048
L 373.375 -128.598095
L 339.466667 -157.47746
L 305.558333 -128.598095
L 271.65 -91.467483
L 237.741667 -91.467483
L 203.833333 -85.279048
L 169.925 -85.279048
L 136.016667 -85.279048
L 102.108333 -99.71873
L 68.2 -157.47746
z
" style="stroke: #aec7e8"/>
    </defs>
    <g clip-path="url(#p395c6f51bf)">
     <use xlink:href="#m2c208851e1" x="0" y="432" style="fill: #aec7e8; stroke: #aec7e8"/>
    </g>
   </g>
   <g id="FillBetweenPolyCollection_3">
    <defs>
     <path id="md60f6504bc" d="M 68.2 -215.23619
L 68.2 -157.47746
L 102.108333 -99.71873
L 136.016667 -85.279048
L 169.925 -85.279048
L 203.833333 -85.279048
L 237.741667 -91.467483
L 271.65 -91.467483
L 305.558333 -128.598095
L 339.466667 -157.47746
L 373.375 -128.598095
L 407.283333 -85.279048
L 441.191667 -128.598095
L 475.1 -85.279048
L 475.1 -85.279048
L 475.1 -85.279048
L 441.191667 -128.598095
L 407.283333 -85.279048
L 373.375 -128.598095
L 339.466667 -157.47746
L 305.558333 -128.598095
L 271.65 -91.467483
L 237.741667 -91.467483
L 203.833333 -85.279048
L 169.925 -85.279048
L 136.016667 -85.279048
L 102.108333 -99.71873
L 68.2 -215.23619
z
" style="stroke: #ff7f0e"/>
    </defs>
    <g clip-path="url(#p395c6f51bf)">
     <use xlink:href="#md60f6504bc" x="0" y="432" style="fill: #ff7f0e; stroke: #ff7f0e"/>
    </g>
   </g>
   <g id="FillBetweenPolyCollection_4">
    <defs>
     <path id="m2912ae91a6" d="M 68.2 -215.23619
L 68.2 -215.23619
L 102.108333 -99.71873
L 136.016667 -85.279048
L 169.925 -85.279048
L 203.833333 -85.279048
L 237.741667 -91.467483
L 271.65 -91.467483
L 305.558333 -128.598095
L 339.466667 -157.47746
L 373.375 -128.598095
L 407.283333 -85.279048
L 441.191667 -128.598095
L 475.1 -85.279048
L 475.1 -85.279048
L 475.1 -85.279048
L 441.191667 -171.917143
L 407.283333 -128.598095
L 373.375 -128.598095
L 339.466667 -157.47746
L 305.558333 -128.598095
L 271.65 -91.467483
L 237.741667 -91.467483
L 203.833333 -85.279048
L 169.925 -85.279048
L 136.016667 -85.279048
L 102.108333 -99.71873
L 68.2 -215.23619
z
" style="stroke: #ffbb78"/>
    </defs>
    <g clip-path="url(#p395c6f51bf)">
     <use xlink:href="#m2912ae91a6" x="0" y="432" style="fill: #ffbb78; stroke: #ffbb78"/>
    </g>
   </g>
   <g id="FillBetweenPolyCollection_5">
    <defs>
     <path id="mf176d1e9e1" d="M 68.2 -215.23619
L 68.2 -215.23619
L 102.108333 -99.71873
L 136.016667 -85.279048
L 169.925 -85.279048
L 203.833333 -85.279048
L 237.741667 -91.467483
L 271.65 -91.467483
L 305.558333 -128.598095
L 339.466667 -157.47746
L 373.375 -128.598095
L 407.283333 -128.598095
L 441.191667 -171.917143
L 475.1 -85.279048
L 475.1 -85.279048
L 475.1 -85.279048
L 441.191667 -171.917143
L 407.283333 -171.917143
L 373.375 -171.917143
L 339.466667 -215.23619
L 305.558333 -128.598095
L 271.65 -91.467483
L 237.741667 -91.467483
L 203.833333 -85.279048
L 169.925 -85.279048
L 136.016667 -85.279048
L 102.108333 -99.71873
L 68.2 -215.23619
z
" style="stroke: #2ca02c"/>
    </defs>
    <g clip-path="url(#p395c6f51bf)">
     <use xlink:href="#mf176d1e9e1" x="0" y="432" style="fill: #2ca02c; stroke: #2ca02c"/>
    </g>
   </g>
   <g id="FillBetweenPolyCollection_6">
    <defs>
     <path id="m4e8d88f346" d="M 68.2 -215.23619
L 68.2 -215.23619
L 102.108333 -99.71873
L 136.016667 -85.279048
L 169.925 -85.279048
L 203.833333 -85.279048
L 237.741667 -91.467483
L 271.65 -91.467483
L 305.558333 -128.598095
L 339.466667 -215.23619
L 373.375 -171.917143
L 407.283333 -171.917143
L 441.191667 -171.917143
L 475.1 -85.279048
L 475.1 -258.555238
L 475.1 -258.555238
L 441.191667 -301.874286
L 407.283333 -258.555238
L 373.375 -215.23619
L 339.466667 -272.994921
L 305.558333 -171.917143
L 271.65 -140.974966
L 237.741667 -140.974966
L 203.833333 -215.23619
L 169.925 -171.917143
L 136.016667 -215.23619
L 102.108333 -157.47746
L 68.2 -215.23619
z
" style="stroke: #98df8a"/>
    </defs>
    <g clip-path="url(#p395c6f51bf)">
     <use xlink:href="#m4e8d88f346" x="0" y="432" style="fill: #98df8a; stroke: #98df8a"/>
    </g>
   </g>
   <g id="FillBetweenPolyCollection_7">
    <defs>
     <path id="m005568534a" d="M 68.2 -330.753651
L 68.2 -215.23619
L 102.108333 -157.47746
L 136.016667 -215.23619
L 169.925 -171.917143
L 203.833333 -215.23619
L 237.741667 -140.974966
L 271.65 -140.974966
L 305.558333 -171.917143
L 339.466667 -272.994921
L 373.375 -215.23619
L 407.283333 -258.555238
L 441.191667 -301.874286
L 475.1 -258.555238
L 475.1 -258.555238
L 475.1 -258.555238
L 441.191667 -301.874286
L 407.283333 -301.874286
L 373.375 -258.555238
L 339.466667 -330.753651
L 305.558333 -258.555238
L 271.65 -190.482449
L 237.741667 -140.974966
L 203.833333 -301.874286
L 169.925 -258.555238
L 136.016667 -258.555238
L 102.108333 -272.994921
L 68.2 -330.753651
z
" style="stroke: #d62728"/>
    </defs>
    <g clip-path="url(#p395c6f51bf)">
     <use xlink:href="#m005568534a" x="0" y="432" style="fill: #d62728; stroke: #d62728"/>
    </g>
   </g>
   <g id="FillBetweenPolyCollection_8">
    <defs>
     <path id="m446a3a63d9" d="M 68.2 -330.753651
L 68.2 -330.753651
L 102.108333 -272.994921
L 136.016667 -258.555238
L 169.925 -258.555238
L 203.833333 -301.874286
L 237.741667 -140.974966
L 271.65 -190.482449
L 305.558333 -258.555238
L 339.466667 -330.753651
L 373.375 -258.555238
L 407.283333 -301.874286
L 441.191667 -301.874286
L 475.1 -258.555238
L 475.1 -301.874286
L 475.1 -301.874286
L 441.191667 -301.874286
L 407.283333 -345.193333
L 373.375 -301.874286
L 339.466667 -388.512381
L 305.558333 -301.874286
L 271.65 -190.482449
L 237.741667 -140.974966
L 203.833333 -301.874286
L 169.925 -258.555238
L 136.016667 -258.555238
L 102.108333 -272.994921
L 68.2 -330.753651
z
" style="stroke: #ff9896"/>
    </defs>
    <g clip-path="url(#p395c6f51bf)">
     <use xlink:href="#m446a3a63d9" x="0" y="432" style="fill: #ff9896; stroke: #ff9896"/>
    </g>
   </g>
   <g id="FillBetweenPolyCollection_9">
    <defs>
     <path id="mc68c435019" d="M 68.2 -330.753651
L 68.2 -330.753651
L 102.108333 -272.994921
L 136.016667 -258.555238
L 169.925 -258.555238
L 203.833333 -301.874286
L 237.741667 -140.974966
L 271.65 -190.482449
L 305.558333 -301.874286
L 339.466667 -388.512381
L 373.375 -301.874286
L 407.283333 -345.193333
L 441.191667 -301.874286
L 475.1 -301.874286
L 475.1 -301.874286
L 475.1 -301.874286
L 441.191667 -301.874286
L 407.283333 -345.193333
L 373.375 -301.874286
L 339.466667 -388.512381
L 305.558333 -301.874286
L 271.65 -190.482449
L 237.741667 -140.974966
L 203.833333 -301.874286
L 169.925 -258.555238
L 136.016667 -301.874286
L 102.108333 -330.753651
L 68.2 -330.753651
z
" style="stroke: #9467bd"/>
    </defs>
    <g clip-path="url(#p395c6f51bf)">
     <use xlink:href="#mc68c435019" x="0" y="432" style="fill: #9467bd; stroke: #9467bd"/>
    </g>
   </g>
   <g id="FillBetweenPolyCollection_10">
    <defs>
     <path id="m25f83a0f95" d="M 68.2 -388.512381
L 68.2 -330.753651
L 102.108333 -330.753651
L 136.016667 -301.874286
L 169.925 -258.555238
L 203.833333 -301.874286
L 237.741667 -140.974966
L 271.65 -190.482449
L 305.558333 -301.874286
L 339.466667 -388.512381
L 373.375 -301.874286
L 407.283333 -345.193333
L 441.191667 -301.874286
L 475.1 -301.874286
L 475.1 -345.193333
L 475.1 -345.193333
L 441.191667 -345.193333
L 407.283333 -345.193333
L 373.375 -345.193333
L 339.466667 -388.512381
L 305.558333 -388.512381
L 271.65 -388.512381
L 237.741667 -388.512381
L 203.833333 -345.193333
L 169.925 -345.193333
L 136.016667 -345.193333
L 102.108333 -388.512381
L 68.2 -388.512381
z
" style="stroke: #c5b0d5"/>
    </defs>
    <g clip-path="url(#p395c6f51bf)">
     <use xlink:href="#m25f83a0f95" x="0" y="432" style="fill: #c5b0d5; stroke: #c5b0d5"/>
    </g>
   </g>
   <g id="FillBetweenPolyCollection_11">
    <defs>
     <path id="m54b5811e7b" d="M 68.2 -388.512381
L 68.2 -388.512381
L 102.108333 -388.512381
L 136.016667 -345.193333
L 169.925 -345.193333
L 203.833333 -345.193333
L 237.741667 -388.512381
L 271.65 -388.512381
L 305.558333 -388.512381
L 339.466667 -388.512381
L 373.375 -345.193333
L 407.283333 -345.193333
L 441.191667 -345.193333
L 475.1 -345.193333
L 475.1 -388.512381
L 475.1 -388.512381
L 441.191667 -388.512381
L 407.283333 -388.512381
L 373.375 -388.512381
L 339.466667 -388.512381
L 305.558333 -388.512381
L 271.65 -388.512381
L 237.741667 -388.512381
L 203.833333 -388.512381
L 169.925 -388.512381
L 136.016667 -388.512381
L 102.108333 -388.512381
L 68.2 -388.512381
z
" style="stroke: #8c564b"/>
    </defs>
    <g clip-path="url(#p395c6f51bf)">
     <use xlink:href="#m54b5811e7b" x="0" y="432" style="fill: #8c564b; stroke: #8c564b"/>
    </g>
   </g>
   <g id="matplotlib.axis_1">
    <g id="xtick_1">
     <g id="line2d_1">
      <defs>
       <path id="m43bd97c22f" d="M 0 0
L 0 3.5
" style="stroke: #000000; stroke-width: 0.8"/>
      </defs>
      <g>
       <use xlink:href="#m43bd97c22f" x="102.108333" y="390.04" style="stroke: #000000; stroke-width: 0.8"/>
      </g>
     </g>
     <g id="text_1">
      <!-- 2014 -->
      <g transform="translate(89.383333 404.638438) scale(0.1 -0.1)">
       <defs>
        <path id="DejaVuSans-32" d="M 1228 531
L 3431 531
L 3431 0
L 469 0
L 469 531
Q 828 903 1448 1529
Q 2069 2156 2228 2338
Q 2531 2678 2651 2914
Q 2772 3150 2772 3378
Q 2772 3750 2511 3984
Q 2250 4219 1831 4219
Q 1534 4219 1204 4116
Q 875 4013 500 3803
L 500 4441
Q 881 4594 1212 4672
Q 1544 4750 1819 4750
Q 2544 4750 2975 4387
Q 3406 4025 3406 3419
Q 3406 3131 3298 2873
Q 3191 2616 2906 2266
Q 2828 2175 2409 1742
Q 1991 1309 1228 531
z
" transform="scale(0.015625)"/>
        <path id="DejaVuSans-30" d="M 2034 4250
Q 1547 4250 1301 3770
Q 1056 3291 1056 2328
Q 1056 1369 1301 889
Q 1547 409 2034 409
Q 2525 409 2770 889
Q 3016 1369 3016 2328
Q 3016 3291 2770 3770
Q 2525 4250 2034 4250
z
M 2034 4750
Q 2819 4750 3233 4129
Q 3647 3509 3647 2328
Q 3647 1150 3233 529
Q 2819 -91 2034 -91
Q 1250 -91 836 529
Q 422 1150 422 2328
Q 422 3509 836 4129
Q 1250 4750 2034 4750
z
" transform="scale(0.015625)"/>
        <path id="DejaVuSans-31" d="M 794 531
L 1825 531
L 1825 4091
L 703 3866
L 703 4441
L 1819 4666
L 2450 4666
L 2450 531
L 3481 531
L 3481 0
L 794 0
L 794 531
z
" transform="scale(0.015625)"/>
        <path id="DejaVuSans-34" d="M 2419 4116
L 825 1625
L 2419 1625
L 2419 4116
z
M 2253 4666
L 3047 4666
L 3047 1625
L 3713 1625
L 3713 1100
L 3047 1100
L 3047 0
L 2419 0
L 2419 1100
L 313 1100
L 313 1709
L 2253 4666
z
" transform="scale(0.015625)"/>
       </defs>
       <use xlink:href="#DejaVuSans-32"/>
       <use xlink:href="#DejaVuSans-30" transform="translate(63.623047 0)"/>
       <use xlink:href="#DejaVuSans-31" transform="translate(127.246094 0)"/>
       <use xlink:href="#DejaVuSans-34" transform="translate(190.869141 0)"/>
      </g>
     </g>
    </g>
    <g id="xtick_2">
     <g id="line2d_2">
      <g>
       <use xlink:href="#m43bd97c22f" x="169.925" y="390.04" style="stroke: #000000; stroke-width: 0.8"/>
      </g>
     </g>
     <g id="text_2">
      <!-- 2016 -->
      <g transform="translate(157.2 404.638438) scale(0.1 -0.1)">
       <defs>
        <path id="DejaVuSans-36" d="M 2113 2584
Q 1688 2584 1439 2293
Q 1191 2003 1191 1497
Q 1191 994 1439 701
Q 1688 409 2113 409
Q 2538 409 2786 701
Q 3034 994 3034 1497
Q 3034 2003 2786 2293
Q 2538 2584 2113 2584
z
M 3366 4563
L 3366 3988
Q 3128 4100 2886 4159
Q 2644 4219 2406 4219
Q 1781 4219 1451 3797
Q 1122 3375 1075 2522
Q 1259 2794 1537 2939
Q 1816 3084 2150 3084
Q 2853 3084 3261 2657
Q 3669 2231 3669 1497
Q 3669 778 3244 343
Q 2819 -91 2113 -91
Q 1303 -91 875 529
Q 447 1150 447 2328
Q 447 3434 972 4092
Q 1497 4750 2381 4750
Q 2619 4750 2861 4703
Q 3103 4656 3366 4563
z
" transform="scale(0.015625)"/>
       </defs>
       <use xlink:href="#DejaVuSans-32"/>
       <use xlink:href="#DejaVuSans-30" transform="translate(63.623047 0)"/>
       <use xlink:href="#DejaVuSans-31" transform="translate(127.246094 0)"/>
       <use xlink:href="#DejaVuSans-36" transform="translate(190.869141 0)"/>
      </g>
     </g>
    </g>
    <g id="xtick_3">
     <g id="line2d_3">
      <g>
       <use xlink:href="#m43bd97c22f" x="237.741667" y="390.04" style="stroke: #000000; stroke-width: 0.8"/>
      </g>
     </g>
     <g id="text_3">
      <!-- 2018 -->
      <g transform="translate(225.016667 404.638438) scale(0.1 -0.1)">
       <defs>
        <path id="DejaVuSans-38" d="M 2034 2216
Q 1584 2216 1326 1975
Q 1069 1734 1069 1313
Q 1069 891 1326 650
Q 1584 409 2034 409
Q 2484 409 2743 651
Q 3003 894 3003 1313
Q 3003 1734 2745 1975
Q 2488 2216 2034 2216
z
M 1403 2484
Q 997 2584 770 2862
Q 544 3141 544 3541
Q 544 4100 942 4425
Q 1341 4750 2034 4750
Q 2731 4750 3128 4425
Q 3525 4100 3525 3541
Q 3525 3141 3298 2862
Q 3072 2584 2669 2484
Q 3125 2378 3379 2068
Q 3634 1759 3634 1313
Q 3634 634 3220 271
Q 2806 -91 2034 -91
Q 1263 -91 848 271
Q 434 634 434 1313
Q 434 1759 690 2068
Q 947 2378 1403 2484
z
M 1172 3481
Q 1172 3119 1398 2916
Q 1625 2713 2034 2713
Q 2441 2713 2670 2916
Q 2900 3119 2900 3481
Q 2900 3844 2670 4047
Q 2441 4250 2034 4250
Q 1625 4250 1398 4047
Q 1172 3844 1172 3481
z
" transform="scale(0.015625)"/>
       </defs>
       <use xlink:href="#DejaVuSans-32"/>
       <use xlink:href="#DejaVuSans-30" transform="translate(63.623047 0)"/>
       <use xlink:href="#DejaVuSans-31" transform="translate(127.246094 0)"/>
       <use xlink:href="#DejaVuSans-38" transform="translate(190.869141 0)"/>
      </g>
     </g>
    </g>
    <g id="xtick_4">
     <g id="line2d_4">
      <g>
       <use xlink:href="#m43bd97c22f" x="305.558333" y="390.04" style="stroke: #000000; stroke-width: 0.8"/>
      </g>
     </g>
     <g id="text_4">
      <!-- 2020 -->
      <g transform="translate(292.833333 404.638438) scale(0.1 -0.1)">
       <use xlink:href="#DejaVuSans-32"/>
       <use xlink:href="#DejaVuSans-30" transform="translate(63.623047 0)"/>
       <use xlink:href="#DejaVuSans-32" transform="translate(127.246094 0)"/>
       <use xlink:href="#DejaVuSans-30" transform="translate(190.869141 0)"/>
      </g>
     </g>
    </g>
    <g id="xtick_5">
     <g id="line2d_5">
      <g>
       <use xlink:href="#m43bd97c22f" x="373.375" y="390.04" style="stroke: #000000; stroke-width: 0.8"/>
      </g>
     </g>
     <g id="text_5">
      <!-- 2022 -->
      <g transform="translate(360.65 404.638438) scale(0.1 -0.1)">
       <use xlink:href="#DejaVuSans-32"/>
       <use xlink:href="#DejaVuSans-30" transform="translate(63.623047 0)"/>
       <use xlink:href="#DejaVuSans-32" transform="translate(127.246094 0)"/>
       <use xlink:href="#DejaVuSans-32" transform="translate(190.869141 0)"/>
      </g>
     </g>
    </g>
    <g id="xtick_6">
     <g id="line2d_6">
      <g>
       <use xlink:href="#m43bd97c22f" x="441.191667" y="390.04" style="stroke: #000000; stroke-width: 0.8"/>
      </g>
     </g>
     <g id="text_6">
      <!-- 2024 -->
      <g transform="translate(428.466667 404.638438) scale(0.1 -0.1)">
       <use xlink:href="#DejaVuSans-32"/>
       <use xlink:href="#DejaVuSans-30" transform="translate(63.623047 0)"/>
       <use xlink:href="#DejaVuSans-32" transform="translate(127.246094 0)"/>
       <use xlink:href="#DejaVuSans-34" transform="translate(190.869141 0)"/>
      </g>
     </g>
    </g>
    <g id="text_7">
     <!-- Year -->
     <g transform="translate(261.0625 418.316562) scale(0.1 -0.1)">
      <defs>
       <path id="DejaVuSans-59" d="M -13 4666
L 666 4666
L 1959 2747
L 3244 4666
L 3922 4666
L 2272 2222
L 2272 0
L 1638 0
L 1638 2222
L -13 4666
z
" transform="scale(0.015625)"/>
       <path id="DejaVuSans-65" d="M 3597 1894
L 3597 1613
L 953 1613
Q 991 1019 1311 708
Q 1631 397 2203 397
Q 2534 397 2845 478
Q 3156 559 3463 722
L 3463 178
Q 3153 47 2828 -22
Q 2503 -91 2169 -91
Q 1331 -91 842 396
Q 353 884 353 1716
Q 353 2575 817 3079
Q 1281 3584 2069 3584
Q 2775 3584 3186 3129
Q 3597 2675 3597 1894
z
M 3022 2063
Q 3016 2534 2758 2815
Q 2500 3097 2075 3097
Q 1594 3097 1305 2825
Q 1016 2553 972 2059
L 3022 2063
z
" transform="scale(0.015625)"/>
       <path id="DejaVuSans-61" d="M 2194 1759
Q 1497 1759 1228 1600
Q 959 1441 959 1056
Q 959 750 1161 570
Q 1363 391 1709 391
Q 2188 391 2477 730
Q 2766 1069 2766 1631
L 2766 1759
L 2194 1759
z
M 3341 1997
L 3341 0
L 2766 0
L 2766 531
Q 2569 213 2275 61
Q 1981 -91 1556 -91
Q 1019 -91 701 211
Q 384 513 384 1019
Q 384 1609 779 1909
Q 1175 2209 1959 2209
L 2766 2209
L 2766 2266
Q 2766 2663 2505 2880
Q 2244 3097 1772 3097
Q 1472 3097 1187 3025
Q 903 2953 641 2809
L 641 3341
Q 956 3463 1253 3523
Q 1550 3584 1831 3584
Q 2591 3584 2966 3190
Q 3341 2797 3341 1997
z
" transform="scale(0.015625)"/>
       <path id="DejaVuSans-72" d="M 2631 2963
Q 2534 3019 2420 3045
Q 2306 3072 2169 3072
Q 1681 3072 1420 2755
Q 1159 2438 1159 1844
L 1159 0
L 581 0
L 581 3500
L 1159 3500
L 1159 2956
Q 1341 3275 1631 3429
Q 1922 3584 2338 3584
Q 2397 3584 2469 3576
Q 2541 3569 2628 3553
L 2631 2963
z
" transform="scale(0.015625)"/>
      </defs>
      <use xlink:href="#DejaVuSans-59"/>
      <use xlink:href="#DejaVuSans-65" transform="translate(47.833984 0)"/>
      <use xlink:href="#DejaVuSans-61" transform="translate(109.357422 0)"/>
      <use xlink:href="#DejaVuSans-72" transform="translate(170.636719 0)"/>
     </g>
    </g>
   </g>
   <g id="matplotlib.axis_2">
    <g id="ytick_1">
     <g id="line2d_7">
      <defs>
       <path id="m9faf8ccd97" d="M 0 0
L -3.5 0
" style="stroke: #000000; stroke-width: 0.8"/>
      </defs>
      <g>
       <use xlink:href="#m9faf8ccd97" x="47.855" y="390.04" style="stroke: #000000; stroke-width: 0.8"/>
      </g>
     </g>
     <g id="text_8">
      <!-- 0.0 -->
      <g transform="translate(24.951875 393.839219) scale(0.1 -0.1)">
       <defs>
        <path id="DejaVuSans-2e" d="M 684 794
L 1344 794
L 1344 0
L 684 0
L 684 794
z
" transform="scale(0.015625)"/>
       </defs>
       <use xlink:href="#DejaVuSans-30"/>
       <use xlink:href="#DejaVuSans-2e" transform="translate(63.623047 0)"/>
       <use xlink:href="#DejaVuSans-30" transform="translate(95.410156 0)"/>
      </g>
     </g>
    </g>
    <g id="ytick_2">
     <g id="line2d_8">
      <g>
       <use xlink:href="#m9faf8ccd97" x="47.855" y="320.729524" style="stroke: #000000; stroke-width: 0.8"/>
      </g>
     </g>
     <g id="text_9">
      <!-- 0.2 -->
      <g transform="translate(24.951875 324.528743) scale(0.1 -0.1)">
       <use xlink:href="#DejaVuSans-30"/>
       <use xlink:href="#DejaVuSans-2e" transform="translate(63.623047 0)"/>
       <use xlink:href="#DejaVuSans-32" transform="translate(95.410156 0)"/>
      </g>
     </g>
    </g>
    <g id="ytick_3">
     <g id="line2d_9">
      <g>
       <use xlink:href="#m9faf8ccd97" x="47.855" y="251.419048" style="stroke: #000000; stroke-width: 0.8"/>
      </g>
     </g>
     <g id="text_10">
      <!-- 0.4 -->
      <g transform="translate(24.951875 255.218266) scale(0.1 -0.1)">
       <use xlink:href="#DejaVuSans-30"/>
       <use xlink:href="#DejaVuSans-2e" transform="translate(63.623047 0)"/>
       <use xlink:href="#DejaVuSans-34" transform="translate(95.410156 0)"/>
      </g>
     </g>
    </g>
    <g id="ytick_4">
     <g id="line2d_10">
      <g>
       <use xlink:href="#m9faf8ccd97" x="47.855" y="182.108571" style="stroke: #000000; stroke-width: 0.8"/>
      </g>
     </g>
     <g id="text_11">
      <!-- 0.6 -->
      <g transform="translate(24.951875 185.90779) scale(0.1 -0.1)">
       <use xlink:href="#DejaVuSans-30"/>
       <use xlink:href="#DejaVuSans-2e" transform="translate(63.623047 0)"/>
       <use xlink:href="#DejaVuSans-36" transform="translate(95.410156 0)"/>
      </g>
     </g>
    </g>
    <g id="ytick_5">
     <g id="line2d_11">
      <g>
       <use xlink:href="#m9faf8ccd97" x="47.855" y="112.798095" style="stroke: #000000; stroke-width: 0.8"/>
      </g>
     </g>
     <g id="text_12">
      <!-- 0.8 -->
      <g transform="translate(24.951875 116.597314) scale(0.1 -0.1)">
       <use xlink:href="#DejaVuSans-30"/>
       <use xlink:href="#DejaVuSans-2e" transform="translate(63.623047 0)"/>
       <use xlink:href="#DejaVuSans-38" transform="translate(95.410156 0)"/>
      </g>
     </g>
    </g>
    <g id="ytick_6">
     <g id="line2d_12">
      <g>
       <use xlink:href="#m9faf8ccd97" x="47.855" y="43.487619" style="stroke: #000000; stroke-width: 0.8"/>
      </g>
     </g>
     <g id="text_13">
      <!-- 1.0 -->
      <g transform="translate(24.951875 47.286838) scale(0.1 -0.1)">
       <use xlink:href="#DejaVuSans-31"/>
       <use xlink:href="#DejaVuSans-2e" transform="translate(63.623047 0)"/>
       <use xlink:href="#DejaVuSans-30" transform="translate(95.410156 0)"/>
      </g>
     </g>
    </g>
    <g id="text_14">
     <!-- Share of topics -->
     <g transform="translate(18.872188 245.460937) rotate(-90) scale(0.1 -0.1)">
      <defs>
       <path id="DejaVuSans-53" d="M 3425 4513
L 3425 3897
Q 3066 4069 2747 4153
Q 2428 4238 2131 4238
Q 1616 4238 1336 4038
Q 1056 3838 1056 3469
Q 1056 3159 1242 3001
Q 1428 2844 1947 2747
L 2328 2669
Q 3034 2534 3370 2195
Q 3706 1856 3706 1288
Q 3706 609 3251 259
Q 2797 -91 1919 -91
Q 1588 -91 1214 -16
Q 841 59 441 206
L 441 856
Q 825 641 1194 531
Q 1563 422 1919 422
Q 2459 422 2753 634
Q 3047 847 3047 1241
Q 3047 1584 2836 1778
Q 2625 1972 2144 2069
L 1759 2144
Q 1053 2284 737 2584
Q 422 2884 422 3419
Q 422 4038 858 4394
Q 1294 4750 2059 4750
Q 2388 4750 2728 4690
Q 3069 4631 3425 4513
z
" transform="scale(0.015625)"/>
       <path id="DejaVuSans-68" d="M 3513 2113
L 3513 0
L 2938 0
L 2938 2094
Q 2938 2591 2744 2837
Q 2550 3084 2163 3084
Q 1697 3084 1428 2787
Q 1159 2491 1159 1978
L 1159 0
L 581 0
L 581 4863
L 1159 4863
L 1159 2956
Q 1366 3272 1645 3428
Q 1925 3584 2291 3584
Q 2894 3584 3203 3211
Q 3513 2838 3513 2113
z
" transform="scale(0.015625)"/>
       <path id="DejaVuSans-20" transform="scale(0.015625)"/>
       <path id="DejaVuSans-6f" d="M 1959 3097
Q 1497 3097 1228 2736
Q 959 2375 959 1747
Q 959 1119 1226 758
Q 1494 397 1959 397
Q 2419 397 2687 759
Q 2956 1122 2956 1747
Q 2956 2369 2687 2733
Q 2419 3097 1959 3097
z
M 1959 3584
Q 2709 3584 3137 3096
Q 3566 2609 3566 1747
Q 3566 888 3137 398
Q 2709 -91 1959 -91
Q 1206 -91 779 398
Q 353 888 353 1747
Q 353 2609 779 3096
Q 1206 3584 1959 3584
z
" transform="scale(0.015625)"/>
       <path id="DejaVuSans-66" d="M 2375 4863
L 2375 4384
L 1825 4384
Q 1516 4384 1395 4259
Q 1275 4134 1275 3809
L 1275 3500
L 2222 3500
L 2222 3053
L 1275 3053
L 1275 0
L 697 0
L 697 3053
L 147 3053
L 147 3500
L 697 3500
L 697 3744
Q 697 4328 969 4595
Q 1241 4863 1831 4863
L 2375 4863
z
" transform="scale(0.015625)"/>
       <path id="DejaVuSans-74" d="M 1172 4494
L 1172 3500
L 2356 3500
L 2356 3053
L 1172 3053
L 1172 1153
Q 1172 725 1289 603
Q 1406 481 1766 481
L 2356 481
L 2356 0
L 1766 0
Q 1100 0 847 248
Q 594 497 594 1153
L 594 3053
L 172 3053
L 172 3500
L 594 3500
L 594 4494
L 1172 4494
z
" transform="scale(0.015625)"/>
       <path id="DejaVuSans-70" d="M 1159 525
L 1159 -1331
L 581 -1331
L 581 3500
L 1159 3500
L 1159 2969
Q 1341 3281 1617 3432
Q 1894 3584 2278 3584
Q 2916 3584 3314 3078
Q 3713 2572 3713 1747
Q 3713 922 3314 415
Q 2916 -91 2278 -91
Q 1894 -91 1617 61
Q 1341 213 1159 525
z
M 3116 1747
Q 3116 2381 2855 2742
Q 2594 3103 2138 3103
Q 1681 3103 1420 2742
Q 1159 2381 1159 1747
Q 1159 1113 1420 752
Q 1681 391 2138 391
Q 2594 391 2855 752
Q 3116 1113 3116 1747
z
" transform="scale(0.015625)"/>
       <path id="DejaVuSans-69" d="M 603 3500
L 1178 3500
L 1178 0
L 603 0
L 603 3500
z
M 603 4863
L 1178 4863
L 1178 4134
L 603 4134
L 603 4863
z
" transform="scale(0.015625)"/>
       <path id="DejaVuSans-63" d="M 3122 3366
L 3122 2828
Q 2878 2963 2633 3030
Q 2388 3097 2138 3097
Q 1578 3097 1268 2742
Q 959 2388 959 1747
Q 959 1106 1268 751
Q 1578 397 2138 397
Q 2388 397 2633 464
Q 2878 531 3122 666
L 3122 134
Q 2881 22 2623 -34
Q 2366 -91 2075 -91
Q 1284 -91 818 406
Q 353 903 353 1747
Q 353 2603 823 3093
Q 1294 3584 2113 3584
Q 2378 3584 2631 3529
Q 2884 3475 3122 3366
z
" transform="scale(0.015625)"/>
       <path id="DejaVuSans-73" d="M 2834 3397
L 2834 2853
Q 2591 2978 2328 3040
Q 2066 3103 1784 3103
Q 1356 3103 1142 2972
Q 928 2841 928 2578
Q 928 2378 1081 2264
Q 1234 2150 1697 2047
L 1894 2003
Q 2506 1872 2764 1633
Q 3022 1394 3022 966
Q 3022 478 2636 193
Q 2250 -91 1575 -91
Q 1294 -91 989 -36
Q 684 19 347 128
L 347 722
Q 666 556 975 473
Q 1284 391 1588 391
Q 1994 391 2212 530
Q 2431 669 2431 922
Q 2431 1156 2273 1281
Q 2116 1406 1581 1522
L 1381 1569
Q 847 1681 609 1914
Q 372 2147 372 2553
Q 372 3047 722 3315
Q 1072 3584 1716 3584
Q 2034 3584 2315 3537
Q 2597 3491 2834 3397
z
" transform="scale(0.015625)"/>
      </defs>
      <use xlink:href="#DejaVuSans-53"/>
      <use xlink:href="#DejaVuSans-68" transform="translate(63.476562 0)"/>
      <use xlink:href="#DejaVuSans-61" transform="translate(126.855469 0)"/>
      <use xlink:href="#DejaVuSans-72" transform="translate(188.134766 0)"/>
      <use xlink:href="#DejaVuSans-65" transform="translate(226.998047 0)"/>
      <use xlink:href="#DejaVuSans-20" transform="translate(288.521484 0)"/>
      <use xlink:href="#DejaVuSans-6f" transform="translate(320.308594 0)"/>
      <use xlink:href="#DejaVuSans-66" transform="translate(381.490234 0)"/>
      <use xlink:href="#DejaVuSans-20" transform="translate(416.695312 0)"/>
      <use xlink:href="#DejaVuSans-74" transform="translate(448.482422 0)"/>
      <use xlink:href="#DejaVuSans-6f" transform="translate(487.691406 0)"/>
      <use xlink:href="#DejaVuSans-70" transform="translate(548.873047 0)"/>
      <use xlink:href="#DejaVuSans-69" transform="translate(612.349609 0)"/>
      <use xlink:href="#DejaVuSans-63" transform="translate(640.132812 0)"/>
      <use xlink:href="#DejaVuSans-73" transform="translate(695.113281 0)"/>
     </g>
    </g>
   </g>
   <g id="line2d_13">
    <path d="M 68.2 332.28127
L 102.108333 332.28127
L 136.016667 346.720952
L 169.925 346.720952
L 203.833333 346.720952
L 237.741667 340.532517
L 271.65 340.532517
L 305.558333 303.401905
L 339.466667 332.28127
L 373.375 303.401905
L 407.283333 346.720952
L 441.191667 303.401905
L 475.1 346.720952
" clip-path="url(#p395c6f51bf)" style="fill: none; stroke: #1f77b4; stroke-width: 1.5; stroke-linecap: square"/>
   </g>
   <g id="line2d_14">
    <path d="M 68.2 274.52254
L 102.108333 332.28127
L 136.016667 346.720952
L 169.925 346.720952
L 203.833333 346.720952
L 237.741667 340.532517
L 271.65 340.532517
L 305.558333 303.401905
L 339.466667 274.52254
L 373.375 303.401905
L 407.283333 346.720952
L 441.191667 303.401905
L 475.1 346.720952
" clip-path="url(#p395c6f51bf)" style="fill: none; stroke: #aec7e8; stroke-width: 1.5; stroke-linecap: square"/>
   </g>
   <g id="line2d_15">
    <path d="M 68.2 216.76381
L 102.108333 332.28127
L 136.016667 346.720952
L 169.925 346.720952
L 203.833333 346.720952
L 237.741667 340.532517
L 271.65 340.532517
L 305.558333 303.401905
L 339.466667 274.52254
L 373.375 303.401905
L 407.283333 346.720952
L 441.191667 303.401905
L 475.1 346.720952
" clip-path="url(#p395c6f51bf)" style="fill: none; stroke: #ff7f0e; stroke-width: 1.5; stroke-linecap: square"/>
   </g>
   <g id="line2d_16">
    <path d="M 68.2 216.76381
L 102.108333 332.28127
L 136.016667 346.720952
L 169.925 346.720952
L 203.833333 346.720952
L 237.741667 340.532517
L 271.65 340.532517
L 305.558333 303.401905
L 339.466667 274.52254
L 373.375 303.401905
L 407.283333 303.401905
L 441.191667 260.082857
L 475.1 346.720952
" clip-path="url(#p395c6f51bf)" style="fill: none; stroke: #ffbb78; stroke-width: 1.5; stroke-linecap: square"/>
   </g>
   <g id="line2d_17">
    <path d="M 68.2 216.76381
L 102.108333 332.28127
L 136.016667 346.720952
L 169.925 346.720952
L 203.833333 346.720952
L 237.741667 340.532517
L 271.65 340.532517
L 305.558333 303.401905
L 339.466667 216.76381
L 373.375 260.082857
L 407.283333 260.082857
L 441.191667 260.082857
L 475.1 346.720952
" clip-path="url(#p395c6f51bf)" style="fill: none; stroke: #2ca02c; stroke-width: 1.5; stroke-linecap: square"/>
   </g>
   <g id="line2d_18">
    <path d="M 68.2 216.76381
L 102.108333 274.52254
L 136.016667 216.76381
L 169.925 260.082857
L 203.833333 216.76381
L 237.741667 291.025034
L 271.65 291.025034
L 305.558333 260.082857
L 339.466667 159.005079
L 373.375 216.76381
L 407.283333 173.444762
L 441.191667 130.125714
L 475.1 173.444762
" clip-path="url(#p395c6f51bf)" style="fill: none; stroke: #98df8a; stroke-width: 1.5; stroke-linecap: square"/>
   </g>
   <g id="line2d_19">
    <path d="M 68.2 101.246349
L 102.108333 159.005079
L 136.016667 173.444762
L 169.925 173.444762
L 203.833333 130.125714
L 237.741667 291.025034
L 271.65 241.517551
L 305.558333 173.444762
L 339.466667 101.246349
L 373.375 173.444762
L 407.283333 130.125714
L 441.191667 130.125714
L 475.1 173.444762
" clip-path="url(#p395c6f51bf)" style="fill: none; stroke: #d62728; stroke-width: 1.5; stroke-linecap: square"/>
   </g>
   <g id="line2d_20">
    <path d="M 68.2 101.246349
L 102.108333 159.005079
L 136.016667 173.444762
L 169.925 173.444762
L 203.833333 130.125714
L 237.741667 291.025034
L 271.65 241.517551
L 305.558333 130.125714
L 339.466667 43.487619
L 373.375 130.125714
L 407.283333 86.806667
L 441.191667 130.125714
L 475.1 130.125714
" clip-path="url(#p395c6f51bf)" style="fill: none; stroke: #ff9896; stroke-width: 1.5; stroke-linecap: square"/>
   </g>
   <g id="line2d_21">
    <path d="M 68.2 101.246349
L 102.108333 101.246349
L 136.016667 130.125714
L 169.925 173.444762
L 203.833333 130.125714
L 237.741667 291.025034
L 271.65 241.517551
L 305.558333 130.125714
L 339.466667 43.487619
L 373.375 130.125714
L 407.283333 86.806667
L 441.191667 130.125714
L 475.1 130.125714
" clip-path="url(#p395c6f51bf)" style="fill: none; stroke: #9467bd; stroke-width: 1.5; stroke-linecap: square"/>
   </g>
   <g id="line2d_22">
    <path d="M 68.2 43.487619
L 102.108333 43.487619
L 136.016667 86.806667
L 169.925 86.806667
L 203.833333 86.806667
L 237.741667 43.487619
L 271.65 43.487619
L 305.558333 43.487619
L 339.466667 43.487619
L 373.375 86.806667
L 407.283333 86.806667
L 441.191667 86.806667
L 475.1 86.806667
" clip-path="url(#p395c6f51bf)" style="fill: none; stroke: #c5b0d5; stroke-width: 1.5; stroke-linecap: square"/>
   </g>
   <g id="line2d_23">
    <path d="M 68.2 43.487619
L 102.108333 43.487619
L 136.016667 43.487619
L 169.925 43.487619
L 203.833333 43.487619
L 237.741667 43.487619
L 271.65 43.487619
L 305.558333 43.487619
L 339.466667 43.487619
L 373.375 43.487619
L 407.283333 43.487619
L 441.191667 43.487619
L 475.1 43.487619
" clip-path="url(#p395c6f51bf)" style="fill: none; stroke: #8c564b; stroke-width: 1.5; stroke-linecap: square"/>
   </g>
   <g id="patch_3">
    <path d="M 47.855 390.04
L 47.855 26.16
" style="fill: none; stroke: #000000; stroke-width: 0.8; stroke-linejoin: miter; stroke-linecap: square"/>
   </g>
   <g id="patch_4">
    <path d="M 495.445 390.04
L 495.445 26.16
" style="fill: none; stroke: #000000; stroke-width: 0.8; stroke-linejoin: miter; stroke-linecap: square"/>
   </g>
   <g id="patch_5">
    <path d="M 47.855 390.04
L 495.445 390.04
" style="fill: none; stroke: #000000; stroke-width: 0.8; stroke-linejoin: miter; stroke-linecap: square"/>
   </g>
   <g id="patch_6">
    <path d="M 47.855 26.16
L 495.445 26.16
" style="fill: none; stroke: #000000; stroke-width: 0.8; stroke-linejoin: miter; stroke-linecap: square"/>
   </g>
   <g id="text_15">
    <!-- PR Topic Mix Over Time -->
    <g transform="translate(201.636563 20.16) scale(0.12 -0.12)">
     <defs>
      <path id="DejaVuSans-50" d="M 1259 4147
L 1259 2394
L 2053 2394
Q 2494 2394 2734 2622
Q 2975 2850 2975 3272
Q 2975 3691 2734 3919
Q 2494 4147 2053 4147
L 1259 4147
z
M 628 4666
L 2053 4666
Q 2838 4666 3239 4311
Q 3641 3956 3641 3272
Q 3641 2581 3239 2228
Q 2838 1875 2053 1875
L 1259 1875
L 1259 0
L 628 0
L 628 4666
z
" transform="scale(0.015625)"/>
      <path id="DejaVuSans-52" d="M 2841 2188
Q 3044 2119 3236 1894
Q 3428 1669 3622 1275
L 4263 0
L 3584 0
L 2988 1197
Q 2756 1666 2539 1819
Q 2322 1972 1947 1972
L 1259 1972
L 1259 0
L 628 0
L 628 4666
L 2053 4666
Q 2853 4666 3247 4331
Q 3641 3997 3641 3322
Q 3641 2881 3436 2590
Q 3231 2300 2841 2188
z
M 1259 4147
L 1259 2491
L 2053 2491
Q 2509 2491 2742 2702
Q 2975 2913 2975 3322
Q 2975 3731 2742 3939
Q 2509 4147 2053 4147
L 1259 4147
z
" transform="scale(0.015625)"/>
      <path id="DejaVuSans-54" d="M -19 4666
L 3928 4666
L 3928 4134
L 2272 4134
L 2272 0
L 1638 0
L 1638 4134
L -19 4134
L -19 4666
z
" transform="scale(0.015625)"/>
      <path id="DejaVuSans-4d" d="M 628 4666
L 1569 4666
L 2759 1491
L 3956 4666
L 4897 4666
L 4897 0
L 4281 0
L 4281 4097
L 3078 897
L 2444 897
L 1241 4097
L 1241 0
L 628 0
L 628 4666
z
" transform="scale(0.015625)"/>
      <path id="DejaVuSans-78" d="M 3513 3500
L 2247 1797
L 3578 0
L 2900 0
L 1881 1375
L 863 0
L 184 0
L 1544 1831
L 300 3500
L 978 3500
L 1906 2253
L 2834 3500
L 3513 3500
z
" transform="scale(0.015625)"/>
      <path id="DejaVuSans-4f" d="M 2522 4238
Q 1834 4238 1429 3725
Q 1025 3213 1025 2328
Q 1025 1447 1429 934
Q 1834 422 2522 422
Q 3209 422 3611 934
Q 4013 1447 4013 2328
Q 4013 3213 3611 3725
Q 3209 4238 2522 4238
z
M 2522 4750
Q 3503 4750 4090 4092
Q 4678 3434 4678 2328
Q 4678 1225 4090 567
Q 3503 -91 2522 -91
Q 1538 -91 948 565
Q 359 1222 359 2328
Q 359 3434 948 4092
Q 1538 4750 2522 4750
z
" transform="scale(0.015625)"/>
      <path id="DejaVuSans-76" d="M 191 3500
L 800 3500
L 1894 563
L 2988 3500
L 3597 3500
L 2284 0
L 1503 0
L 191 3500
z
" transform="scale(0.015625)"/>
      <path id="DejaVuSans-6d" d="M 3328 2828
Q 3544 3216 3844 3400
Q 4144 3584 4550 3584
Q 5097 3584 5394 3201
Q 5691 2819 5691 2113
L 5691 0
L 5113 0
L 5113 2094
Q 5113 2597 4934 2840
Q 4756 3084 4391 3084
Q 3944 3084 3684 2787
Q 3425 2491 3425 1978
L 3425 0
L 2847 0
L 2847 2094
Q 2847 2600 2669 2842
Q 2491 3084 2119 3084
Q 1678 3084 1418 2786
Q 1159 2488 1159 1978
L 1159 0
L 581 0
L 581 3500
L 1159 3500
L 1159 2956
Q 1356 3278 1631 3431
Q 1906 3584 2284 3584
Q 2666 3584 2933 3390
Q 3200 3197 3328 2828
z
" transform="scale(0.015625)"/>
     </defs>
     <use xlink:href="#DejaVuSans-50"/>
     <use xlink:href="#DejaVuSans-52" transform="translate(60.302734 0)"/>
     <use xlink:href="#DejaVuSans-20" transform="translate(129.785156 0)"/>
     <use xlink:href="#DejaVuSans-54" transform="translate(161.572266 0)"/>
     <use xlink:href="#DejaVuSans-6f" transform="translate(205.65625 0)"/>
     <use xlink:href="#DejaVuSans-70" transform="translate(266.837891 0)"/>
     <use xlink:href="#DejaVuSans-69" transform="translate(330.314453 0)"/>
     <use xlink:href="#DejaVuSans-63" transform="translate(358.097656 0)"/>
     <use xlink:href="#DejaVuSans-20" transform="translate(413.078125 0)"/>
     <use xlink:href="#DejaVuSans-4d" transform="translate(444.865234 0)"/>
     <use xlink:href="#DejaVuSans-69" transform="translate(531.144531 0)"/>
     <use xlink:href="#DejaVuSans-78" transform="translate(558.927734 0)"/>
     <use xlink:href="#DejaVuSans-20" transform="translate(618.107422 0)"/>
     <use xlink:href="#DejaVuSans-4f" transform="translate(649.894531 0)"/>
     <use xlink:href="#DejaVuSans-76" transform="translate(728.605469 0)"/>
     <use xlink:href="#DejaVuSans-65" transform="translate(787.785156 0)"/>
     <use xlink:href="#DejaVuSans-72" transform="translate(849.308594 0)"/>
     <use xlink:href="#DejaVuSans-20" transform="translate(890.421875 0)"/>
     <use xlink:href="#DejaVuSans-54" transform="translate(922.208984 0)"/>
     <use xlink:href="#DejaVuSans-69" transform="translate(980.167969 0)"/>
     <use xlink:href="#DejaVuSans-6d" transform="translate(1007.951172 0)"/>
     <use xlink:href="#DejaVuSans-65" transform="translate(1105.363281 0)"/>
    </g>
   </g>
   <g id="legend_1">
    <g id="patch_7">
     <path d="M 524.8245 195.619375
L 701.613563 195.619375
Q 703.613563 195.619375 703.613563 193.619375
L 703.613563 33.16
Q 703.613563 31.16 701.613563 31.16
L 524.8245 31.16
Q 522.8245 31.16 522.8245 33.16
L 522.8245 193.619375
Q 522.8245 195.619375 524.8245 195.619375
z
" style="fill: #ffffff; opacity: 0.8; stroke: #cccccc; stroke-linejoin: miter"/>
    </g>
    <g id="patch_8">
     <path d="M 526.8245 42.758437
L 546.8245 42.758437
L 546.8245 35.758437
L 526.8245 35.758437
z
" style="fill: #1f77b4; stroke: #1f77b4; stroke-linejoin: miter"/>
    </g>
    <g id="text_16">
     <!-- Bug fixes / refactoring -->
     <g transform="translate(554.8245 42.758437) scale(0.1 -0.1)">
      <defs>
       <path id="DejaVuSans-42" d="M 1259 2228
L 1259 519
L 2272 519
Q 2781 519 3026 730
Q 3272 941 3272 1375
Q 3272 1813 3026 2020
Q 2781 2228 2272 2228
L 1259 2228
z
M 1259 4147
L 1259 2741
L 2194 2741
Q 2656 2741 2882 2914
Q 3109 3088 3109 3444
Q 3109 3797 2882 3972
Q 2656 4147 2194 4147
L 1259 4147
z
M 628 4666
L 2241 4666
Q 2963 4666 3353 4366
Q 3744 4066 3744 3513
Q 3744 3084 3544 2831
Q 3344 2578 2956 2516
Q 3422 2416 3680 2098
Q 3938 1781 3938 1306
Q 3938 681 3513 340
Q 3088 0 2303 0
L 628 0
L 628 4666
z
" transform="scale(0.015625)"/>
       <path id="DejaVuSans-75" d="M 544 1381
L 544 3500
L 1119 3500
L 1119 1403
Q 1119 906 1312 657
Q 1506 409 1894 409
Q 2359 409 2629 706
Q 2900 1003 2900 1516
L 2900 3500
L 3475 3500
L 3475 0
L 2900 0
L 2900 538
Q 2691 219 2414 64
Q 2138 -91 1772 -91
Q 1169 -91 856 284
Q 544 659 544 1381
z
M 1991 3584
L 1991 3584
z
" transform="scale(0.015625)"/>
       <path id="DejaVuSans-67" d="M 2906 1791
Q 2906 2416 2648 2759
Q 2391 3103 1925 3103
Q 1463 3103 1205 2759
Q 947 2416 947 1791
Q 947 1169 1205 825
Q 1463 481 1925 481
Q 2391 481 2648 825
Q 2906 1169 2906 1791
z
M 3481 434
Q 3481 -459 3084 -895
Q 2688 -1331 1869 -1331
Q 1566 -1331 1297 -1286
Q 1028 -1241 775 -1147
L 775 -588
Q 1028 -725 1275 -790
Q 1522 -856 1778 -856
Q 2344 -856 2625 -561
Q 2906 -266 2906 331
L 2906 616
Q 2728 306 2450 153
Q 2172 0 1784 0
Q 1141 0 747 490
Q 353 981 353 1791
Q 353 2603 747 3093
Q 1141 3584 1784 3584
Q 2172 3584 2450 3431
Q 2728 3278 2906 2969
L 2906 3500
L 3481 3500
L 3481 434
z
" transform="scale(0.015625)"/>
       <path id="DejaVuSans-2f" d="M 1625 4666
L 2156 4666
L 531 -594
L 0 -594
L 1625 4666
z
" transform="scale(0.015625)"/>
       <path id="DejaVuSans-6e" d="M 3513 2113
L 3513 0
L 2938 0
L 2938 2094
Q 2938 2591 2744 2837
Q 2550 3084 2163 3084
Q 1697 3084 1428 2787
Q 1159 2491 1159 1978
L 1159 0
L 581 0
L 581 3500
L 1159 3500
L 1159 2956
Q 1366 3272 1645 3428
Q 1925 3584 2291 3584
Q 2894 3584 3203 3211
Q 3513 2838 3513 2113
z
" transform="scale(0.015625)"/>
      </defs>
      <use xlink:href="#DejaVuSans-42"/>
      <use xlink:href="#DejaVuSans-75" transform="translate(68.603516 0)"/>
      <use xlink:href="#DejaVuSans-67" transform="translate(131.982422 0)"/>
      <use xlink:href="#DejaVuSans-20" transform="translate(195.458984 0)"/>
      <use xlink:href="#DejaVuSans-66" transform="translate(227.246094 0)"/>
      <use xlink:href="#DejaVuSans-69" transform="translate(262.451172 0)"/>
      <use xlink:href="#DejaVuSans-78" transform="translate(290.234375 0)"/>
      <use xlink:href="#DejaVuSans-65" transform="translate(346.289062 0)"/>
      <use xlink:href="#DejaVuSans-73" transform="translate(407.8125 0)"/>
      <use xlink:href="#DejaVuSans-20" transform="translate(459.912109 0)"/>
      <use xlink:href="#DejaVuSans-2f" transform="translate(491.699219 0)"/>
      <use xlink:href="#DejaVuSans-20" transform="translate(525.390625 0)"/>
      <use xlink:href="#DejaVuSans-72" transform="translate(557.177734 0)"/>
      <use xlink:href="#DejaVuSans-65" transform="translate(596.041016 0)"/>
      <use xlink:href="#DejaVuSans-66" transform="translate(657.564453 0)"/>
      <use xlink:href="#DejaVuSans-61" transform="translate(692.769531 0)"/>
      <use xlink:href="#DejaVuSans-63" transform="translate(754.048828 0)"/>
      <use xlink:href="#DejaVuSans-74" transform="translate(809.029297 0)"/>
      <use xlink:href="#DejaVuSans-6f" transform="translate(848.238281 0)"/>
      <use xlink:href="#DejaVuSans-72" transform="translate(909.419922 0)"/>
      <use xlink:href="#DejaVuSans-69" transform="translate(950.533203 0)"/>
      <use xlink:href="#DejaVuSans-6e" transform="translate(978.316406 0)"/>
      <use xlink:href="#DejaVuSans-67" transform="translate(1041.695312 0)"/>
     </g>
    </g>
    <g id="patch_9">
     <path d="M 526.8245 57.436562
L 546.8245 57.436562
L 546.8245 50.436562
L 526.8245 50.436562
z
" style="fill: #aec7e8; stroke: #aec7e8; stroke-linejoin: miter"/>
    </g>
    <g id="text_17">
     <!-- Chem data / phase diagrams -->
     <g transform="translate(554.8245 57.436562) scale(0.1 -0.1)">
      <defs>
       <path id="DejaVuSans-43" d="M 4122 4306
L 4122 3641
Q 3803 3938 3442 4084
Q 3081 4231 2675 4231
Q 1875 4231 1450 3742
Q 1025 3253 1025 2328
Q 1025 1406 1450 917
Q 1875 428 2675 428
Q 3081 428 3442 575
Q 3803 722 4122 1019
L 4122 359
Q 3791 134 3420 21
Q 3050 -91 2638 -91
Q 1578 -91 968 557
Q 359 1206 359 2328
Q 359 3453 968 4101
Q 1578 4750 2638 4750
Q 3056 4750 3426 4639
Q 3797 4528 4122 4306
z
" transform="scale(0.015625)"/>
       <path id="DejaVuSans-64" d="M 2906 2969
L 2906 4863
L 3481 4863
L 3481 0
L 2906 0
L 2906 525
Q 2725 213 2448 61
Q 2172 -91 1784 -91
Q 1150 -91 751 415
Q 353 922 353 1747
Q 353 2572 751 3078
Q 1150 3584 1784 3584
Q 2172 3584 2448 3432
Q 2725 3281 2906 2969
z
M 947 1747
Q 947 1113 1208 752
Q 1469 391 1925 391
Q 2381 391 2643 752
Q 2906 1113 2906 1747
Q 2906 2381 2643 2742
Q 2381 3103 1925 3103
Q 1469 3103 1208 2742
Q 947 2381 947 1747
z
" transform="scale(0.015625)"/>
      </defs>
      <use xlink:href="#DejaVuSans-43"/>
      <use xlink:href="#DejaVuSans-68" transform="translate(69.824219 0)"/>
      <use xlink:href="#DejaVuSans-65" transform="translate(133.203125 0)"/>
      <use xlink:href="#DejaVuSans-6d" transform="translate(194.726562 0)"/>
      <use xlink:href="#DejaVuSans-20" transform="translate(292.138672 0)"/>
      <use xlink:href="#DejaVuSans-64" transform="translate(323.925781 0)"/>
      <use xlink:href="#DejaVuSans-61" transform="translate(387.402344 0)"/>
      <use xlink:href="#DejaVuSans-74" transform="translate(448.681641 0)"/>
      <use xlink:href="#DejaVuSans-61" transform="translate(487.890625 0)"/>
      <use xlink:href="#DejaVuSans-20" transform="translate(549.169922 0)"/>
      <use xlink:href="#DejaVuSans-2f" transform="translate(580.957031 0)"/>
      <use xlink:href="#DejaVuSans-20" transform="translate(614.648438 0)"/>
      <use xlink:href="#DejaVuSans-70" transform="translate(646.435547 0)"/>
      <use xlink:href="#DejaVuSans-68" transform="translate(709.912109 0)"/>
      <use xlink:href="#DejaVuSans-61" transform="translate(773.291016 0)"/>
      <use xlink:href="#DejaVuSans-73" transform="translate(834.570312 0)"/>
      <use xlink:href="#DejaVuSans-65" transform="translate(886.669922 0)"/>
      <use xlink:href="#DejaVuSans-20" transform="translate(948.193359 0)"/>
      <use xlink:href="#DejaVuSans-64" transform="translate(979.980469 0)"/>
      <use xlink:href="#DejaVuSans-69" transform="translate(1043.457031 0)"/>
      <use xlink:href="#DejaVuSans-61" transform="translate(1071.240234 0)"/>
      <use xlink:href="#DejaVuSans-67" transform="translate(1132.519531 0)"/>
      <use xlink:href="#DejaVuSans-72" transform="translate(1195.996094 0)"/>
      <use xlink:href="#DejaVuSans-61" transform="translate(1237.109375 0)"/>
      <use xlink:href="#DejaVuSans-6d" transform="translate(1298.388672 0)"/>
      <use xlink:href="#DejaVuSans-73" transform="translate(1395.800781 0)"/>
     </g>
    </g>
    <g id="patch_10">
     <path d="M 526.8245 72.114687
L 546.8245 72.114687
L 546.8245 65.114687
L 526.8245 65.114687
z
" style="fill: #ff7f0e; stroke: #ff7f0e; stroke-linejoin: miter"/>
    </g>
    <g id="text_18">
     <!-- Code integrations -->
     <g transform="translate(554.8245 72.114687) scale(0.1 -0.1)">
      <use xlink:href="#DejaVuSans-43"/>
      <use xlink:href="#DejaVuSans-6f" transform="translate(69.824219 0)"/>
      <use xlink:href="#DejaVuSans-64" transform="translate(131.005859 0)"/>
      <use xlink:href="#DejaVuSans-65" transform="translate(194.482422 0)"/>
      <use xlink:href="#DejaVuSans-20" transform="translate(256.005859 0)"/>
      <use xlink:href="#DejaVuSans-69" transform="translate(287.792969 0)"/>
      <use xlink:href="#DejaVuSans-6e" transform="translate(315.576172 0)"/>
      <use xlink:href="#DejaVuSans-74" transform="translate(378.955078 0)"/>
      <use xlink:href="#DejaVuSans-65" transform="translate(418.164062 0)"/>
      <use xlink:href="#DejaVuSans-67" transform="translate(479.6875 0)"/>
      <use xlink:href="#DejaVuSans-72" transform="translate(543.164062 0)"/>
      <use xlink:href="#DejaVuSans-61" transform="translate(584.277344 0)"/>
      <use xlink:href="#DejaVuSans-74" transform="translate(645.556641 0)"/>
      <use xlink:href="#DejaVuSans-69" transform="translate(684.765625 0)"/>
      <use xlink:href="#DejaVuSans-6f" transform="translate(712.548828 0)"/>
      <use xlink:href="#DejaVuSans-6e" transform="translate(773.730469 0)"/>
      <use xlink:href="#DejaVuSans-73" transform="translate(837.109375 0)"/>
     </g>
    </g>
    <g id="patch_11">
     <path d="M 526.8245 86.792812
L 546.8245 86.792812
L 546.8245 79.792812
L 526.8245 79.792812
z
" style="fill: #ffbb78; stroke: #ffbb78; stroke-linejoin: miter"/>
    </g>
    <g id="text_19">
     <!-- Deprecations / breaking -->
     <g transform="translate(554.8245 86.792812) scale(0.1 -0.1)">
      <defs>
       <path id="DejaVuSans-44" d="M 1259 4147
L 1259 519
L 2022 519
Q 2988 519 3436 956
Q 3884 1394 3884 2338
Q 3884 3275 3436 3711
Q 2988 4147 2022 4147
L 1259 4147
z
M 628 4666
L 1925 4666
Q 3281 4666 3915 4102
Q 4550 3538 4550 2338
Q 4550 1131 3912 565
Q 3275 0 1925 0
L 628 0
L 628 4666
z
" transform="scale(0.015625)"/>
       <path id="DejaVuSans-62" d="M 3116 1747
Q 3116 2381 2855 2742
Q 2594 3103 2138 3103
Q 1681 3103 1420 2742
Q 1159 2381 1159 1747
Q 1159 1113 1420 752
Q 1681 391 2138 391
Q 2594 391 2855 752
Q 3116 1113 3116 1747
z
M 1159 2969
Q 1341 3281 1617 3432
Q 1894 3584 2278 3584
Q 2916 3584 3314 3078
Q 3713 2572 3713 1747
Q 3713 922 3314 415
Q 2916 -91 2278 -91
Q 1894 -91 1617 61
Q 1341 213 1159 525
L 1159 0
L 581 0
L 581 4863
L 1159 4863
L 1159 2969
z
" transform="scale(0.015625)"/>
       <path id="DejaVuSans-6b" d="M 581 4863
L 1159 4863
L 1159 1991
L 2875 3500
L 3609 3500
L 1753 1863
L 3688 0
L 2938 0
L 1159 1709
L 1159 0
L 581 0
L 581 4863
z
" transform="scale(0.015625)"/>
      </defs>
      <use xlink:href="#DejaVuSans-44"/>
      <use xlink:href="#DejaVuSans-65" transform="translate(77.001953 0)"/>
      <use xlink:href="#DejaVuSans-70" transform="translate(138.525391 0)"/>
      <use xlink:href="#DejaVuSans-72" transform="translate(202.001953 0)"/>
      <use xlink:href="#DejaVuSans-65" transform="translate(240.865234 0)"/>
      <use xlink:href="#DejaVuSans-63" transform="translate(302.388672 0)"/>
      <use xlink:href="#DejaVuSans-61" transform="translate(357.369141 0)"/>
      <use xlink:href="#DejaVuSans-74" transform="translate(418.648438 0)"/>
      <use xlink:href="#DejaVuSans-69" transform="translate(457.857422 0)"/>
      <use xlink:href="#DejaVuSans-6f" transform="translate(485.640625 0)"/>
      <use xlink:href="#DejaVuSans-6e" transform="translate(546.822266 0)"/>
      <use xlink:href="#DejaVuSans-73" transform="translate(610.201172 0)"/>
      <use xlink:href="#DejaVuSans-20" transform="translate(662.300781 0)"/>
      <use xlink:href="#DejaVuSans-2f" transform="translate(694.087891 0)"/>
      <use xlink:href="#DejaVuSans-20" transform="translate(727.779297 0)"/>
      <use xlink:href="#DejaVuSans-62" transform="translate(759.566406 0)"/>
      <use xlink:href="#DejaVuSans-72" transform="translate(823.042969 0)"/>
      <use xlink:href="#DejaVuSans-65" transform="translate(861.90625 0)"/>
      <use xlink:href="#DejaVuSans-61" transform="translate(923.429688 0)"/>
      <use xlink:href="#DejaVuSans-6b" transform="translate(984.708984 0)"/>
      <use xlink:href="#DejaVuSans-69" transform="translate(1042.619141 0)"/>
      <use xlink:href="#DejaVuSans-6e" transform="translate(1070.402344 0)"/>
      <use xlink:href="#DejaVuSans-67" transform="translate(1133.78125 0)"/>
     </g>
    </g>
    <g id="patch_12">
     <path d="M 526.8245 101.470937
L 546.8245 101.470937
L 546.8245 94.470937
L 526.8245 94.470937
z
" style="fill: #2ca02c; stroke: #2ca02c; stroke-linejoin: miter"/>
    </g>
    <g id="text_20">
     <!-- Documentation -->
     <g transform="translate(554.8245 101.470937) scale(0.1 -0.1)">
      <use xlink:href="#DejaVuSans-44"/>
      <use xlink:href="#DejaVuSans-6f" transform="translate(77.001953 0)"/>
      <use xlink:href="#DejaVuSans-63" transform="translate(138.183594 0)"/>
      <use xlink:href="#DejaVuSans-75" transform="translate(193.164062 0)"/>
      <use xlink:href="#DejaVuSans-6d" transform="translate(256.542969 0)"/>
      <use xlink:href="#DejaVuSans-65" transform="translate(353.955078 0)"/>
      <use xlink:href="#DejaVuSans-6e" transform="translate(415.478516 0)"/>
      <use xlink:href="#DejaVuSans-74" transform="translate(478.857422 0)"/>
      <use xlink:href="#DejaVuSans-61" transform="translate(518.066406 0)"/>
      <use xlink:href="#DejaVuSans-74" transform="translate(579.345703 0)"/>
      <use xlink:href="#DejaVuSans-69" transform="translate(618.554688 0)"/>
      <use xlink:href="#DejaVuSans-6f" transform="translate(646.337891 0)"/>
      <use xlink:href="#DejaVuSans-6e" transform="translate(707.519531 0)"/>
     </g>
    </g>
    <g id="patch_13">
     <path d="M 526.8245 116.149062
L 546.8245 116.149062
L 546.8245 109.149062
L 526.8245 109.149062
z
" style="fill: #98df8a; stroke: #98df8a; stroke-linejoin: miter"/>
    </g>
    <g id="text_21">
     <!-- I/O &amp; parsing -->
     <g transform="translate(554.8245 116.149062) scale(0.1 -0.1)">
      <defs>
       <path id="DejaVuSans-49" d="M 628 4666
L 1259 4666
L 1259 0
L 628 0
L 628 4666
z
" transform="scale(0.015625)"/>
       <path id="DejaVuSans-26" d="M 1556 2509
Q 1272 2256 1139 2004
Q 1006 1753 1006 1478
Q 1006 1022 1337 719
Q 1669 416 2169 416
Q 2466 416 2725 514
Q 2984 613 3213 813
L 1556 2509
z
M 1997 2859
L 3584 1234
Q 3769 1513 3872 1830
Q 3975 2147 3994 2503
L 4575 2503
Q 4538 2091 4375 1687
Q 4213 1284 3922 891
L 4794 0
L 4006 0
L 3559 459
Q 3234 181 2878 45
Q 2522 -91 2113 -91
Q 1359 -91 881 339
Q 403 769 403 1441
Q 403 1841 612 2192
Q 822 2544 1241 2853
Q 1091 3050 1012 3245
Q 934 3441 934 3628
Q 934 4134 1281 4442
Q 1628 4750 2203 4750
Q 2463 4750 2720 4694
Q 2978 4638 3244 4525
L 3244 3956
Q 2972 4103 2725 4179
Q 2478 4256 2266 4256
Q 1938 4256 1733 4082
Q 1528 3909 1528 3634
Q 1528 3475 1620 3314
Q 1713 3153 1997 2859
z
" transform="scale(0.015625)"/>
      </defs>
      <use xlink:href="#DejaVuSans-49"/>
      <use xlink:href="#DejaVuSans-2f" transform="translate(29.492188 0)"/>
      <use xlink:href="#DejaVuSans-4f" transform="translate(63.183594 0)"/>
      <use xlink:href="#DejaVuSans-20" transform="translate(141.894531 0)"/>
      <use xlink:href="#DejaVuSans-26" transform="translate(173.681641 0)"/>
      <use xlink:href="#DejaVuSans-20" transform="translate(251.660156 0)"/>
      <use xlink:href="#DejaVuSans-70" transform="translate(283.447266 0)"/>
      <use xlink:href="#DejaVuSans-61" transform="translate(346.923828 0)"/>
      <use xlink:href="#DejaVuSans-72" transform="translate(408.203125 0)"/>
      <use xlink:href="#DejaVuSans-73" transform="translate(449.316406 0)"/>
      <use xlink:href="#DejaVuSans-69" transform="translate(501.416016 0)"/>
      <use xlink:href="#DejaVuSans-6e" transform="translate(529.199219 0)"/>
      <use xlink:href="#DejaVuSans-67" transform="translate(592.578125 0)"/>
     </g>
    </g>
    <g id="patch_14">
     <path d="M 526.8245 130.827187
L 546.8245 130.827187
L 546.8245 123.827187
L 526.8245 123.827187
z
" style="fill: #d62728; stroke: #d62728; stroke-linejoin: miter"/>
    </g>
    <g id="text_22">
     <!-- Other -->
     <g transform="translate(554.8245 130.827187) scale(0.1 -0.1)">
      <use xlink:href="#DejaVuSans-4f"/>
      <use xlink:href="#DejaVuSans-74" transform="translate(78.710938 0)"/>
      <use xlink:href="#DejaVuSans-68" transform="translate(117.919922 0)"/>
      <use xlink:href="#DejaVuSans-65" transform="translate(181.298828 0)"/>
      <use xlink:href="#DejaVuSans-72" transform="translate(242.822266 0)"/>
     </g>
    </g>
    <g id="patch_15">
     <path d="M 526.8245 145.505312
L 546.8245 145.505312
L 546.8245 138.505312
L 526.8245 138.505312
z
" style="fill: #ff9896; stroke: #ff9896; stroke-linejoin: miter"/>
    </g>
    <g id="text_23">
     <!-- Performance -->
     <g transform="translate(554.8245 145.505312) scale(0.1 -0.1)">
      <use xlink:href="#DejaVuSans-50"/>
      <use xlink:href="#DejaVuSans-65" transform="translate(56.677734 0)"/>
      <use xlink:href="#DejaVuSans-72" transform="translate(118.201172 0)"/>
      <use xlink:href="#DejaVuSans-66" transform="translate(159.314453 0)"/>
      <use xlink:href="#DejaVuSans-6f" transform="translate(194.519531 0)"/>
      <use xlink:href="#DejaVuSans-72" transform="translate(255.701172 0)"/>
      <use xlink:href="#DejaVuSans-6d" transform="translate(295.064453 0)"/>
      <use xlink:href="#DejaVuSans-61" transform="translate(392.476562 0)"/>
      <use xlink:href="#DejaVuSans-6e" transform="translate(453.755859 0)"/>
      <use xlink:href="#DejaVuSans-63" transform="translate(517.134766 0)"/>
      <use xlink:href="#DejaVuSans-65" transform="translate(572.115234 0)"/>
     </g>
    </g>
    <g id="patch_16">
     <path d="M 526.8245 160.183437
L 546.8245 160.183437
L 546.8245 153.183437
L 526.8245 153.183437
z
" style="fill: #9467bd; stroke: #9467bd; stroke-linejoin: miter"/>
    </g>
    <g id="text_24">
     <!-- Python &amp; code quality -->
     <g transform="translate(554.8245 160.183437) scale(0.1 -0.1)">
      <defs>
       <path id="DejaVuSans-79" d="M 2059 -325
Q 1816 -950 1584 -1140
Q 1353 -1331 966 -1331
L 506 -1331
L 506 -850
L 844 -850
Q 1081 -850 1212 -737
Q 1344 -625 1503 -206
L 1606 56
L 191 3500
L 800 3500
L 1894 763
L 2988 3500
L 3597 3500
L 2059 -325
z
" transform="scale(0.015625)"/>
       <path id="DejaVuSans-71" d="M 947 1747
Q 947 1113 1208 752
Q 1469 391 1925 391
Q 2381 391 2643 752
Q 2906 1113 2906 1747
Q 2906 2381 2643 2742
Q 2381 3103 1925 3103
Q 1469 3103 1208 2742
Q 947 2381 947 1747
z
M 2906 525
Q 2725 213 2448 61
Q 2172 -91 1784 -91
Q 1150 -91 751 415
Q 353 922 353 1747
Q 353 2572 751 3078
Q 1150 3584 1784 3584
Q 2172 3584 2448 3432
Q 2725 3281 2906 2969
L 2906 3500
L 3481 3500
L 3481 -1331
L 2906 -1331
L 2906 525
z
" transform="scale(0.015625)"/>
       <path id="DejaVuSans-6c" d="M 603 4863
L 1178 4863
L 1178 0
L 603 0
L 603 4863
z
" transform="scale(0.015625)"/>
      </defs>
      <use xlink:href="#DejaVuSans-50"/>
      <use xlink:href="#DejaVuSans-79" transform="translate(60.302734 0)"/>
      <use xlink:href="#DejaVuSans-74" transform="translate(119.482422 0)"/>
      <use xlink:href="#DejaVuSans-68" transform="translate(158.691406 0)"/>
      <use xlink:href="#DejaVuSans-6f" transform="translate(222.070312 0)"/>
      <use xlink:href="#DejaVuSans-6e" transform="translate(283.251953 0)"/>
      <use xlink:href="#DejaVuSans-20" transform="translate(346.630859 0)"/>
      <use xlink:href="#DejaVuSans-26" transform="translate(378.417969 0)"/>
      <use xlink:href="#DejaVuSans-20" transform="translate(456.396484 0)"/>
      <use xlink:href="#DejaVuSans-63" transform="translate(488.183594 0)"/>
      <use xlink:href="#DejaVuSans-6f" transform="translate(543.164062 0)"/>
      <use xlink:href="#DejaVuSans-64" transform="translate(604.345703 0)"/>
      <use xlink:href="#DejaVuSans-65" transform="translate(667.822266 0)"/>
      <use xlink:href="#DejaVuSans-20" transform="translate(729.345703 0)"/>
      <use xlink:href="#DejaVuSans-71" transform="translate(761.132812 0)"/>
      <use xlink:href="#DejaVuSans-75" transform="translate(824.609375 0)"/>
      <use xlink:href="#DejaVuSans-61" transform="translate(887.988281 0)"/>
      <use xlink:href="#DejaVuSans-6c" transform="translate(949.267578 0)"/>
      <use xlink:href="#DejaVuSans-69" transform="translate(977.050781 0)"/>
      <use xlink:href="#DejaVuSans-74" transform="translate(1004.833984 0)"/>
      <use xlink:href="#DejaVuSans-79" transform="translate(1044.042969 0)"/>
     </g>
    </g>
    <g id="patch_17">
     <path d="M 526.8245 174.861562
L 546.8245 174.861562
L 546.8245 167.861562
L 526.8245 167.861562
z
" style="fill: #c5b0d5; stroke: #c5b0d5; stroke-linejoin: miter"/>
    </g>
    <g id="text_25">
     <!-- Structure &amp; analysis -->
     <g transform="translate(554.8245 174.861562) scale(0.1 -0.1)">
      <use xlink:href="#DejaVuSans-53"/>
      <use xlink:href="#DejaVuSans-74" transform="translate(63.476562 0)"/>
      <use xlink:href="#DejaVuSans-72" transform="translate(102.685547 0)"/>
      <use xlink:href="#DejaVuSans-75" transform="translate(143.798828 0)"/>
      <use xlink:href="#DejaVuSans-63" transform="translate(207.177734 0)"/>
      <use xlink:href="#DejaVuSans-74" transform="translate(262.158203 0)"/>
      <use xlink:href="#DejaVuSans-75" transform="translate(301.367188 0)"/>
      <use xlink:href="#DejaVuSans-72" transform="translate(364.746094 0)"/>
      <use xlink:href="#DejaVuSans-65" transform="translate(403.609375 0)"/>
      <use xlink:href="#DejaVuSans-20" transform="translate(465.132812 0)"/>
      <use xlink:href="#DejaVuSans-26" transform="translate(496.919922 0)"/>
      <use xlink:href="#DejaVuSans-20" transform="translate(574.898438 0)"/>
      <use xlink:href="#DejaVuSans-61" transform="translate(606.685547 0)"/>
      <use xlink:href="#DejaVuSans-6e" transform="translate(667.964844 0)"/>
      <use xlink:href="#DejaVuSans-61" transform="translate(731.34375 0)"/>
      <use xlink:href="#DejaVuSans-6c" transform="translate(792.623047 0)"/>
      <use xlink:href="#DejaVuSans-79" transform="translate(820.40625 0)"/>
      <use xlink:href="#DejaVuSans-73" transform="translate(879.585938 0)"/>
      <use xlink:href="#DejaVuSans-69" transform="translate(931.685547 0)"/>
      <use xlink:href="#DejaVuSans-73" transform="translate(959.46875 0)"/>
     </g>
    </g>
    <g id="patch_18">
     <path d="M 526.8245 189.539687
L 546.8245 189.539687
L 546.8245 182.539687
L 526.8245 182.539687
z
" style="fill: #8c564b; stroke: #8c564b; stroke-linejoin: miter"/>
    </g>
    <g id="text_26">
     <!-- Testing / CI -->
     <g transform="translate(554.8245 189.539687) scale(0.1 -0.1)">
      <use xlink:href="#DejaVuSans-54"/>
      <use xlink:href="#DejaVuSans-65" transform="translate(44.083984 0)"/>
      <use xlink:href="#DejaVuSans-73" transform="translate(105.607422 0)"/>
      <use xlink:href="#DejaVuSans-74" transform="translate(157.707031 0)"/>
      <use xlink:href="#DejaVuSans-69" transform="translate(196.916016 0)"/>
      <use xlink:href="#DejaVuSans-6e" transform="translate(224.699219 0)"/>
      <use xlink:href="#DejaVuSans-67" transform="translate(288.078125 0)"/>
      <use xlink:href="#DejaVuSans-20" transform="translate(351.554688 0)"/>
      <use xlink:href="#DejaVuSans-2f" transform="translate(383.341797 0)"/>
      <use xlink:href="#DejaVuSans-20" transform="translate(417.033203 0)"/>
      <use xlink:href="#DejaVuSans-43" transform="translate(448.820312 0)"/>
      <use xlink:href="#DejaVuSans-49" transform="translate(518.644531 0)"/>
     </g>
    </g>
   </g>
  </g>
 </g>
 <defs>
  <clipPath id="p395c6f51bf">
   <rect x="47.855" y="26.16" width="447.59" height="363.88"/>
  </clipPath>
 </defs>
</svg>
