<svg class="main-svg" xmlns="http://www.w3.org/2000/svg" xmlns:xlink="http://www.w3.org/1999/xlink" width="700" height="500" style="" viewBox="0 0 700 500"><rect x="0" y="0" width="700" height="500" style="fill: rgb(255, 255, 255); fill-opacity: 1;"/><defs id="defs-0e95dc"><g class="clips"/><g class="gradients"/><g class="patterns"/></defs><g class="bglayer"/><g class="layer-below"><g class="imagelayer"/><g class="shapelayer"/></g><g class="cartesianlayer"/><g class="polarlayer"/><g class="smithlayer"/><g class="ternarylayer"/><g class="geolayer"/><g class="funnelarealayer"/><g class="pielayer"/><g class="iciclelayer"/><g class="treemaplayer"/><g class="sunburstlayer"/><g class="glimages"/><g class="sankey" transform="translate(80,100)matrix(1 0 0 1 0 0)" style="box-sizing: content-box; position: absolute; left: 0px; shape-rendering: geometricprecision; pointer-events: none;"><g class="sankey-links" style="fill: none;"><path class="sankey-link" d="M20,318.87955182072824C270,318.87955182072824 270,295.72362278244645 520,295.72362278244645L520,296.6199813258638C270,296.6199813258638 270,319.7759103641456 20,319.7759103641456Z" style="stroke: rgb(153, 184, 152); stroke-opacity: 0.5; fill: rgb(153, 184, 152); fill-opacity: 0.5; stroke-width: 1; opacity: 1;"/><path class="sankey-link" d="M20,219.8692810457515C270,219.8692810457515 270,293.9309056956117 520,293.9309056956117L520,295.72362278244645C270,295.72362278244645 270,221.66199813258623 20,221.66199813258623Z" style="stroke: rgb(68, 68, 68); stroke-opacity: 1; fill: rgb(108, 91, 123); fill-opacity: 0.5; stroke-width: 0; opacity: 1;"/><path class="sankey-link" d="M20,148.27264239028952C270,148.27264239028952 270,293.5947712418302 520,293.5947712418302L520,293.93090569561167C270,293.93090569561167 270,148.60877684407106 20,148.60877684407106Z" style="stroke: rgb(59, 156, 156); stroke-opacity: 0.5; fill: rgb(59, 156, 156); fill-opacity: 0.5; stroke-width: 1; opacity: 1;"/><path class="sankey-link" d="M20,167.282913165266C270,167.282913165266 270,77.34827264239047 520,77.34827264239047L520,78.46872082166217C270,78.46872082166217 270,168.4033613445377 20,168.4033613445377Z" style="stroke: rgb(68, 68, 68); stroke-opacity: 1; fill: rgb(246, 114, 128); fill-opacity: 0.5; stroke-width: 0; opacity: 1;"/><path class="sankey-link" d="M20,240.56022408963574C270,240.56022408963574 270,79.02894491129803 520,79.02894491129803L520,79.70121381886105C270,79.70121381886105 270,241.23249299719876 20,241.23249299719876Z" style="stroke: rgb(255, 139, 148); stroke-opacity: 0.5; fill: rgb(255, 139, 148); fill-opacity: 0.5; stroke-width: 1; opacity: 1;"/><path class="sankey-link" d="M20,116.33986928104584C270,116.33986928104584 270,69.84126984127002 520,69.84126984127002L520,77.34827264239047C270,77.34827264239047 270,123.84687208216629 20,123.84687208216629Z" style="stroke: rgb(68, 68, 68); stroke-opacity: 1; fill: rgb(59, 156, 156); fill-opacity: 0.5; stroke-width: 0; opacity: 1;"/><path class="sankey-link" d="M20,74.02427637721763C270,74.02427637721763 270,67.93650793650812 520,67.93650793650812L520,69.84126984127002C270,69.84126984127002 270,75.92903828197953 20,75.92903828197953Z" style="stroke: rgb(68, 68, 68); stroke-opacity: 1; fill: rgb(255, 211, 182); fill-opacity: 0.5; stroke-width: 0; opacity: 1;"/><path class="sankey-link" d="M20,281.3818860877684C270,281.3818860877684 270,79.70121381886105 520,79.70121381886105L520,81.3818860877686C270,81.3818860877686 270,283.06255835667594 20,283.06255835667594Z" style="stroke: rgb(68, 68, 68); stroke-opacity: 1; fill: rgb(53, 92, 125); fill-opacity: 0.5; stroke-width: 0; opacity: 1;"/><path class="sankey-link" d="M20,211.35387488328652C270,211.35387488328652 270,78.46872082166217 520,78.46872082166217L520,79.02894491129803C270,79.02894491129803 270,211.9140989729224 20,211.9140989729224Z" style="stroke: rgb(108, 91, 123); stroke-opacity: 0.5; fill: rgb(108, 91, 123); fill-opacity: 0.5; stroke-width: 1; opacity: 1;"/><path class="sankey-link" d="M20,132.9225023342671C270,132.9225023342671 270,165.7142857142859 520,165.7142857142859L520,166.27450980392177C270,166.27450980392177 270,133.482726423903 20,133.482726423903Z" style="stroke: rgb(59, 156, 156); stroke-opacity: 0.5; fill: rgb(59, 156, 156); fill-opacity: 0.5; stroke-width: 1; opacity: 1;"/><path class="sankey-link" d="M20,261.25116713351997C270,261.25116713351997 270,166.38655462184892 520,166.38655462184892L520,166.49859943977611C270,166.49859943977611 270,261.36321195144717 20,261.36321195144717Z" style="stroke: rgb(232, 74, 95); stroke-opacity: 0.5; fill: rgb(232, 74, 95); fill-opacity: 0.5; stroke-width: 1; opacity: 1;"/><path class="sankey-link" d="M20,187.30158730158718C270,187.30158730158718 270,166.27450980392175 520,166.27450980392175L520,166.38655462184894C270,166.38655462184894 270,187.41363211951438 20,187.41363211951438Z" style="stroke: rgb(255, 170, 165); stroke-opacity: 0.5; fill: rgb(255, 170, 165); fill-opacity: 0.5; stroke-width: 1; opacity: 1;"/><path class="sankey-link" d="M20,283.95891690009336C270,283.95891690009336 270,166.4985994397761 520,166.4985994397761L520,166.61064425770329C270,166.61064425770329 270,284.07096171802056 20,284.07096171802056Z" style="stroke: rgb(53, 92, 125); stroke-opacity: 0.5; fill: rgb(53, 92, 125); fill-opacity: 0.5; stroke-width: 1; opacity: 1;"/><path class="sankey-link" d="M20,123.84687208216629C270,123.84687208216629 270,99.60784313725503 520,99.60784313725503L520,104.64985994397773C270,104.64985994397773 270,128.88888888888897 20,128.88888888888897Z" style="stroke: rgb(68, 68, 68); stroke-opacity: 1; fill: rgb(59, 156, 156); fill-opacity: 0.5; stroke-width: 0; opacity: 1;"/><path class="sankey-link" d="M20,283.062558356676C270,283.062558356676 270,105.43417366946791 520,105.43417366946791L520,106.10644257703093C270,106.10644257703093 270,283.7348272642391 20,283.7348272642391Z" style="stroke: rgb(53, 92, 125); stroke-opacity: 0.5; fill: rgb(53, 92, 125); fill-opacity: 0.5; stroke-width: 1; opacity: 1;"/><path class="sankey-link" d="M20,260.8029878618113C270,260.8029878618113 270,104.98599439775923 520,104.98599439775923L520,105.43417366946791C270,105.43417366946791 270,261.25116713351997 20,261.25116713351997Z" style="stroke: rgb(232, 74, 95); stroke-opacity: 0.5; fill: rgb(232, 74, 95); fill-opacity: 0.5; stroke-width: 1; opacity: 1;"/><path class="sankey-link" d="M20,75.92903828197953C270,75.92903828197953 270,99.15966386554635 520,99.15966386554635L520,99.60784313725503C270,99.60784313725503 270,76.37721755368821 20,76.37721755368821Z" style="stroke: rgb(255, 211, 182); stroke-opacity: 0.5; fill: rgb(255, 211, 182); fill-opacity: 0.5; stroke-width: 1; opacity: 1;"/><path class="sankey-link" d="M20,186.96545284780566C270,186.96545284780566 270,104.64985994397772 520,104.64985994397772L520,104.98599439775923C270,104.98599439775923 270,187.3015873015872 20,187.3015873015872Z" style="stroke: rgb(255, 170, 165); stroke-opacity: 0.5; fill: rgb(255, 170, 165); fill-opacity: 0.5; stroke-width: 1; opacity: 1;"/><path class="sankey-link" d="M20,147.6003734827265C270,147.6003734827265 270,273.80018674136335 520,273.80018674136335L520,274.4724556489264C270,274.4724556489264 270,148.27264239028952 20,148.27264239028952Z" style="stroke: rgb(59, 156, 156); stroke-opacity: 0.5; fill: rgb(59, 156, 156); fill-opacity: 0.5; stroke-width: 1; opacity: 1;"/><path class="sankey-link" d="M20,289.67320261437914C270,289.67320261437914 270,274.69654528478077 520,274.69654528478077L520,275.81699346405253C270,275.81699346405253 270,290.7936507936509 20,290.7936507936509Z" style="stroke: rgb(68, 68, 68); stroke-opacity: 1; fill: rgb(53, 92, 125); fill-opacity: 0.5; stroke-width: 0; opacity: 1;"/><path class="sankey-link" d="M20,187.41363211951435C270,187.41363211951435 270,274.47245564892637 520,274.47245564892637L520,274.58450046685357C270,274.58450046685357 270,187.52567693744155 20,187.52567693744155Z" style="stroke: rgb(255, 170, 165); stroke-opacity: 0.5; fill: rgb(255, 170, 165); fill-opacity: 0.5; stroke-width: 1; opacity: 1;"/><path class="sankey-link" d="M20,219.75723622782434C270,219.75723622782434 270,274.58450046685357 520,274.58450046685357L520,274.69654528478077C270,274.69654528478077 270,219.86928104575153 20,219.86928104575153Z" style="stroke: rgb(108, 91, 123); stroke-opacity: 0.5; fill: rgb(108, 91, 123); fill-opacity: 0.5; stroke-width: 1; opacity: 1;"/><path class="sankey-link" d="M20,207.32026143790836C270,207.32026143790836 270,45.228758169934785 520,45.228758169934785L520,49.26237161531294C270,49.26237161531294 270,211.3538748832865 20,211.3538748832865Z" style="stroke: rgb(68, 68, 68); stroke-opacity: 1; fill: rgb(108, 91, 123); fill-opacity: 0.5; stroke-width: 0; opacity: 1;"/><path class="sankey-link" d="M20,109.50513538748841C270,109.50513538748841 270,38.39402427637736 520,38.39402427637736L520,45.228758169934785C270,45.228758169934785 270,116.33986928104584 20,116.33986928104584Z" style="stroke: rgb(68, 68, 68); stroke-opacity: 1; fill: rgb(59, 156, 156); fill-opacity: 0.5; stroke-width: 0; opacity: 1;"/><path class="sankey-link" d="M20,71.4472455648927C270,71.4472455648927 270,35.81699346405243 520,35.81699346405243L520,38.394024276377365C270,38.394024276377365 270,74.02427637721762 20,74.02427637721762Z" style="stroke: rgb(68, 68, 68); stroke-opacity: 1; fill: rgb(255, 211, 182); fill-opacity: 0.5; stroke-width: 0; opacity: 1;"/><path class="sankey-link" d="M20,240.44817927170857C270,240.44817927170857 270,49.26237161531294 520,49.26237161531294L520,49.37441643324011C270,49.37441643324011 270,240.56022408963577 20,240.56022408963577Z" style="stroke: rgb(255, 139, 148); stroke-opacity: 0.5; fill: rgb(255, 139, 148); fill-opacity: 0.5; stroke-width: 1; opacity: 1;"/><path class="sankey-link" d="M20,280.5975723622782C270,280.5975723622782 270,49.37441643324011 520,49.37441643324011L520,50.1587301587303C270,50.1587301587303 270,281.38188608776835 20,281.38188608776835Z" style="stroke: rgb(53, 92, 125); stroke-opacity: 0.5; fill: rgb(53, 92, 125); fill-opacity: 0.5; stroke-width: 1; opacity: 1;"/><path class="sankey-link" d="M20,94.93930905695619C270,94.93930905695619 270,0.3361344537816402 520,0.3361344537816402L520,14.901960784313854C270,14.901960784313854 270,109.50513538748841 20,109.50513538748841Z" style="stroke: rgb(68, 68, 68); stroke-opacity: 1; fill: rgb(59, 156, 156); fill-opacity: 0.5; stroke-width: 0; opacity: 1;"/><path class="sankey-link" d="M20,205.3034547152193C270,205.3034547152193 270,15.014005602241028 520,15.014005602241028L520,17.030812324930103C270,17.030812324930103 270,207.32026143790836 20,207.32026143790836Z" style="stroke: rgb(68, 68, 68); stroke-opacity: 1; fill: rgb(108, 91, 123); fill-opacity: 0.5; stroke-width: 0; opacity: 1;"/><path class="sankey-link" d="M20,260.57889822595695C270,260.57889822595695 270,17.254901960784444 520,17.254901960784444L520,17.478991596638785C270,17.478991596638785 270,260.80298786181135 20,260.80298786181135Z" style="stroke: rgb(232, 74, 95); stroke-opacity: 0.5; fill: rgb(232, 74, 95); fill-opacity: 0.5; stroke-width: 1; opacity: 1;"/><path class="sankey-link" d="M20,280.0373482726423C270,280.0373482726423 270,17.478991596638785 520,17.478991596638785L520,18.039215686274638C270,18.039215686274638 270,280.5975723622782 20,280.5975723622782Z" style="stroke: rgb(53, 92, 125); stroke-opacity: 0.5; fill: rgb(53, 92, 125); fill-opacity: 0.5; stroke-width: 1; opacity: 1;"/><path class="sankey-link" d="M20,240.22408963585423C270,240.22408963585423 270,17.030812324930103 520,17.030812324930103L520,17.254901960784444C270,17.254901960784444 270,240.44817927170857 20,240.44817927170857Z" style="stroke: rgb(255, 139, 148); stroke-opacity: 0.5; fill: rgb(255, 139, 148); fill-opacity: 0.5; stroke-width: 1; opacity: 1;"/><path class="sankey-link" d="M20,71.11111111111119C270,71.11111111111119 270,1.2789769243681803e-13 520,1.2789769243681803e-13L520,0.33613445378164053C270,0.33613445378164053 270,71.4472455648927 20,71.4472455648927Z" style="stroke: rgb(255, 211, 182); stroke-opacity: 0.5; fill: rgb(255, 211, 182); fill-opacity: 0.5; stroke-width: 1; opacity: 1;"/><path class="sankey-link" d="M20,186.8534080298785C270,186.8534080298785 270,14.901960784313856 520,14.901960784313856L520,15.014005602241026C270,15.014005602241026 270,186.9654528478057 20,186.9654528478057Z" style="stroke: rgb(255, 170, 165); stroke-opacity: 0.5; fill: rgb(255, 170, 165); fill-opacity: 0.5; stroke-width: 1; opacity: 1;"/><path class="sankey-link" d="M20,128.88888888888897C270,128.88888888888897 270,124.10830999066314 520,124.10830999066314L520,126.34920634920655C270,126.34920634920655 270,131.12978524743238 20,131.12978524743238Z" style="stroke: rgb(68, 68, 68); stroke-opacity: 1; fill: rgb(59, 156, 156); fill-opacity: 0.5; stroke-width: 0; opacity: 1;"/><path class="sankey-link" d="M20,211.91409897292237C270,211.91409897292237 270,126.34920634920657 520,126.34920634920657L520,127.3576097105511C270,127.3576097105511 270,212.92250233426694 20,212.92250233426694Z" style="stroke: rgb(68, 68, 68); stroke-opacity: 1; fill: rgb(108, 91, 123); fill-opacity: 0.5; stroke-width: 0; opacity: 1;"/><path class="sankey-link" d="M20,76.37721755368821C270,76.37721755368821 270,123.8842203548088 520,123.8842203548088L520,124.10830999066314C270,124.10830999066314 270,76.60130718954255 20,76.60130718954255Z" style="stroke: rgb(255, 211, 182); stroke-opacity: 0.5; fill: rgb(255, 211, 182); fill-opacity: 0.5; stroke-width: 1; opacity: 1;"/><path class="sankey-link" d="M20,290.79365079365084C270,290.79365079365084 270,316.30252100840346 520,316.30252100840346L520,319.7759103641457C270,319.7759103641457 270,294.2670401493931 20,294.2670401493931Z" style="stroke: rgb(68, 68, 68); stroke-opacity: 1; fill: rgb(53, 92, 125); fill-opacity: 0.5; stroke-width: 0; opacity: 1;"/><path class="sankey-link" d="M20,148.60877684407103C270,148.60877684407103 270,314.6218487394959 520,314.6218487394959L520,315.51820728291324C270,315.51820728291324 270,149.5051353874884 20,149.5051353874884Z" style="stroke: rgb(59, 156, 156); stroke-opacity: 0.5; fill: rgb(59, 156, 156); fill-opacity: 0.5; stroke-width: 1; opacity: 1;"/><path class="sankey-link" d="M20,319.7759103641456C270,319.7759103641456 270,319.7759103641458 520,319.7759103641458L520,320.00000000000017C270,320.00000000000017 270,320 20,320Z" style="stroke: rgb(153, 184, 152); stroke-opacity: 0.5; fill: rgb(153, 184, 152); fill-opacity: 0.5; stroke-width: 1; opacity: 1;"/><path class="sankey-link" d="M20,221.66199813258623C270,221.66199813258623 270,315.51820728291324 520,315.51820728291324L520,316.3025210084034C270,316.3025210084034 270,222.44631185807646 20,222.44631185807646Z" style="stroke: rgb(108, 91, 123); stroke-opacity: 0.5; fill: rgb(108, 91, 123); fill-opacity: 0.5; stroke-width: 1; opacity: 1;"/><path class="sankey-link" d="M20,76.93744164332406C270,76.93744164332406 270,314.39775910364153 520,314.39775910364153L520,314.62184873949593C270,314.62184873949593 270,77.1615312791784 20,77.1615312791784Z" style="stroke: rgb(255, 211, 182); stroke-opacity: 0.5; fill: rgb(255, 211, 182); fill-opacity: 0.5; stroke-width: 1; opacity: 1;"/><path class="sankey-link" d="M20,135.83566760037354C270,135.83566760037354 270,206.19981325863696 520,206.19981325863696L520,211.01774042950532C270,211.01774042950532 270,140.6535947712419 20,140.6535947712419Z" style="stroke: rgb(68, 68, 68); stroke-opacity: 1; fill: rgb(59, 156, 156); fill-opacity: 0.5; stroke-width: 0; opacity: 1;"/><path class="sankey-link" d="M20,312.0448179271708C270,312.0448179271708 270,220.76563958916918 520,220.76563958916918L520,221.77404295051375C270,221.77404295051375 270,313.0532212885154 20,313.0532212885154Z" style="stroke: rgb(68, 68, 68); stroke-opacity: 1; fill: rgb(153, 184, 152); fill-opacity: 0.5; stroke-width: 0; opacity: 1;"/><path class="sankey-link" d="M20,214.0429505135386C270,214.0429505135386 270,211.69000933706835 520,211.69000933706835L520,216.8440709617182C270,216.8440709617182 270,219.19701213818846 20,219.19701213818846Z" style="stroke: rgb(68, 68, 68); stroke-opacity: 1; fill: rgb(108, 91, 123); fill-opacity: 0.5; stroke-width: 0; opacity: 1;"/><path class="sankey-link" d="M20,261.36321195144717C270,261.36321195144717 270,218.0765639589171 520,218.0765639589171L520,218.8608776844073C270,218.8608776844073 270,262.14752567693733 20,262.14752567693733Z" style="stroke: rgb(232, 74, 95); stroke-opacity: 0.5; fill: rgb(232, 74, 95); fill-opacity: 0.5; stroke-width: 1; opacity: 1;"/><path class="sankey-link" d="M20,285.0793650793651C270,285.0793650793651 270,218.86087768440728 520,218.86087768440728L520,220.7656395891692C270,220.7656395891692 270,286.98412698412704 20,286.98412698412704Z" style="stroke: rgb(68, 68, 68); stroke-opacity: 1; fill: rgb(53, 92, 125); fill-opacity: 0.5; stroke-width: 0; opacity: 1;"/><path class="sankey-link" d="M20,241.23249299719876C270,241.23249299719876 270,216.84407096171822 520,216.84407096171822L520,218.07656395891712C270,218.07656395891712 270,242.46498599439767 20,242.46498599439767Z" style="stroke: rgb(68, 68, 68); stroke-opacity: 1; fill: rgb(255, 139, 148); fill-opacity: 0.5; stroke-width: 0; opacity: 1;"/><path class="sankey-link" d="M20,168.4033613445377C270,168.4033613445377 270,211.01774042950532 520,211.01774042950532L520,211.69000933706835C270,211.69000933706835 270,169.07563025210072 20,169.07563025210072Z" style="stroke: rgb(246, 114, 128); stroke-opacity: 0.5; fill: rgb(246, 114, 128); fill-opacity: 0.5; stroke-width: 1; opacity: 1;"/><path class="sankey-link" d="M20,76.8253968253969C270,76.8253968253969 270,206.0877684407098 520,206.0877684407098L520,206.199813258637C270,206.199813258637 270,76.93744164332406 20,76.93744164332406Z" style="stroke: rgb(255, 211, 182); stroke-opacity: 0.5; fill: rgb(255, 211, 182); fill-opacity: 0.5; stroke-width: 1; opacity: 1;"/><path class="sankey-link" d="M20,219.19701213818848C270,219.19701213818848 270,246.4985994397761 520,246.4985994397761L520,247.05882352941197C270,247.05882352941197 270,219.75723622782436 20,219.75723622782436Z" style="stroke: rgb(108, 91, 123); stroke-opacity: 0.5; fill: rgb(108, 91, 123); fill-opacity: 0.5; stroke-width: 1; opacity: 1;"/><path class="sankey-link" d="M20,140.6535947712419C270,140.6535947712419 270,239.5518207282915 520,239.5518207282915L520,246.49859943977606C270,246.49859943977606 270,147.60037348272647 20,147.60037348272647Z" style="stroke: rgb(68, 68, 68); stroke-opacity: 1; fill: rgb(59, 156, 156); fill-opacity: 0.5; stroke-width: 0; opacity: 1;"/><path class="sankey-link" d="M20,286.98412698412704C270,286.98412698412704 270,247.50700280112062 520,247.50700280112062L520,250.1960784313727C270,250.1960784313727 270,289.67320261437914 20,289.67320261437914Z" style="stroke: rgb(68, 68, 68); stroke-opacity: 1; fill: rgb(53, 92, 125); fill-opacity: 0.5; stroke-width: 0; opacity: 1;"/><path class="sankey-link" d="M20,313.0532212885154C270,313.0532212885154 270,250.1960784313727 520,250.1960784313727L520,256.0224089635856C270,256.0224089635856 270,318.87955182072824 20,318.87955182072824Z" style="stroke: rgb(68, 68, 68); stroke-opacity: 1; fill: rgb(153, 184, 152); fill-opacity: 0.5; stroke-width: 0; opacity: 1;"/><path class="sankey-link" d="M20,242.46498599439764C270,242.46498599439764 270,247.05882352941194 520,247.05882352941194L520,247.39495798319348C270,247.39495798319348 270,242.80112044817918 20,242.80112044817918Z" style="stroke: rgb(255, 139, 148); stroke-opacity: 0.5; fill: rgb(255, 139, 148); fill-opacity: 0.5; stroke-width: 1; opacity: 1;"/><path class="sankey-link" d="M20,262.1475256769374C270,262.1475256769374 270,247.39495798319345 520,247.39495798319345L520,247.50700280112065C270,247.50700280112065 270,262.2595704948646 20,262.2595704948646Z" style="stroke: rgb(232, 74, 95); stroke-opacity: 0.5; fill: rgb(232, 74, 95); fill-opacity: 0.5; stroke-width: 1; opacity: 1;"/><path class="sankey-link" d="M20,131.12978524743238C270,131.12978524743238 270,145.13538748832883 520,145.13538748832883L520,146.92810457516356C270,146.92810457516356 270,132.9225023342671 20,132.9225023342671Z" style="stroke: rgb(68, 68, 68); stroke-opacity: 1; fill: rgb(59, 156, 156); fill-opacity: 0.5; stroke-width: 0; opacity: 1;"/><path class="sankey-link" d="M20,212.9225023342669C270,212.9225023342669 270,146.92810457516356 520,146.92810457516356L520,147.71241830065378C270,147.71241830065378 270,213.70681605975713 20,213.70681605975713Z" style="stroke: rgb(108, 91, 123); stroke-opacity: 0.5; fill: rgb(108, 91, 123); fill-opacity: 0.5; stroke-width: 1; opacity: 1;"/><path class="sankey-link" d="M20,283.734827264239C270,283.734827264239 270,147.71241830065375 520,147.71241830065375L520,147.9365079365081C270,147.9365079365081 270,283.9589169000934 20,283.9589169000934Z" style="stroke: rgb(53, 92, 125); stroke-opacity: 0.5; fill: rgb(53, 92, 125); fill-opacity: 0.5; stroke-width: 1; opacity: 1;"/><path class="sankey-link" d="M20,133.48272642390296C270,133.48272642390296 270,184.61251167133537 520,184.61251167133537L520,186.96545284780598C270,186.96545284780598 270,135.83566760037357 20,135.83566760037357Z" style="stroke: rgb(68, 68, 68); stroke-opacity: 1; fill: rgb(59, 156, 156); fill-opacity: 0.5; stroke-width: 0; opacity: 1;"/><path class="sankey-link" d="M20,284.07096171802056C270,284.07096171802056 270,187.30158730158746 520,187.30158730158746L520,188.30999066293202C270,188.30999066293202 270,285.0793650793651 20,285.0793650793651Z" style="stroke: rgb(68, 68, 68); stroke-opacity: 1; fill: rgb(53, 92, 125); fill-opacity: 0.5; stroke-width: 0; opacity: 1;"/><path class="sankey-link" d="M20,213.7068160597571C270,213.7068160597571 270,186.96545284780595 520,186.96545284780595L520,187.3015873015875C270,187.3015873015875 270,214.04295051353864 20,214.04295051353864Z" style="stroke: rgb(108, 91, 123); stroke-opacity: 0.5; fill: rgb(108, 91, 123); fill-opacity: 0.5; stroke-width: 1; opacity: 1;"/><path class="sankey-link" d="M20,76.60130718954255C270,76.60130718954255 270,184.38842203548103 520,184.38842203548103L520,184.61251167133537C270,184.61251167133537 270,76.8253968253969 20,76.8253968253969Z" style="stroke: rgb(255, 211, 182); stroke-opacity: 0.5; fill: rgb(255, 211, 182); fill-opacity: 0.5; stroke-width: 1; opacity: 1;"/></g><g class="sankey-node-set" style="cursor: default;"><g class="sankey-node" transform="translate(0.000,94.939)" style="opacity: 1;"><rect class="node-rect" width="20" height="54.56582633053203" style="stroke-width: 0.5; stroke: rgb(0, 0, 0); stroke-opacity: 0.1; fill: rgb(59, 156, 156); fill-opacity: 1;"/><text class="node-label" data-notex="1" x="0" y="0" text-anchor="start" transform="translate(23.25,32.88291316526602)" style="cursor: default; font-family: 'Open Sans', verdana, arial, sans-serif; font-size: 16px; fill: rgb(42, 63, 95); fill-opacity: 1; text-shadow: rgb(255, 255, 255) 1px 1px 1px, rgb(255, 255, 255) -1px -1px 1px, rgb(255, 255, 255) 1px -1px 1px, rgb(255, 255, 255) -1px 1px 1px; white-space: pre;">pymatgen.core</text></g><g class="sankey-node" transform="translate(0.000,205.303)" style="opacity: 1;"><rect class="node-rect" width="20" height="17.142857142857167" style="stroke-width: 0.5; stroke: rgb(0, 0, 0); stroke-opacity: 0.1; fill: rgb(108, 91, 123); fill-opacity: 1;"/><text class="node-label" data-notex="1" x="0" y="0" text-anchor="start" transform="translate(23.25,14.171428571428583)" style="cursor: default; font-family: 'Open Sans', verdana, arial, sans-serif; font-size: 16px; fill: rgb(42, 63, 95); fill-opacity: 1; text-shadow: rgb(255, 255, 255) 1px 1px 1px, rgb(255, 255, 255) -1px -1px 1px, rgb(255, 255, 255) 1px -1px 1px, rgb(255, 255, 255) -1px 1px 1px; white-space: pre;">pymatgen.analysis</text></g><g class="sankey-node" transform="translate(0.000,280.037)" style="opacity: 1;"><rect class="node-rect" width="20" height="14.229691876750735" style="stroke-width: 0.5; stroke: rgb(0, 0, 0); stroke-opacity: 0.1; fill: rgb(53, 92, 125); fill-opacity: 1;"/><text class="node-label" data-notex="1" x="0" y="0" text-anchor="start" transform="translate(23.25,12.714845938375367)" style="cursor: default; font-family: 'Open Sans', verdana, arial, sans-serif; font-size: 16px; fill: rgb(42, 63, 95); fill-opacity: 1; text-shadow: rgb(255, 255, 255) 1px 1px 1px, rgb(255, 255, 255) -1px -1px 1px, rgb(255, 255, 255) 1px -1px 1px, rgb(255, 255, 255) -1px 1px 1px; white-space: pre;">pymatgen.io</text></g><g class="sankey-node" transform="translate(0.000,312.045)" style="opacity: 1;"><rect class="node-rect" width="20" height="7.955182072829189" style="stroke-width: 0.5; stroke: rgb(0, 0, 0); stroke-opacity: 0.1; fill: rgb(153, 184, 152); fill-opacity: 1;"/><text class="node-label" data-notex="1" x="0" y="0" text-anchor="start" transform="translate(23.25,9.577591036414594)" style="cursor: default; font-family: 'Open Sans', verdana, arial, sans-serif; font-size: 16px; fill: rgb(42, 63, 95); fill-opacity: 1; text-shadow: rgb(255, 255, 255) 1px 1px 1px, rgb(255, 255, 255) -1px -1px 1px, rgb(255, 255, 255) 1px -1px 1px, rgb(255, 255, 255) -1px 1px 1px; white-space: pre;">pymatgen.entries</text></g><g class="sankey-node" transform="translate(0.000,71.111)" style="opacity: 1;"><rect class="node-rect" width="20" height="6.050420168067234" style="stroke-width: 0.5; stroke: rgb(0, 0, 0); stroke-opacity: 0.1; fill: rgb(255, 211, 182); fill-opacity: 1;"/><text class="node-label" data-notex="1" x="0" y="0" text-anchor="start" transform="translate(23.25,8.625210084033617)" style="cursor: default; font-family: 'Open Sans', verdana, arial, sans-serif; font-size: 16px; fill: rgb(42, 63, 95); fill-opacity: 1; text-shadow: rgb(255, 255, 255) 1px 1px 1px, rgb(255, 255, 255) -1px -1px 1px, rgb(255, 255, 255) 1px -1px 1px, rgb(255, 255, 255) -1px 1px 1px; white-space: pre;">pymatgen.symmetry</text></g><g class="sankey-node" transform="translate(0.000,260.579)" style="opacity: 1;"><rect class="node-rect" width="20" height="1.6806722689075855" style="stroke-width: 0.5; stroke: rgb(0, 0, 0); stroke-opacity: 0.1; fill: rgb(232, 74, 95); fill-opacity: 1;"/><text class="node-label" data-notex="1" x="0" y="0" text-anchor="start" transform="translate(23.25,6.440336134453792)" style="cursor: default; font-family: 'Open Sans', verdana, arial, sans-serif; font-size: 16px; fill: rgb(42, 63, 95); fill-opacity: 1; text-shadow: rgb(255, 255, 255) 1px 1px 1px, rgb(255, 255, 255) -1px -1px 1px, rgb(255, 255, 255) 1px -1px 1px, rgb(255, 255, 255) -1px 1px 1px; white-space: pre;">pymatgen.ext</text></g><g class="sankey-node" transform="translate(0.000,167.283)" style="opacity: 1;"><rect class="node-rect" width="20" height="1.7927170868347275" style="stroke-width: 0.5; stroke: rgb(0, 0, 0); stroke-opacity: 0.1; fill: rgb(246, 114, 128); fill-opacity: 1;"/><text class="node-label" data-notex="1" x="0" y="0" text-anchor="start" transform="translate(23.25,6.496358543417363)" style="cursor: default; font-family: 'Open Sans', verdana, arial, sans-serif; font-size: 16px; fill: rgb(42, 63, 95); fill-opacity: 1; text-shadow: rgb(255, 255, 255) 1px 1px 1px, rgb(255, 255, 255) -1px -1px 1px, rgb(255, 255, 255) 1px -1px 1px, rgb(255, 255, 255) -1px 1px 1px; white-space: pre;">pymatgen.electronic_structure</text></g><g class="sankey-node" transform="translate(0.000,186.853)" style="opacity: 1;"><rect class="node-rect" width="20" height="0.6722689075630228" style="stroke-width: 0.5; stroke: rgb(0, 0, 0); stroke-opacity: 0.1; fill: rgb(255, 170, 165); fill-opacity: 1;"/><text class="node-label" data-notex="1" x="0" y="0" text-anchor="start" transform="translate(23.25,5.936134453781511)" style="cursor: default; font-family: 'Open Sans', verdana, arial, sans-serif; font-size: 16px; fill: rgb(42, 63, 95); fill-opacity: 1; text-shadow: rgb(255, 255, 255) 1px 1px 1px, rgb(255, 255, 255) -1px -1px 1px, rgb(255, 255, 255) 1px -1px 1px, rgb(255, 255, 255) -1px 1px 1px; white-space: pre;">pymatgen.optimization</text></g><g class="sankey-node" transform="translate(0.000,240.224)" style="opacity: 1;"><rect class="node-rect" width="20" height="2.5770308123249492" style="stroke-width: 0.5; stroke: rgb(0, 0, 0); stroke-opacity: 0.1; fill: rgb(255, 139, 148); fill-opacity: 1;"/><text class="node-label" data-notex="1" x="0" y="0" text-anchor="start" transform="translate(23.25,6.888515406162474)" style="cursor: default; font-family: 'Open Sans', verdana, arial, sans-serif; font-size: 16px; fill: rgb(42, 63, 95); fill-opacity: 1; text-shadow: rgb(255, 255, 255) 1px 1px 1px, rgb(255, 255, 255) -1px -1px 1px, rgb(255, 255, 255) 1px -1px 1px, rgb(255, 255, 255) -1px 1px 1px; white-space: pre;">pymatgen.util</text></g><g class="sankey-node" transform="translate(520.000,293.595)" style="opacity: 1;"><rect class="node-rect" width="20" height="3.0252100840335743" style="stroke-width: 0.5; stroke: rgb(0, 0, 0); stroke-opacity: 0.1; fill: rgb(247, 178, 103); fill-opacity: 1;"/><text class="node-label" data-notex="1" x="0" y="0" text-anchor="end" transform="translate(-3.25,7.112605042016787)" style="cursor: default; font-family: 'Open Sans', verdana, arial, sans-serif; font-size: 16px; fill: rgb(42, 63, 95); fill-opacity: 1; text-shadow: rgb(255, 255, 255) 1px 1px 1px, rgb(255, 255, 255) -1px -1px 1px, rgb(255, 255, 255) 1px -1px 1px, rgb(255, 255, 255) -1px 1px 1px; white-space: pre;">materials_discovery</text></g><g class="sankey-node" transform="translate(520.000,67.937)" style="opacity: 1;"><rect class="node-rect" width="20" height="13.445378151260456" style="stroke-width: 0.5; stroke: rgb(0, 0, 0); stroke-opacity: 0.1; fill: rgb(247, 178, 103); fill-opacity: 1;"/><text class="node-label" data-notex="1" x="0" y="0" text-anchor="end" transform="translate(-3.25,12.322689075630228)" style="cursor: default; font-family: 'Open Sans', verdana, arial, sans-serif; font-size: 16px; fill: rgb(42, 63, 95); fill-opacity: 1; text-shadow: rgb(255, 255, 255) 1px 1px 1px, rgb(255, 255, 255) -1px -1px 1px, rgb(255, 255, 255) 1px -1px 1px, rgb(255, 255, 255) -1px 1px 1px; white-space: pre;">AIRS</text></g><g class="sankey-node" transform="translate(520.000,165.714)" style="opacity: 1;"><rect class="node-rect" width="20" height="0.8963585434173638" style="stroke-width: 0.5; stroke: rgb(0, 0, 0); stroke-opacity: 0.1; fill: rgb(247, 178, 103); fill-opacity: 1;"/><text class="node-label" data-notex="1" x="0" y="0" text-anchor="end" transform="translate(-3.25,6.0481792717086815)" style="cursor: default; font-family: 'Open Sans', verdana, arial, sans-serif; font-size: 16px; fill: rgb(42, 63, 95); fill-opacity: 1; text-shadow: rgb(255, 255, 255) 1px 1px 1px, rgb(255, 255, 255) -1px -1px 1px, rgb(255, 255, 255) 1px -1px 1px, rgb(255, 255, 255) -1px 1px 1px; white-space: pre;">megnet</text></g><g class="sankey-node" transform="translate(520.000,99.160)" style="opacity: 1;"><rect class="node-rect" width="20" height="6.946778711484683" style="stroke-width: 0.5; stroke: rgb(0, 0, 0); stroke-opacity: 0.1; fill: rgb(247, 178, 103); fill-opacity: 1;"/><text class="node-label" data-notex="1" x="0" y="0" text-anchor="end" transform="translate(-3.25,9.073389355742341)" style="cursor: default; font-family: 'Open Sans', verdana, arial, sans-serif; font-size: 16px; fill: rgb(42, 63, 95); fill-opacity: 1; text-shadow: rgb(255, 255, 255) 1px 1px 1px, rgb(255, 255, 255) -1px -1px 1px, rgb(255, 255, 255) 1px -1px 1px, rgb(255, 255, 255) -1px 1px 1px; white-space: pre;">matgl</text></g><g class="sankey-node" transform="translate(520.000,273.800)" style="opacity: 1;"><rect class="node-rect" width="20" height="2.0168067226890685" style="stroke-width: 0.5; stroke: rgb(0, 0, 0); stroke-opacity: 0.1; fill: rgb(247, 178, 103); fill-opacity: 1;"/><text class="node-label" data-notex="1" x="0" y="0" text-anchor="end" transform="translate(-3.25,6.608403361344534)" style="cursor: default; font-family: 'Open Sans', verdana, arial, sans-serif; font-size: 16px; fill: rgb(42, 63, 95); fill-opacity: 1; text-shadow: rgb(255, 255, 255) 1px 1px 1px, rgb(255, 255, 255) -1px -1px 1px, rgb(255, 255, 255) 1px -1px 1px, rgb(255, 255, 255) -1px 1px 1px; white-space: pre;">PaddleScience</text></g><g class="sankey-node" transform="translate(520.000,35.817)" style="opacity: 1;"><rect class="node-rect" width="20" height="14.34173669467792" style="stroke-width: 0.5; stroke: rgb(0, 0, 0); stroke-opacity: 0.1; fill: rgb(247, 178, 103); fill-opacity: 1;"/><text class="node-label" data-notex="1" x="0" y="0" text-anchor="end" transform="translate(-3.25,12.77086834733896)" style="cursor: default; font-family: 'Open Sans', verdana, arial, sans-serif; font-size: 16px; fill: rgb(42, 63, 95); fill-opacity: 1; text-shadow: rgb(255, 255, 255) 1px 1px 1px, rgb(255, 255, 255) -1px -1px 1px, rgb(255, 255, 255) 1px -1px 1px, rgb(255, 255, 255) -1px 1px 1px; white-space: pre;">PyXtal</text></g><g class="sankey-node" transform="translate(520.000,0.000)" style="opacity: 1;"><rect class="node-rect" width="20" height="18.03921568627453" style="stroke-width: 0.5; stroke: rgb(0, 0, 0); stroke-opacity: 0.1; fill: rgb(247, 178, 103); fill-opacity: 1;"/><text class="node-label" data-notex="1" x="0" y="0" text-anchor="end" transform="translate(-3.25,14.619607843137265)" style="cursor: default; font-family: 'Open Sans', verdana, arial, sans-serif; font-size: 16px; fill: rgb(42, 63, 95); fill-opacity: 1; text-shadow: rgb(255, 255, 255) 1px 1px 1px, rgb(255, 255, 255) -1px -1px 1px, rgb(255, 255, 255) 1px -1px 1px, rgb(255, 255, 255) -1px 1px 1px; white-space: pre;">pymatviz</text></g><g class="sankey-node" transform="translate(520.000,123.884)" style="opacity: 1;"><rect class="node-rect" width="20" height="3.473389355742256" style="stroke-width: 0.5; stroke: rgb(0, 0, 0); stroke-opacity: 0.1; fill: rgb(247, 178, 103); fill-opacity: 1;"/><text class="node-label" data-notex="1" x="0" y="0" text-anchor="end" transform="translate(-3.25,7.336694677871128)" style="cursor: default; font-family: 'Open Sans', verdana, arial, sans-serif; font-size: 16px; fill: rgb(42, 63, 95); fill-opacity: 1; text-shadow: rgb(255, 255, 255) 1px 1px 1px, rgb(255, 255, 255) -1px -1px 1px, rgb(255, 255, 255) 1px -1px 1px, rgb(255, 255, 255) -1px 1px 1px; white-space: pre;">all-atom-diffusion-transformer</text></g><g class="sankey-node" transform="translate(520.000,314.398)" style="opacity: 1;"><rect class="node-rect" width="20" height="5.602240896358467" style="stroke-width: 0.5; stroke: rgb(0, 0, 0); stroke-opacity: 0.1; fill: rgb(247, 178, 103); fill-opacity: 1;"/><text class="node-label" data-notex="1" x="0" y="0" text-anchor="end" transform="translate(-3.25,8.401120448179233)" style="cursor: default; font-family: 'Open Sans', verdana, arial, sans-serif; font-size: 16px; fill: rgb(42, 63, 95); fill-opacity: 1; text-shadow: rgb(255, 255, 255) 1px 1px 1px, rgb(255, 255, 255) -1px -1px 1px, rgb(255, 255, 255) 1px -1px 1px, rgb(255, 255, 255) -1px 1px 1px; white-space: pre;">quacc</text></g><g class="sankey-node" transform="translate(520.000,206.088)" style="opacity: 1;"><rect class="node-rect" width="20" height="15.686274509803923" style="stroke-width: 0.5; stroke: rgb(0, 0, 0); stroke-opacity: 0.1; fill: rgb(247, 178, 103); fill-opacity: 1;"/><text class="node-label" data-notex="1" x="0" y="0" text-anchor="end" transform="translate(-3.25,13.443137254901961)" style="cursor: default; font-family: 'Open Sans', verdana, arial, sans-serif; font-size: 16px; fill: rgb(42, 63, 95); fill-opacity: 1; text-shadow: rgb(255, 255, 255) 1px 1px 1px, rgb(255, 255, 255) -1px -1px 1px, rgb(255, 255, 255) 1px -1px 1px, rgb(255, 255, 255) -1px 1px 1px; white-space: pre;">doped</text></g><g class="sankey-node" transform="translate(520.000,239.552)" style="opacity: 1;"><rect class="node-rect" width="20" height="16.470588235294088" style="stroke-width: 0.5; stroke: rgb(0, 0, 0); stroke-opacity: 0.1; fill: rgb(247, 178, 103); fill-opacity: 1;"/><text class="node-label" data-notex="1" x="0" y="0" text-anchor="end" transform="translate(-3.25,13.835294117647043)" style="cursor: default; font-family: 'Open Sans', verdana, arial, sans-serif; font-size: 16px; fill: rgb(42, 63, 95); fill-opacity: 1; text-shadow: rgb(255, 255, 255) 1px 1px 1px, rgb(255, 255, 255) -1px -1px 1px, rgb(255, 255, 255) 1px -1px 1px, rgb(255, 255, 255) -1px 1px 1px; white-space: pre;">matbench-discovery</text></g><g class="sankey-node" transform="translate(520.000,145.135)" style="opacity: 1;"><rect class="node-rect" width="20" height="2.80112044817929" style="stroke-width: 0.5; stroke: rgb(0, 0, 0); stroke-opacity: 0.1; fill: rgb(247, 178, 103); fill-opacity: 1;"/><text class="node-label" data-notex="1" x="0" y="0" text-anchor="end" transform="translate(-3.25,7.000560224089645)" style="cursor: default; font-family: 'Open Sans', verdana, arial, sans-serif; font-size: 16px; fill: rgb(42, 63, 95); fill-opacity: 1; text-shadow: rgb(255, 255, 255) 1px 1px 1px, rgb(255, 255, 255) -1px -1px 1px, rgb(255, 255, 255) 1px -1px 1px, rgb(255, 255, 255) -1px 1px 1px; white-space: pre;">matsciml</text></g><g class="sankey-node" transform="translate(520.000,184.388)" style="opacity: 1;"><rect class="node-rect" width="20" height="3.921568627450995" style="stroke-width: 0.5; stroke: rgb(0, 0, 0); stroke-opacity: 0.1; fill: rgb(247, 178, 103); fill-opacity: 1;"/><text class="node-label" data-notex="1" x="0" y="0" text-anchor="end" transform="translate(-3.25,7.560784313725497)" style="cursor: default; font-family: 'Open Sans', verdana, arial, sans-serif; font-size: 16px; fill: rgb(42, 63, 95); fill-opacity: 1; text-shadow: rgb(255, 255, 255) 1px 1px 1px, rgb(255, 255, 255) -1px -1px 1px, rgb(255, 255, 255) 1px -1px 1px, rgb(255, 255, 255) -1px 1px 1px; white-space: pre;">CrystaLLM</text></g></g></g><defs id="topdefs-0e95dc"><g class="clips"/></defs><g class="layer-above"><g class="imagelayer"/><g class="shapelayer"/></g><g class="infolayer"><g class="g-gtitle"/><g class="first-render"/></g></svg>
