<svg class="main-svg" xmlns="http://www.w3.org/2000/svg" xmlns:xlink="http://www.w3.org/1999/xlink" width="1400" height="1000" style="" viewBox="0 0 700 500"><rect x="0" y="0" width="700" height="500" style="fill: rgb(255, 255, 255); fill-opacity: 1;"/><defs id="defs-fc382d"><g class="clips"/><g class="gradients"/><g class="patterns"/></defs><g class="bglayer"/><g class="layer-below"><g class="imagelayer"/><g class="shapelayer"/></g><g class="cartesianlayer"/><g class="polarlayer"/><g class="smithlayer"/><g class="ternarylayer"/><g class="geolayer"/><g class="funnelarealayer"/><g class="pielayer"/><g class="iciclelayer"/><g class="treemaplayer"/><g class="sunburstlayer"/><g class="glimages"/><g class="sankey" transform="translate(80,100)matrix(1 0 0 1 0 0)" style="box-sizing: content-box; position: absolute; left: 0px; shape-rendering: geometricprecision; pointer-events: none;"><g class="sankey-links" style="fill: none;"><path class="sankey-link" d="M20,174.83937547854438C270,174.83937547854438 270,288.4729851193448 520,288.4729851193448L520,289.37847464962215C270,289.37847464962215 270,175.74486500882168 20,175.74486500882168Z" style="stroke: rgb(246, 114, 128); stroke-opacity: 0.5; fill: rgb(246, 114, 128); fill-opacity: 0.5; stroke-width: 1; opacity: 1;"/><path class="sankey-link" d="M20,172.93784746496203C270,172.93784746496203 270,210.75002496754212 520,210.75002496754212L520,211.29331868570853C270,211.29331868570853 270,173.48114118312844 20,173.48114118312844Z" style="stroke: rgb(255, 139, 148); stroke-opacity: 0.5; fill: rgb(255, 139, 148); fill-opacity: 0.5; stroke-width: 1; opacity: 1;"/><path class="sankey-link" d="M20,164.878990645494C270,164.878990645494 270,114.82672525716569 520,114.82672525716569L520,120.89350511002365C270,120.89350511002365 270,170.94577049835198 20,170.94577049835198Z" style="stroke: rgb(68, 68, 68); stroke-opacity: 1; fill: rgb(59, 156, 156); fill-opacity: 0.5; stroke-width: 0; opacity: 1;"/><path class="sankey-link" d="M20,170.94577049835198C270,170.94577049835198 270,164.19188388428367 520,164.19188388428367L520,165.7312160857551C270,165.7312160857551 270,172.48510269982341 20,172.48510269982341Z" style="stroke: rgb(68, 68, 68); stroke-opacity: 1; fill: rgb(255, 211, 182); fill-opacity: 0.5; stroke-width: 0; opacity: 1;"/><path class="sankey-link" d="M20,173.48114118312841C270,173.48114118312841 270,262.52272046339755 520,262.52272046339755L520,263.8809547588135C270,263.8809547588135 270,174.83937547854438 20,174.83937547854438Z" style="stroke: rgb(68, 68, 68); stroke-opacity: 1; fill: rgb(53, 92, 125); fill-opacity: 0.5; stroke-width: 0; opacity: 1;"/><path class="sankey-link" d="M20,172.4851026998234C270,172.4851026998234 270,185.5241519358167 520,185.5241519358167L520,185.97689670095536C270,185.97689670095536 270,172.93784746496206 20,172.93784746496206Z" style="stroke: rgb(108, 91, 123); stroke-opacity: 0.5; fill: rgb(108, 91, 123); fill-opacity: 0.5; stroke-width: 1; opacity: 1;"/><path class="sankey-link" d="M20,-2.8421709430404007e-13C270,-2.8421709430404007e-13 270,87.9336862079297 520,87.9336862079297L520,88.65807783215155C270,88.65807783215155 270,0.7243916242215609 20,0.7243916242215609Z" style="stroke: rgb(59, 156, 156); stroke-opacity: 0.5; fill: rgb(59, 156, 156); fill-opacity: 0.5; stroke-width: 1; opacity: 1;"/><path class="sankey-link" d="M20,255.00715736209582C270,255.00715736209582 270,130.4916941309631 520,130.4916941309631L520,131.03498784912952C270,131.03498784912952 270,255.55045108026223 20,255.55045108026223Z" style="stroke: rgb(59, 156, 156); stroke-opacity: 0.5; fill: rgb(59, 156, 156); fill-opacity: 0.5; stroke-width: 1; opacity: 1;"/><path class="sankey-link" d="M20,255.73154898631768C270,255.73154898631768 270,267.5934618329505 520,267.5934618329505L520,268.49895136322783C270,268.49895136322783 270,256.637038516595 20,256.637038516595Z" style="stroke: rgb(53, 92, 125); stroke-opacity: 0.5; fill: rgb(53, 92, 125); fill-opacity: 0.5; stroke-width: 1; opacity: 1;"/><path class="sankey-link" d="M20,255.5504510802622C270,255.5504510802622 270,148.56419987349773 520,148.56419987349773L520,148.65474882652546C270,148.65474882652546 270,255.64100003328994 20,255.64100003328994Z" style="stroke: rgb(255, 170, 165); stroke-opacity: 0.5; fill: rgb(255, 170, 165); fill-opacity: 0.5; stroke-width: 1; opacity: 1;"/><path class="sankey-link" d="M20,255.64100003328994C270,255.64100003328994 270,192.49642131895195 520,192.49642131895195L520,192.58697027197968C270,192.58697027197968 270,255.73154898631768 20,255.73154898631768Z" style="stroke: rgb(108, 91, 123); stroke-opacity: 0.5; fill: rgb(108, 91, 123); fill-opacity: 0.5; stroke-width: 1; opacity: 1;"/><path class="sankey-link" d="M20,135.16295482539346C270,135.16295482539346 270,182.3549385798461 520,182.3549385798461L520,185.52415193581666C270,185.52415193581666 270,138.332168181364 20,138.332168181364Z" style="stroke: rgb(68, 68, 68); stroke-opacity: 1; fill: rgb(108, 91, 123); fill-opacity: 0.5; stroke-width: 0; opacity: 1;"/><path class="sankey-link" d="M20,127.55684277106407C270,127.55684277106407 270,108.85049435733548 520,108.85049435733548L520,114.37398049202706C270,114.37398049202706 270,133.08032890575564 20,133.08032890575564Z" style="stroke: rgb(68, 68, 68); stroke-opacity: 1; fill: rgb(59, 156, 156); fill-opacity: 0.5; stroke-width: 0; opacity: 1;"/><path class="sankey-link" d="M20,133.08032890575566C270,133.08032890575566 270,162.10925796464588 520,162.10925796464588L520,164.19188388428367C270,164.19188388428367 270,135.16295482539346 20,135.16295482539346Z" style="stroke: rgb(68, 68, 68); stroke-opacity: 1; fill: rgb(255, 211, 182); fill-opacity: 0.5; stroke-width: 0; opacity: 1;"/><path class="sankey-link" d="M20,138.33216818136404C270,138.33216818136404 270,210.65947601451438 520,210.65947601451438L520,210.75002496754212C270,210.75002496754212 270,138.42271713439177 20,138.42271713439177Z" style="stroke: rgb(255, 139, 148); stroke-opacity: 0.5; fill: rgb(255, 139, 148); fill-opacity: 0.5; stroke-width: 1; opacity: 1;"/><path class="sankey-link" d="M20,138.42271713439177C270,138.42271713439177 270,261.7983288391757 520,261.7983288391757L520,262.4321715103698C270,262.4321715103698 270,139.05655980558586 20,139.05655980558586Z" style="stroke: rgb(53, 92, 125); stroke-opacity: 0.5; fill: rgb(53, 92, 125); fill-opacity: 0.5; stroke-width: 1; opacity: 1;"/><path class="sankey-link" d="M20,79.22500749026246C270,79.22500749026246 270,101.5160291620893 520,101.5160291620893L520,103.32700822264391C270,103.32700822264391 270,81.03598655081707 20,81.03598655081707Z" style="stroke: rgb(68, 68, 68); stroke-opacity: 1; fill: rgb(59, 156, 156); fill-opacity: 0.5; stroke-width: 0; opacity: 1;"/><path class="sankey-link" d="M20,81.21708445687253C270,81.21708445687253 270,180.9061553314024 520,180.9061553314024L520,181.72109590865196C270,181.72109590865196 270,82.03202503412211 20,82.03202503412211Z" style="stroke: rgb(108, 91, 123); stroke-opacity: 0.5; fill: rgb(108, 91, 123); fill-opacity: 0.5; stroke-width: 1; opacity: 1;"/><path class="sankey-link" d="M20,81.03598655081707C270,81.03598655081707 270,161.5659642464795 520,161.5659642464795L520,161.74706215253497C270,161.74706215253497 270,81.21708445687254 20,81.21708445687254Z" style="stroke: rgb(255, 211, 182); stroke-opacity: 0.5; fill: rgb(255, 211, 182); fill-opacity: 0.5; stroke-width: 1; opacity: 1;"/><path class="sankey-link" d="M20,224.20453410566253C270,224.20453410566253 270,245.8084490162788 520,245.8084490162788L520,246.62338959352834C270,246.62338959352834 270,225.0194746829121 20,225.0194746829121Z" style="stroke: rgb(232, 74, 95); stroke-opacity: 0.5; fill: rgb(232, 74, 95); fill-opacity: 0.5; stroke-width: 1; opacity: 1;"/><path class="sankey-link" d="M20,217.5944605346382C270,217.5944605346382 270,186.33909251306625 520,186.33909251306625L520,191.04763807050824C270,191.04763807050824 270,222.30300609208018 20,222.30300609208018Z" style="stroke: rgb(68, 68, 68); stroke-opacity: 1; fill: rgb(108, 91, 123); fill-opacity: 0.5; stroke-width: 0; opacity: 1;"/><path class="sankey-link" d="M20,225.01947468291212C270,225.01947468291212 270,265.9635806784513 520,265.9635806784513L520,267.5934618329504C270,267.5934618329504 270,226.6493558374113 20,226.6493558374113Z" style="stroke: rgb(68, 68, 68); stroke-opacity: 1; fill: rgb(53, 92, 125); fill-opacity: 0.5; stroke-width: 0; opacity: 1;"/><path class="sankey-link" d="M20,213.70085555444575C270,213.70085555444575 270,126.4169912447152 520,126.4169912447152L520,130.2200472718799C270,130.2200472718799 270,217.50391158161045 20,217.50391158161045Z" style="stroke: rgb(68, 68, 68); stroke-opacity: 1; fill: rgb(59, 156, 156); fill-opacity: 0.5; stroke-width: 0; opacity: 1;"/><path class="sankey-link" d="M20,223.38959352841295C270,223.38959352841295 270,229.90911814640958 520,229.90911814640958L520,230.72405872365914C270,230.72405872365914 270,224.2045341056625 20,224.2045341056625Z" style="stroke: rgb(153, 184, 152); stroke-opacity: 0.5; fill: rgb(153, 184, 152); fill-opacity: 0.5; stroke-width: 1; opacity: 1;"/><path class="sankey-link" d="M20,222.30300609208018C270,222.30300609208018 270,211.5649655447917 520,211.5649655447917L520,212.65155298112447C270,212.65155298112447 270,223.38959352841295 20,223.38959352841295Z" style="stroke: rgb(68, 68, 68); stroke-opacity: 1; fill: rgb(255, 139, 148); fill-opacity: 0.5; stroke-width: 0; opacity: 1;"/><path class="sankey-link" d="M20,227.19264955557765C270,227.19264955557765 270,306.6360398149073 520,306.6360398149073L520,306.90768667399044C270,306.90768667399044 270,227.46429641466085 20,227.46429641466085Z" style="stroke: rgb(192, 108, 132); stroke-opacity: 0.5; fill: rgb(192, 108, 132); fill-opacity: 0.5; stroke-width: 1; opacity: 1;"/><path class="sankey-link" d="M20,226.64935583741126C270,226.64935583741126 270,289.3784746496221 520,289.3784746496221L520,289.9217683677885C270,289.9217683677885 270,227.19264955557767 20,227.19264955557767Z" style="stroke: rgb(246, 114, 128); stroke-opacity: 0.5; fill: rgb(246, 114, 128); fill-opacity: 0.5; stroke-width: 1; opacity: 1;"/><path class="sankey-link" d="M20,217.50391158161045C270,217.50391158161045 270,165.73121608575508 520,165.73121608575508L520,165.82176503878281C270,165.82176503878281 270,217.5944605346382 20,217.5944605346382Z" style="stroke: rgb(255, 211, 182); stroke-opacity: 0.5; fill: rgb(255, 211, 182); fill-opacity: 0.5; stroke-width: 1; opacity: 1;"/><path class="sankey-link" d="M20,13.273411232064703C270,13.273411232064703 270,88.65807783215155 520,88.65807783215155L520,89.47301840940113C270,89.47301840940113 270,14.088351809314279 20,14.088351809314279Z" style="stroke: rgb(59, 156, 156); stroke-opacity: 0.5; fill: rgb(59, 156, 156); fill-opacity: 0.5; stroke-width: 1; opacity: 1;"/><path class="sankey-link" d="M20,26.637371417157397C270,26.637371417157397 270,89.47301840940112 520,89.47301840940112L520,89.74466526848433C270,89.74466526848433 270,26.909018276240587 20,26.909018276240587Z" style="stroke: rgb(59, 156, 156); stroke-opacity: 0.5; fill: rgb(59, 156, 156); fill-opacity: 0.5; stroke-width: 1; opacity: 1;"/><path class="sankey-link" d="M20,193.81737075135644C270,193.81737075135644 270,185.97689670095534 520,185.97689670095534L520,186.33909251306628C270,186.33909251306628 270,194.17956656346738 20,194.17956656346738Z" style="stroke: rgb(108, 91, 123); stroke-opacity: 0.5; fill: rgb(108, 91, 123); fill-opacity: 0.5; stroke-width: 1; opacity: 1;"/><path class="sankey-link" d="M20,188.29388461666485C270,188.29388461666485 270,120.89350511002364 520,120.89350511002364L520,126.41699124471522C270,126.41699124471522 270,193.8173707513564 20,193.8173707513564Z" style="stroke: rgb(68, 68, 68); stroke-opacity: 1; fill: rgb(59, 156, 156); fill-opacity: 0.5; stroke-width: 0; opacity: 1;"/><path class="sankey-link" d="M20,199.0692100269648C270,199.0692100269648 270,263.8809547588135 520,263.8809547588135L520,265.96358067845136C270,265.96358067845136 270,201.1518359466026 20,201.1518359466026Z" style="stroke: rgb(68, 68, 68); stroke-opacity: 1; fill: rgb(53, 92, 125); fill-opacity: 0.5; stroke-width: 0; opacity: 1;"/><path class="sankey-link" d="M20,194.45121342255055C270,194.45121342255055 270,225.38167049502306 520,225.38167049502306L520,229.90911814640958C270,229.90911814640958 270,198.97866107393708 20,198.97866107393708Z" style="stroke: rgb(68, 68, 68); stroke-opacity: 1; fill: rgb(153, 184, 152); fill-opacity: 0.5; stroke-width: 0; opacity: 1;"/><path class="sankey-link" d="M20,194.17956656346735C270,194.17956656346735 270,211.2933186857085 520,211.2933186857085L520,211.5649655447917C270,211.5649655447917 270,194.45121342255055 20,194.45121342255055Z" style="stroke: rgb(255, 139, 148); stroke-opacity: 0.5; fill: rgb(255, 139, 148); fill-opacity: 0.5; stroke-width: 1; opacity: 1;"/><path class="sankey-link" d="M20,198.97866107393708C270,198.97866107393708 270,245.71790006325105 520,245.71790006325105L520,245.8084490162788C270,245.8084490162788 270,199.0692100269648 20,199.0692100269648Z" style="stroke: rgb(232, 74, 95); stroke-opacity: 0.5; fill: rgb(232, 74, 95); fill-opacity: 0.5; stroke-width: 1; opacity: 1;"/><path class="sankey-link" d="M20,39.45803788408374C270,39.45803788408374 270,89.74466526848431 520,89.74466526848431L520,89.83521422151205C270,89.83521422151205 270,39.54858683711147 20,39.54858683711147Z" style="stroke: rgb(59, 156, 156); stroke-opacity: 0.5; fill: rgb(59, 156, 156); fill-opacity: 0.5; stroke-width: 1; opacity: 1;"/><path class="sankey-link" d="M20,241.73374613003085C270,241.73374613003085 270,230.72405872365917 520,230.72405872365917L520,231.448450347881C270,231.448450347881 270,242.45813775425268 20,242.45813775425268Z" style="stroke: rgb(153, 184, 152); stroke-opacity: 0.5; fill: rgb(153, 184, 152); fill-opacity: 0.5; stroke-width: 1; opacity: 1;"/><path class="sankey-link" d="M20,240.28496288158715C270,240.28496288158715 270,191.04763807050824 520,191.04763807050824L520,192.49642131895195C270,192.49642131895195 270,241.73374613003085 20,241.73374613003085Z" style="stroke: rgb(68, 68, 68); stroke-opacity: 1; fill: rgb(108, 91, 123); fill-opacity: 0.5; stroke-width: 0; opacity: 1;"/><path class="sankey-link" d="M20,240.01331602250394C270,240.01331602250394 270,130.2200472718799 520,130.2200472718799L520,130.4916941309631C270,130.4916941309631 270,240.28496288158715 20,240.28496288158715Z" style="stroke: rgb(59, 156, 156); stroke-opacity: 0.5; fill: rgb(59, 156, 156); fill-opacity: 0.5; stroke-width: 1; opacity: 1;"/><path class="sankey-link" d="M20,279.4180898165717C270,279.4180898165717 270,246.62338959352837 520,246.62338959352837L520,248.07217284197208C270,248.07217284197208 270,280.86687306501534 20,280.86687306501534Z" style="stroke: rgb(68, 68, 68); stroke-opacity: 1; fill: rgb(232, 74, 95); fill-opacity: 0.5; stroke-width: 0; opacity: 1;"/><path class="sankey-link" d="M20,269.18605812443815C270,269.18605812443815 270,131.0349878491295 520,131.0349878491295L520,134.74749492326646C270,134.74749492326646 270,272.8985651985751 20,272.8985651985751Z" style="stroke: rgb(68, 68, 68); stroke-opacity: 1; fill: rgb(59, 156, 156); fill-opacity: 0.5; stroke-width: 0; opacity: 1;"/><path class="sankey-link" d="M20,284.9415759512633C270,284.9415759512633 270,289.9217683677885 520,289.9217683677885L520,294.0870202070641C270,294.0870202070641 270,289.1068277905389 20,289.1068277905389Z" style="stroke: rgb(68, 68, 68); stroke-opacity: 1; fill: rgb(246, 114, 128); fill-opacity: 0.5; stroke-width: 0; opacity: 1;"/><path class="sankey-link" d="M20,273.62295682279694C270,273.62295682279694 270,192.58697027197968 520,192.58697027197968L520,197.29551582942167C270,197.29551582942167 270,278.33150238023893 20,278.33150238023893Z" style="stroke: rgb(68, 68, 68); stroke-opacity: 1; fill: rgb(108, 91, 123); fill-opacity: 0.5; stroke-width: 0; opacity: 1;"/><path class="sankey-link" d="M20,289.1068277905389C270,289.1068277905389 270,306.9076866739905 520,306.9076866739905L520,307.26988248610144C270,307.26988248610144 270,289.4690236026498 20,289.4690236026498Z" style="stroke: rgb(192, 108, 132); stroke-opacity: 0.5; fill: rgb(192, 108, 132); fill-opacity: 0.5; stroke-width: 1; opacity: 1;"/><path class="sankey-link" d="M20,272.8985651985751C270,272.8985651985751 270,165.82176503878281 520,165.82176503878281L520,166.54615666300464C270,166.54615666300464 270,273.622956822797 20,273.622956822797Z" style="stroke: rgb(255, 211, 182); stroke-opacity: 0.5; fill: rgb(255, 211, 182); fill-opacity: 0.5; stroke-width: 1; opacity: 1;"/><path class="sankey-link" d="M20,280.8668730650154C270,280.8668730650154 270,268.4989513632278 520,268.4989513632278L520,272.5736542494757C270,272.5736542494757 270,284.9415759512633 20,284.9415759512633Z" style="stroke: rgb(68, 68, 68); stroke-opacity: 1; fill: rgb(53, 92, 125); fill-opacity: 0.5; stroke-width: 0; opacity: 1;"/><path class="sankey-link" d="M20,278.5126002862944C270,278.5126002862944 270,231.44845034788102 520,231.44845034788102L520,232.35393987815831C270,232.35393987815831 270,279.41808981657175 20,279.41808981657175Z" style="stroke: rgb(153, 184, 152); stroke-opacity: 0.5; fill: rgb(153, 184, 152); fill-opacity: 0.5; stroke-width: 1; opacity: 1;"/><path class="sankey-link" d="M20,278.33150238023893C270,278.33150238023893 270,212.65155298112447 520,212.65155298112447L520,212.83265088717994C270,212.83265088717994 270,278.5126002862944 20,278.5126002862944Z" style="stroke: rgb(255, 139, 148); stroke-opacity: 0.5; fill: rgb(255, 139, 148); fill-opacity: 0.5; stroke-width: 1; opacity: 1;"/><path class="sankey-link" d="M20,94.58104464196526C270,94.58104464196526 270,103.32700822264391 520,103.32700822264391L520,107.40171110889179C270,107.40171110889179 270,98.65574752821314 20,98.65574752821314Z" style="stroke: rgb(68, 68, 68); stroke-opacity: 1; fill: rgb(59, 156, 156); fill-opacity: 0.5; stroke-width: 0; opacity: 1;"/><path class="sankey-link" d="M20,99.65178601151818C270,99.65178601151818 270,261.07393721495384 520,261.07393721495384L520,261.61723093312025C270,261.61723093312025 270,100.19507972968456 20,100.19507972968456Z" style="stroke: rgb(53, 92, 125); stroke-opacity: 0.5; fill: rgb(53, 92, 125); fill-opacity: 0.5; stroke-width: 1; opacity: 1;"/><path class="sankey-link" d="M20,99.28959019940726C270,99.28959019940726 270,245.2651552981124 520,245.2651552981124L520,245.62735111022334C270,245.62735111022334 270,99.65178601151817 20,99.65178601151817Z" style="stroke: rgb(232, 74, 95); stroke-opacity: 0.5; fill: rgb(232, 74, 95); fill-opacity: 0.5; stroke-width: 1; opacity: 1;"/><path class="sankey-link" d="M20,98.92739438729633C270,98.92739438729633 270,161.74706215253497 520,161.74706215253497L520,162.1092579646459C270,162.1092579646459 270,99.28959019940724 20,99.28959019940724Z" style="stroke: rgb(255, 211, 182); stroke-opacity: 0.5; fill: rgb(255, 211, 182); fill-opacity: 0.5; stroke-width: 1; opacity: 1;"/><path class="sankey-link" d="M20,98.65574752821314C270,98.65574752821314 270,148.2020040613868 520,148.2020040613868L520,148.47365092047C270,148.47365092047 270,98.92739438729635 20,98.92739438729635Z" style="stroke: rgb(255, 170, 165); stroke-opacity: 0.5; fill: rgb(255, 170, 165); fill-opacity: 0.5; stroke-width: 1; opacity: 1;"/><path class="sankey-link" d="M20,112.74409933752769C270,112.74409933752769 270,107.40171110889179 520,107.40171110889179L520,108.85049435733549C270,108.85049435733549 270,114.19288258597139 20,114.19288258597139Z" style="stroke: rgb(68, 68, 68); stroke-opacity: 1; fill: rgb(59, 156, 156); fill-opacity: 0.5; stroke-width: 0; opacity: 1;"/><path class="sankey-link" d="M20,114.19288258597138C270,114.19288258597138 270,181.721095908652 520,181.721095908652L520,182.35493857984608C270,182.35493857984608 270,114.82672525716549 20,114.82672525716549Z" style="stroke: rgb(108, 91, 123); stroke-opacity: 0.5; fill: rgb(108, 91, 123); fill-opacity: 0.5; stroke-width: 1; opacity: 1;"/><path class="sankey-link" d="M20,114.82672525716549C270,114.82672525716549 270,261.61723093312025 520,261.61723093312025L520,261.7983288391757C270,261.7983288391757 270,115.00782316322096 20,115.00782316322096Z" style="stroke: rgb(53, 92, 125); stroke-opacity: 0.5; fill: rgb(53, 92, 125); fill-opacity: 0.5; stroke-width: 1; opacity: 1;"/><path class="sankey-link" d="M20,319.4567062818336C270,319.4567062818336 270,275.38067179333535 520,275.38067179333535L520,275.92396551150176C270,275.92396551150176 270,320 20,320Z" style="stroke: rgb(53, 92, 125); stroke-opacity: 0.5; fill: rgb(53, 92, 125); fill-opacity: 0.5; stroke-width: 1; opacity: 1;"/><path class="sankey-link" d="M20,319.36615732880585C270,319.36615732880585 270,148.65474882652546 520,148.65474882652546L520,148.7452977795532C270,148.7452977795532 270,319.45670628183353 20,319.45670628183353Z" style="stroke: rgb(255, 170, 165); stroke-opacity: 0.5; fill: rgb(255, 170, 165); fill-opacity: 0.5; stroke-width: 1; opacity: 1;"/><path class="sankey-link" d="M20,319.2756083757781C270,319.2756083757781 270,135.4718865474883 520,135.4718865474883L520,135.56243550051605C270,135.56243550051605 270,319.3661573288058 20,319.3661573288058Z" style="stroke: rgb(59, 156, 156); stroke-opacity: 0.5; fill: rgb(59, 156, 156); fill-opacity: 0.5; stroke-width: 1; opacity: 1;"/><path class="sankey-link" d="M20,151.60557941342904C270,151.60557941342904 270,114.37398049202704 520,114.37398049202704L520,114.82672525716569C270,114.82672525716569 270,152.05832417856772 20,152.05832417856772Z" style="stroke: rgb(59, 156, 156); stroke-opacity: 0.5; fill: rgb(59, 156, 156); fill-opacity: 0.5; stroke-width: 1; opacity: 1;"/><path class="sankey-link" d="M20,152.14887313159542C270,152.14887313159542 270,245.62735111022332 520,245.62735111022332L520,245.71790006325105C270,245.71790006325105 270,152.23942208462316 20,152.23942208462316Z" style="stroke: rgb(232, 74, 95); stroke-opacity: 0.5; fill: rgb(232, 74, 95); fill-opacity: 0.5; stroke-width: 1; opacity: 1;"/><path class="sankey-link" d="M20,152.0583241785677C270,152.0583241785677 270,148.47365092047 520,148.47365092047L520,148.56419987349773C270,148.56419987349773 270,152.14887313159542 20,152.14887313159542Z" style="stroke: rgb(255, 170, 165); stroke-opacity: 0.5; fill: rgb(255, 170, 165); fill-opacity: 0.5; stroke-width: 1; opacity: 1;"/><path class="sankey-link" d="M20,152.23942208462316C270,152.23942208462316 270,262.4321715103698 520,262.4321715103698L520,262.5227204633975C270,262.5227204633975 270,152.3299710376509 20,152.3299710376509Z" style="stroke: rgb(53, 92, 125); stroke-opacity: 0.5; fill: rgb(53, 92, 125); fill-opacity: 0.5; stroke-width: 1; opacity: 1;"/><path class="sankey-link" d="M20,52.188155397982335C270,52.188155397982335 270,89.83521422151205 520,89.83521422151205L520,101.5160291620893C270,101.5160291620893 270,63.868970338559585 20,63.868970338559585Z" style="stroke: rgb(68, 68, 68); stroke-opacity: 1; fill: rgb(59, 156, 156); fill-opacity: 0.5; stroke-width: 0; opacity: 1;"/><path class="sankey-link" d="M20,64.23116615067052C270,64.23116615067052 270,179.27627417690326 520,179.27627417690326L520,180.90615533140243C270,180.90615533140243 270,65.86104730516966 20,65.86104730516966Z" style="stroke: rgb(68, 68, 68); stroke-opacity: 1; fill: rgb(108, 91, 123); fill-opacity: 0.5; stroke-width: 0; opacity: 1;"/><path class="sankey-link" d="M20,66.04214521122512C270,66.04214521122512 270,245.08405739205693 520,245.08405739205693L520,245.2651552981124C270,245.2651552981124 270,66.22324311728059 20,66.22324311728059Z" style="stroke: rgb(232, 74, 95); stroke-opacity: 0.5; fill: rgb(232, 74, 95); fill-opacity: 0.5; stroke-width: 1; opacity: 1;"/><path class="sankey-link" d="M20,66.22324311728057C270,66.22324311728057 270,260.62119244981517 520,260.62119244981517L520,261.0739372149538C270,261.0739372149538 270,66.67598788241922 20,66.67598788241922Z" style="stroke: rgb(53, 92, 125); stroke-opacity: 0.5; fill: rgb(53, 92, 125); fill-opacity: 0.5; stroke-width: 1; opacity: 1;"/><path class="sankey-link" d="M20,65.86104730516966C270,65.86104730516966 270,210.4783781084589 520,210.4783781084589L520,210.65947601451438C270,210.65947601451438 270,66.04214521122513 20,66.04214521122513Z" style="stroke: rgb(255, 139, 148); stroke-opacity: 0.5; fill: rgb(255, 139, 148); fill-opacity: 0.5; stroke-width: 1; opacity: 1;"/><path class="sankey-link" d="M20,52.09760644495461C270,52.09760644495461 270,59.34152268717307 520,59.34152268717307L520,59.4320716402008C270,59.4320716402008 270,52.18815539798234 20,52.18815539798234Z" style="stroke: rgb(168, 230, 207); stroke-opacity: 0.5; fill: rgb(168, 230, 207); fill-opacity: 0.5; stroke-width: 1; opacity: 1;"/><path class="sankey-link" d="M20,63.95951929158732C270,63.95951929158732 270,161.2943173873963 520,161.2943173873963L520,161.5659642464795C270,161.5659642464795 270,64.23116615067052 20,64.23116615067052Z" style="stroke: rgb(255, 211, 182); stroke-opacity: 0.5; fill: rgb(255, 211, 182); fill-opacity: 0.5; stroke-width: 1; opacity: 1;"/><path class="sankey-link" d="M20,63.86897033855959C270,63.86897033855959 270,148.11145510835905 520,148.11145510835905L520,148.2020040613868C270,148.2020040613868 270,63.95951929158733 20,63.95951929158733Z" style="stroke: rgb(255, 170, 165); stroke-opacity: 0.5; fill: rgb(255, 170, 165); fill-opacity: 0.5; stroke-width: 1; opacity: 1;"/><path class="sankey-link" d="M20,303.7384733180198C270,303.7384733180198 270,272.5736542494757 520,272.5736542494757L520,275.3806717933353C270,275.3806717933353 270,306.54549086187944 20,306.54549086187944Z" style="stroke: rgb(68, 68, 68); stroke-opacity: 1; fill: rgb(53, 92, 125); fill-opacity: 0.5; stroke-width: 0; opacity: 1;"/><path class="sankey-link" d="M20,302.018043210493C270,302.018043210493 270,134.74749492326646 520,134.74749492326646L520,135.47188654748828C270,135.47188654748828 270,302.74243483471486 20,302.74243483471486Z" style="stroke: rgb(59, 156, 156); stroke-opacity: 0.5; fill: rgb(59, 156, 156); fill-opacity: 0.5; stroke-width: 1; opacity: 1;"/><path class="sankey-link" d="M20,303.55737541196436C270,303.55737541196436 270,232.35393987815831 520,232.35393987815831L520,232.53503778421378C270,232.53503778421378 270,303.7384733180198 20,303.7384733180198Z" style="stroke: rgb(153, 184, 152); stroke-opacity: 0.5; fill: rgb(153, 184, 152); fill-opacity: 0.5; stroke-width: 1; opacity: 1;"/><path class="sankey-link" d="M20,302.92353274077027C270,302.92353274077027 270,197.29551582942167 520,197.29551582942167L520,197.92935850061576C270,197.92935850061576 270,303.55737541196436 20,303.55737541196436Z" style="stroke: rgb(108, 91, 123); stroke-opacity: 0.5; fill: rgb(108, 91, 123); fill-opacity: 0.5; stroke-width: 1; opacity: 1;"/><path class="sankey-link" d="M20,302.7424348347148C270,302.7424348347148 270,166.54615666300467 520,166.54615666300467L520,166.72725456906014C270,166.72725456906014 270,302.92353274077027 20,302.92353274077027Z" style="stroke: rgb(255, 211, 182); stroke-opacity: 0.5; fill: rgb(255, 211, 182); fill-opacity: 0.5; stroke-width: 1; opacity: 1;"/><path class="sankey-link" d="M20,306.5454908618795C270,306.5454908618795 270,319.81890209394453 520,319.81890209394453L520,320C270,320 270,306.72658876793497 20,306.72658876793497Z" style="stroke: rgb(160, 160, 160); stroke-opacity: 0.5; fill: rgb(160, 160, 160); fill-opacity: 0.5; stroke-width: 1; opacity: 1;"/></g><g class="sankey-node-set" style="cursor: move;"><g class="sankey-node" transform="translate(0.000,164.879)" style="opacity: 1;"><rect class="node-rect" width="20" height="10.865874363327691" style="stroke-width: 0.5; stroke: rgb(68, 68, 68); stroke-opacity: 1; fill: rgb(247, 178, 103); fill-opacity: 1;"/><text class="node-label" data-notex="1" x="0" y="0" text-anchor="start" transform="translate(23.25,9.632937181663845)" style="cursor: default; font-family: 'Open Sans', verdana, arial, sans-serif; font-size: 12px; fill: rgb(42, 63, 95); fill-opacity: 1; text-shadow: rgb(255, 255, 255) 1px 1px 1px, rgb(255, 255, 255) -1px -1px 1px, rgb(255, 255, 255) 1px -1px 1px, rgb(255, 255, 255) -1px 1px 1px; white-space: pre;">AIRS</text></g><g class="sankey-node" transform="translate(0.000,-0.000)" style="opacity: 1;"><rect class="node-rect" width="20" height="0.7243916242218518" style="stroke-width: 0.5; stroke: rgb(68, 68, 68); stroke-opacity: 1; fill: rgb(247, 178, 103); fill-opacity: 1;"/><text class="node-label" data-notex="1" x="0" y="0" text-anchor="start" transform="translate(23.25,4.562195812110925)" style="cursor: default; font-family: 'Open Sans', verdana, arial, sans-serif; font-size: 12px; fill: rgb(42, 63, 95); fill-opacity: 1; text-shadow: rgb(255, 255, 255) 1px 1px 1px, rgb(255, 255, 255) -1px -1px 1px, rgb(255, 255, 255) 1px -1px 1px, rgb(255, 255, 255) -1px 1px 1px; white-space: pre;">DeepH-pack</text></g><g class="sankey-node" transform="translate(0.000,255.007)" style="opacity: 1;"><rect class="node-rect" width="20" height="1.6298811544991736" style="stroke-width: 0.5; stroke: rgb(68, 68, 68); stroke-opacity: 1; fill: rgb(247, 178, 103); fill-opacity: 1;"/><text class="node-label" data-notex="1" x="0" y="0" text-anchor="start" transform="translate(23.25,5.014940577249586)" style="cursor: default; font-family: 'Open Sans', verdana, arial, sans-serif; font-size: 12px; fill: rgb(42, 63, 95); fill-opacity: 1; text-shadow: rgb(255, 255, 255) 1px 1px 1px, rgb(255, 255, 255) -1px -1px 1px, rgb(255, 255, 255) 1px -1px 1px, rgb(255, 255, 255) -1px 1px 1px; white-space: pre;">PaddleScience</text></g><g class="sankey-node" transform="translate(0.000,127.557)" style="opacity: 1;"><rect class="node-rect" width="20" height="11.499717034521808" style="stroke-width: 0.5; stroke: rgb(68, 68, 68); stroke-opacity: 1; fill: rgb(247, 178, 103); fill-opacity: 1;"/><text class="node-label" data-notex="1" x="0" y="0" text-anchor="start" transform="translate(23.25,9.949858517260903)" style="cursor: default; font-family: 'Open Sans', verdana, arial, sans-serif; font-size: 12px; fill: rgb(42, 63, 95); fill-opacity: 1; text-shadow: rgb(255, 255, 255) 1px 1px 1px, rgb(255, 255, 255) -1px -1px 1px, rgb(255, 255, 255) 1px -1px 1px, rgb(255, 255, 255) -1px 1px 1px; white-space: pre;">PyXtal</text></g><g class="sankey-node" transform="translate(0.000,79.225)" style="opacity: 1;"><rect class="node-rect" width="20" height="2.807017543859672" style="stroke-width: 0.5; stroke: rgb(68, 68, 68); stroke-opacity: 1; fill: rgb(247, 178, 103); fill-opacity: 1;"/><text class="node-label" data-notex="1" x="0" y="0" text-anchor="start" transform="translate(23.25,5.603508771929835)" style="cursor: default; font-family: 'Open Sans', verdana, arial, sans-serif; font-size: 12px; fill: rgb(42, 63, 95); fill-opacity: 1; text-shadow: rgb(255, 255, 255) 1px 1px 1px, rgb(255, 255, 255) -1px -1px 1px, rgb(255, 255, 255) 1px -1px 1px, rgb(255, 255, 255) -1px 1px 1px; white-space: pre;">all-atom-diffusion-transformer</text></g><g class="sankey-node" transform="translate(0.000,213.701)" style="opacity: 1;"><rect class="node-rect" width="20" height="13.763440860215042" style="stroke-width: 0.5; stroke: rgb(68, 68, 68); stroke-opacity: 1; fill: rgb(247, 178, 103); fill-opacity: 1;"/><text class="node-label" data-notex="1" x="0" y="0" text-anchor="start" transform="translate(23.25,11.08172043010752)" style="cursor: default; font-family: 'Open Sans', verdana, arial, sans-serif; font-size: 12px; fill: rgb(42, 63, 95); fill-opacity: 1; text-shadow: rgb(255, 255, 255) 1px 1px 1px, rgb(255, 255, 255) -1px -1px 1px, rgb(255, 255, 255) 1px -1px 1px, rgb(255, 255, 255) -1px 1px 1px; white-space: pre;">doped</text></g><g class="sankey-node" transform="translate(0.000,13.273)" style="opacity: 1;"><rect class="node-rect" width="20" height="0.8149405772495584" style="stroke-width: 0.5; stroke: rgb(68, 68, 68); stroke-opacity: 1; fill: rgb(247, 178, 103); fill-opacity: 1;"/><text class="node-label" data-notex="1" x="0" y="0" text-anchor="start" transform="translate(23.25,4.6074702886247785)" style="cursor: default; font-family: 'Open Sans', verdana, arial, sans-serif; font-size: 12px; fill: rgb(42, 63, 95); fill-opacity: 1; text-shadow: rgb(255, 255, 255) 1px 1px 1px, rgb(255, 255, 255) -1px -1px 1px, rgb(255, 255, 255) 1px -1px 1px, rgb(255, 255, 255) -1px 1px 1px; white-space: pre;">gptchem</text></g><g class="sankey-node" transform="translate(0.000,26.637)" style="opacity: 1;"><rect class="node-rect" width="20" height="0.5" style="stroke-width: 0.5; stroke: rgb(68, 68, 68); stroke-opacity: 1; fill: rgb(247, 178, 103); fill-opacity: 1;"/><text class="node-label" data-notex="1" x="0" y="0" text-anchor="start" transform="translate(23.25,4.449999999999999)" style="cursor: default; font-family: 'Open Sans', verdana, arial, sans-serif; font-size: 12px; fill: rgb(42, 63, 95); fill-opacity: 1; text-shadow: rgb(255, 255, 255) 1px 1px 1px, rgb(255, 255, 255) -1px -1px 1px, rgb(255, 255, 255) 1px -1px 1px, rgb(255, 255, 255) -1px 1px 1px; white-space: pre;">mat2vec</text></g><g class="sankey-node" transform="translate(0.000,188.294)" style="opacity: 1;"><rect class="node-rect" width="20" height="12.857951329937748" style="stroke-width: 0.5; stroke: rgb(68, 68, 68); stroke-opacity: 1; fill: rgb(247, 178, 103); fill-opacity: 1;"/><text class="node-label" data-notex="1" x="0" y="0" text-anchor="start" transform="translate(23.25,10.628975664968873)" style="cursor: default; font-family: 'Open Sans', verdana, arial, sans-serif; font-size: 12px; fill: rgb(42, 63, 95); fill-opacity: 1; text-shadow: rgb(255, 255, 255) 1px 1px 1px, rgb(255, 255, 255) -1px -1px 1px, rgb(255, 255, 255) 1px -1px 1px, rgb(255, 255, 255) -1px 1px 1px; white-space: pre;">matbench-discovery</text></g><g class="sankey-node" transform="translate(0.000,39.458)" style="opacity: 1;"><rect class="node-rect" width="20" height="0.5" style="stroke-width: 0.5; stroke: rgb(68, 68, 68); stroke-opacity: 1; fill: rgb(247, 178, 103); fill-opacity: 1;"/><text class="node-label" data-notex="1" x="0" y="0" text-anchor="start" transform="translate(23.25,4.449999999999999)" style="cursor: default; font-family: 'Open Sans', verdana, arial, sans-serif; font-size: 12px; fill: rgb(42, 63, 95); fill-opacity: 1; text-shadow: rgb(255, 255, 255) 1px 1px 1px, rgb(255, 255, 255) -1px -1px 1px, rgb(255, 255, 255) 1px -1px 1px, rgb(255, 255, 255) -1px 1px 1px; white-space: pre;">materials</text></g><g class="sankey-node" transform="translate(0.000,240.013)" style="opacity: 1;"><rect class="node-rect" width="20" height="2.444821731748732" style="stroke-width: 0.5; stroke: rgb(68, 68, 68); stroke-opacity: 1; fill: rgb(247, 178, 103); fill-opacity: 1;"/><text class="node-label" data-notex="1" x="0" y="0" text-anchor="start" transform="translate(23.25,5.422410865874365)" style="cursor: default; font-family: 'Open Sans', verdana, arial, sans-serif; font-size: 12px; fill: rgb(42, 63, 95); fill-opacity: 1; text-shadow: rgb(255, 255, 255) 1px 1px 1px, rgb(255, 255, 255) -1px -1px 1px, rgb(255, 255, 255) 1px -1px 1px, rgb(255, 255, 255) -1px 1px 1px; white-space: pre;">materials_discovery</text></g><g class="sankey-node" transform="translate(0.000,269.186)" style="opacity: 1;"><rect class="node-rect" width="20" height="20.28296547821168" style="stroke-width: 0.5; stroke: rgb(68, 68, 68); stroke-opacity: 1; fill: rgb(247, 178, 103); fill-opacity: 1;"/><text class="node-label" data-notex="1" x="0" y="0" text-anchor="start" transform="translate(23.25,14.341482739105839)" style="cursor: default; font-family: 'Open Sans', verdana, arial, sans-serif; font-size: 12px; fill: rgb(42, 63, 95); fill-opacity: 1; text-shadow: rgb(255, 255, 255) 1px 1px 1px, rgb(255, 255, 255) -1px -1px 1px, rgb(255, 255, 255) 1px -1px 1px, rgb(255, 255, 255) -1px 1px 1px; white-space: pre;">matgenb</text></g><g class="sankey-node" transform="translate(0.000,94.581)" style="opacity: 1;"><rect class="node-rect" width="20" height="5.614035087719287" style="stroke-width: 0.5; stroke: rgb(68, 68, 68); stroke-opacity: 1; fill: rgb(247, 178, 103); fill-opacity: 1;"/><text class="node-label" data-notex="1" x="0" y="0" text-anchor="start" transform="translate(23.25,7.007017543859643)" style="cursor: default; font-family: 'Open Sans', verdana, arial, sans-serif; font-size: 12px; fill: rgb(42, 63, 95); fill-opacity: 1; text-shadow: rgb(255, 255, 255) 1px 1px 1px, rgb(255, 255, 255) -1px -1px 1px, rgb(255, 255, 255) 1px -1px 1px, rgb(255, 255, 255) -1px 1px 1px; white-space: pre;">matgl</text></g><g class="sankey-node" transform="translate(0.000,112.744)" style="opacity: 1;"><rect class="node-rect" width="20" height="2.263723825693262" style="stroke-width: 0.5; stroke: rgb(68, 68, 68); stroke-opacity: 1; fill: rgb(247, 178, 103); fill-opacity: 1;"/><text class="node-label" data-notex="1" x="0" y="0" text-anchor="start" transform="translate(23.25,5.33186191284663)" style="cursor: default; font-family: 'Open Sans', verdana, arial, sans-serif; font-size: 12px; fill: rgb(42, 63, 95); fill-opacity: 1; text-shadow: rgb(255, 255, 255) 1px 1px 1px, rgb(255, 255, 255) -1px -1px 1px, rgb(255, 255, 255) 1px -1px 1px, rgb(255, 255, 255) -1px 1px 1px; white-space: pre;">matsciml</text></g><g class="sankey-node" transform="translate(0.000,319.276)" style="opacity: 1;"><rect class="node-rect" width="20" height="0.7243916242218802" style="stroke-width: 0.5; stroke: rgb(68, 68, 68); stroke-opacity: 1; fill: rgb(247, 178, 103); fill-opacity: 1;"/><text class="node-label" data-notex="1" x="0" y="0" text-anchor="start" transform="translate(23.25,4.562195812110939)" style="cursor: default; font-family: 'Open Sans', verdana, arial, sans-serif; font-size: 12px; fill: rgb(42, 63, 95); fill-opacity: 1; text-shadow: rgb(255, 255, 255) 1px 1px 1px, rgb(255, 255, 255) -1px -1px 1px, rgb(255, 255, 255) 1px -1px 1px, rgb(255, 255, 255) -1px 1px 1px; white-space: pre;">mattersim</text></g><g class="sankey-node" transform="translate(0.000,151.606)" style="opacity: 1;"><rect class="node-rect" width="20" height="0.7243916242218233" style="stroke-width: 0.5; stroke: rgb(68, 68, 68); stroke-opacity: 1; fill: rgb(247, 178, 103); fill-opacity: 1;"/><text class="node-label" data-notex="1" x="0" y="0" text-anchor="start" transform="translate(23.25,4.562195812110911)" style="cursor: default; font-family: 'Open Sans', verdana, arial, sans-serif; font-size: 12px; fill: rgb(42, 63, 95); fill-opacity: 1; text-shadow: rgb(255, 255, 255) 1px 1px 1px, rgb(255, 255, 255) -1px -1px 1px, rgb(255, 255, 255) 1px -1px 1px, rgb(255, 255, 255) -1px 1px 1px; white-space: pre;">megnet</text></g><g class="sankey-node" transform="translate(0.000,52.098)" style="opacity: 1;"><rect class="node-rect" width="20" height="14.578381437464714" style="stroke-width: 0.5; stroke: rgb(68, 68, 68); stroke-opacity: 1; fill: rgb(247, 178, 103); fill-opacity: 1;"/><text class="node-label" data-notex="1" x="0" y="0" text-anchor="start" transform="translate(23.25,11.489190718732356)" style="cursor: default; font-family: 'Open Sans', verdana, arial, sans-serif; font-size: 12px; fill: rgb(42, 63, 95); fill-opacity: 1; text-shadow: rgb(255, 255, 255) 1px 1px 1px, rgb(255, 255, 255) -1px -1px 1px, rgb(255, 255, 255) 1px -1px 1px, rgb(255, 255, 255) -1px 1px 1px; white-space: pre;">pymatviz</text></g><g class="sankey-node" transform="translate(0.000,302.018)" style="opacity: 1;"><rect class="node-rect" width="20" height="4.708545557441994" style="stroke-width: 0.5; stroke: rgb(68, 68, 68); stroke-opacity: 1; fill: rgb(247, 178, 103); fill-opacity: 1;"/><text class="node-label" data-notex="1" x="0" y="0" text-anchor="start" transform="translate(23.25,6.554272778720996)" style="cursor: default; font-family: 'Open Sans', verdana, arial, sans-serif; font-size: 12px; fill: rgb(42, 63, 95); fill-opacity: 1; text-shadow: rgb(255, 255, 255) 1px 1px 1px, rgb(255, 255, 255) -1px -1px 1px, rgb(255, 255, 255) 1px -1px 1px, rgb(255, 255, 255) -1px 1px 1px; white-space: pre;">quacc</text></g><g class="sankey-node" transform="translate(520.000,179.276)" style="opacity: 1;"><rect class="node-rect" width="20" height="18.653084323712505" style="stroke-width: 0.5; stroke: rgb(68, 68, 68); stroke-opacity: 1; fill: rgb(108, 91, 123); fill-opacity: 1;"/><text class="node-label" data-notex="1" x="0" y="0" text-anchor="end" transform="translate(-3.25,13.526542161856252)" style="cursor: default; font-family: 'Open Sans', verdana, arial, sans-serif; font-size: 12px; fill: rgb(42, 63, 95); fill-opacity: 1; text-shadow: rgb(255, 255, 255) 1px 1px 1px, rgb(255, 255, 255) -1px -1px 1px, rgb(255, 255, 255) 1px -1px 1px, rgb(255, 255, 255) -1px 1px 1px; white-space: pre;">pymatgen.analysis</text></g><g class="sankey-node" transform="translate(520.000,319.819)" style="opacity: 1;"><rect class="node-rect" width="20" height="0.5" style="stroke-width: 0.5; stroke: rgb(68, 68, 68); stroke-opacity: 1; fill: rgb(160, 160, 160); fill-opacity: 1;"/><text class="node-label" data-notex="1" x="0" y="0" text-anchor="end" transform="translate(-3.25,4.449999999999999)" style="cursor: default; font-family: 'Open Sans', verdana, arial, sans-serif; font-size: 12px; fill: rgb(42, 63, 95); fill-opacity: 1; text-shadow: rgb(255, 255, 255) 1px 1px 1px, rgb(255, 255, 255) -1px -1px 1px, rgb(255, 255, 255) 1px -1px 1px, rgb(255, 255, 255) -1px 1px 1px; white-space: pre;">pymatgen.command_line</text></g><g class="sankey-node" transform="translate(520.000,87.934)" style="opacity: 1;"><rect class="node-rect" width="20" height="47.628749292586235" style="stroke-width: 0.5; stroke: rgb(68, 68, 68); stroke-opacity: 1; fill: rgb(59, 156, 156); fill-opacity: 1;"/><text class="node-label" data-notex="1" x="0" y="0" text-anchor="end" transform="translate(-3.25,28.014374646293117)" style="cursor: default; font-family: 'Open Sans', verdana, arial, sans-serif; font-size: 12px; fill: rgb(42, 63, 95); fill-opacity: 1; text-shadow: rgb(255, 255, 255) 1px 1px 1px, rgb(255, 255, 255) -1px -1px 1px, rgb(255, 255, 255) 1px -1px 1px, rgb(255, 255, 255) -1px 1px 1px; white-space: pre;">pymatgen.core</text></g><g class="sankey-node" transform="translate(520.000,288.473)" style="opacity: 1;"><rect class="node-rect" width="20" height="5.614035087719344" style="stroke-width: 0.5; stroke: rgb(68, 68, 68); stroke-opacity: 1; fill: rgb(246, 114, 128); fill-opacity: 1;"/><text class="node-label" data-notex="1" x="0" y="0" text-anchor="end" transform="translate(-3.25,7.007017543859671)" style="cursor: default; font-family: 'Open Sans', verdana, arial, sans-serif; font-size: 12px; fill: rgb(42, 63, 95); fill-opacity: 1; text-shadow: rgb(255, 255, 255) 1px 1px 1px, rgb(255, 255, 255) -1px -1px 1px, rgb(255, 255, 255) 1px -1px 1px, rgb(255, 255, 255) -1px 1px 1px; white-space: pre;">pymatgen.electronic_structure</text></g><g class="sankey-node" transform="translate(520.000,225.382)" style="opacity: 1;"><rect class="node-rect" width="20" height="7.153367289190726" style="stroke-width: 0.5; stroke: rgb(68, 68, 68); stroke-opacity: 1; fill: rgb(153, 184, 152); fill-opacity: 1;"/><text class="node-label" data-notex="1" x="0" y="0" text-anchor="end" transform="translate(-3.25,7.776683644595362)" style="cursor: default; font-family: 'Open Sans', verdana, arial, sans-serif; font-size: 12px; fill: rgb(42, 63, 95); fill-opacity: 1; text-shadow: rgb(255, 255, 255) 1px 1px 1px, rgb(255, 255, 255) -1px -1px 1px, rgb(255, 255, 255) 1px -1px 1px, rgb(255, 255, 255) -1px 1px 1px; white-space: pre;">pymatgen.entries</text></g><g class="sankey-node" transform="translate(520.000,245.084)" style="opacity: 1;"><rect class="node-rect" width="20" height="2.9881154499150853" style="stroke-width: 0.5; stroke: rgb(68, 68, 68); stroke-opacity: 1; fill: rgb(232, 74, 95); fill-opacity: 1;"/><text class="node-label" data-notex="1" x="0" y="0" text-anchor="end" transform="translate(-3.25,5.694057724957542)" style="cursor: default; font-family: 'Open Sans', verdana, arial, sans-serif; font-size: 12px; fill: rgb(42, 63, 95); fill-opacity: 1; text-shadow: rgb(255, 255, 255) 1px 1px 1px, rgb(255, 255, 255) -1px -1px 1px, rgb(255, 255, 255) 1px -1px 1px, rgb(255, 255, 255) -1px 1px 1px; white-space: pre;">pymatgen.ext</text></g><g class="sankey-node" transform="translate(520.000,260.621)" style="opacity: 1;"><rect class="node-rect" width="20" height="15.30277306168648" style="stroke-width: 0.5; stroke: rgb(68, 68, 68); stroke-opacity: 1; fill: rgb(53, 92, 125); fill-opacity: 1;"/><text class="node-label" data-notex="1" x="0" y="0" text-anchor="end" transform="translate(-3.25,11.85138653084324)" style="cursor: default; font-family: 'Open Sans', verdana, arial, sans-serif; font-size: 12px; fill: rgb(42, 63, 95); fill-opacity: 1; text-shadow: rgb(255, 255, 255) 1px 1px 1px, rgb(255, 255, 255) -1px -1px 1px, rgb(255, 255, 255) 1px -1px 1px, rgb(255, 255, 255) -1px 1px 1px; white-space: pre;">pymatgen.io</text></g><g class="sankey-node" transform="translate(520.000,148.111)" style="opacity: 1;"><rect class="node-rect" width="20" height="0.6338426711940883" style="stroke-width: 0.5; stroke: rgb(68, 68, 68); stroke-opacity: 1; fill: rgb(255, 170, 165); fill-opacity: 1;"/><text class="node-label" data-notex="1" x="0" y="0" text-anchor="end" transform="translate(-3.25,4.5169213355970435)" style="cursor: default; font-family: 'Open Sans', verdana, arial, sans-serif; font-size: 12px; fill: rgb(42, 63, 95); fill-opacity: 1; text-shadow: rgb(255, 255, 255) 1px 1px 1px, rgb(255, 255, 255) -1px -1px 1px, rgb(255, 255, 255) 1px -1px 1px, rgb(255, 255, 255) -1px 1px 1px; white-space: pre;">pymatgen.optimization</text></g><g class="sankey-node" transform="translate(520.000,59.342)" style="opacity: 1;"><rect class="node-rect" width="20" height="0.5" style="stroke-width: 0.5; stroke: rgb(68, 68, 68); stroke-opacity: 1; fill: rgb(168, 230, 207); fill-opacity: 1;"/><text class="node-label" data-notex="1" x="0" y="0" text-anchor="end" transform="translate(-3.25,4.449999999999999)" style="cursor: default; font-family: 'Open Sans', verdana, arial, sans-serif; font-size: 12px; fill: rgb(42, 63, 95); fill-opacity: 1; text-shadow: rgb(255, 255, 255) 1px 1px 1px, rgb(255, 255, 255) -1px -1px 1px, rgb(255, 255, 255) 1px -1px 1px, rgb(255, 255, 255) -1px 1px 1px; white-space: pre;">pymatgen.phonon</text></g><g class="sankey-node" transform="translate(520.000,161.294)" style="opacity: 1;"><rect class="node-rect" width="20" height="5.432937181663817" style="stroke-width: 0.5; stroke: rgb(68, 68, 68); stroke-opacity: 1; fill: rgb(255, 211, 182); fill-opacity: 1;"/><text class="node-label" data-notex="1" x="0" y="0" text-anchor="end" transform="translate(-3.25,6.916468590831908)" style="cursor: default; font-family: 'Open Sans', verdana, arial, sans-serif; font-size: 12px; fill: rgb(42, 63, 95); fill-opacity: 1; text-shadow: rgb(255, 255, 255) 1px 1px 1px, rgb(255, 255, 255) -1px -1px 1px, rgb(255, 255, 255) 1px -1px 1px, rgb(255, 255, 255) -1px 1px 1px; white-space: pre;">pymatgen.symmetry</text></g><g class="sankey-node" transform="translate(520.000,306.636)" style="opacity: 1;"><rect class="node-rect" width="20" height="0.6338426711940883" style="stroke-width: 0.5; stroke: rgb(68, 68, 68); stroke-opacity: 1; fill: rgb(192, 108, 132); fill-opacity: 1;"/><text class="node-label" data-notex="1" x="0" y="0" text-anchor="end" transform="translate(-3.25,4.5169213355970435)" style="cursor: default; font-family: 'Open Sans', verdana, arial, sans-serif; font-size: 12px; fill: rgb(42, 63, 95); fill-opacity: 1; text-shadow: rgb(255, 255, 255) 1px 1px 1px, rgb(255, 255, 255) -1px -1px 1px, rgb(255, 255, 255) 1px -1px 1px, rgb(255, 255, 255) -1px 1px 1px; white-space: pre;">pymatgen.transformations</text></g><g class="sankey-node" transform="translate(520.000,210.478)" style="opacity: 1;"><rect class="node-rect" width="20" height="2.354272778720997" style="stroke-width: 0.5; stroke: rgb(68, 68, 68); stroke-opacity: 1; fill: rgb(255, 139, 148); fill-opacity: 1;"/><text class="node-label" data-notex="1" x="0" y="0" text-anchor="end" transform="translate(-3.25,5.377136389360498)" style="cursor: default; font-family: 'Open Sans', verdana, arial, sans-serif; font-size: 12px; fill: rgb(42, 63, 95); fill-opacity: 1; text-shadow: rgb(255, 255, 255) 1px 1px 1px, rgb(255, 255, 255) -1px -1px 1px, rgb(255, 255, 255) 1px -1px 1px, rgb(255, 255, 255) -1px 1px 1px; white-space: pre;">pymatgen.util</text></g></g></g><defs id="topdefs-fc382d"><g class="clips"/></defs><g class="layer-above"><g class="imagelayer"/><g class="shapelayer"/></g><g class="infolayer"><g class="g-gtitle"><text class="gtitle" x="35" y="50" text-anchor="start" dy="0em" style="opacity: 1; font-family: 'Open Sans', verdana, arial, sans-serif; font-size: 17px; fill: rgb(42, 63, 95); fill-opacity: 1; white-space: pre;">Downstream Repositories' Usage of pymatgen Submodules</text></g><g class="first-render"/></g></svg>
