<svg class="main-svg" xmlns="http://www.w3.org/2000/svg" xmlns:xlink="http://www.w3.org/1999/xlink" width="700" height="500" style="" viewBox="0 0 700 500"><rect x="0" y="0" width="700" height="500" style="fill: rgb(255, 255, 255); fill-opacity: 1;"/><defs id="defs-ddf48d"><g class="clips"/><g class="gradients"/><g class="patterns"/></defs><g class="bglayer"/><g class="layer-below"><g class="imagelayer"/><g class="shapelayer"/></g><g class="cartesianlayer"/><g class="polarlayer"/><g class="smithlayer"/><g class="ternarylayer"/><g class="geolayer"/><g class="funnelarealayer"/><g class="pielayer"/><g class="iciclelayer"/><g class="treemaplayer"/><g class="sunburstlayer"/><g class="glimages"/><g class="sankey" transform="translate(80,100)matrix(1 0 0 1 0 0)" style="box-sizing: content-box; position: absolute; left: 0px; shape-rendering: geometricprecision; pointer-events: none;"><g class="sankey-links" style="fill: none;"><path class="sankey-link" d="M20,94.4753285929757C10,94.4753285929757 10,304.50333979745744 0,304.50333979745744L0,305.3996983408748C10,305.3996983408748 10,95.37168713639306 20,95.37168713639306Z" style="stroke: rgb(0, 0, 0); stroke-opacity: 0.2; fill: rgb(0, 0, 0); fill-opacity: 0.2; stroke-width: 1; opacity: 1;"/><path class="sankey-link" d="M20,30.721827192415418C10,30.721827192415418 10,302.7106227106227 0,302.7106227106227L0,304.50333979745744C10,304.50333979745744 10,32.51454427925015 20,32.51454427925015Z" style="stroke: rgb(68, 68, 68); stroke-opacity: 1; fill: rgb(0, 0, 0); fill-opacity: 0.2; stroke-width: 0; opacity: 1;"/><path class="sankey-link" d="M20,155.8198664081018C10,155.8198664081018 10,305.3996983408748 0,305.3996983408748L0,305.7358327946563C10,305.7358327946563 10,156.15600086188334 20,156.15600086188334Z" style="stroke: rgb(0, 0, 0); stroke-opacity: 0.2; fill: rgb(0, 0, 0); fill-opacity: 0.2; stroke-width: 1; opacity: 1;"/><path class="sankey-link" d="M20,238.340874811463C10,238.340874811463 10,337.38849385908213 0,337.38849385908213L0,338.5089420383539C10,338.5089420383539 10,239.46132299073471 20,239.46132299073471Z" style="stroke: rgb(68, 68, 68); stroke-opacity: 1; fill: rgb(0, 0, 0); fill-opacity: 0.2; stroke-width: 0; opacity: 1;"/><path class="sankey-link" d="M20,282.03835380305975C10,282.03835380305975 10,338.50894203835384 0,338.50894203835384L0,339.1812109459169C10,339.1812109459169 10,282.71062271062283 20,282.71062271062283Z" style="stroke: rgb(0, 0, 0); stroke-opacity: 0.2; fill: rgb(0, 0, 0); fill-opacity: 0.2; stroke-width: 1; opacity: 1;"/><path class="sankey-link" d="M20,156.1560008618833C10,156.1560008618833 10,327.97672915319976 0,327.97672915319976L0,335.48373195432015C10,335.48373195432015 10,163.66300366300376 20,163.66300366300376Z" style="stroke: rgb(68, 68, 68); stroke-opacity: 1; fill: rgb(0, 0, 0); fill-opacity: 0.2; stroke-width: 0; opacity: 1;"/><path class="sankey-link" d="M20,193.6349924585218C10,193.6349924585218 10,335.4837319543202 0,335.4837319543202L0,337.38849385908213C10,337.38849385908213 10,195.53975436328372 20,195.53975436328372Z" style="stroke: rgb(68, 68, 68); stroke-opacity: 1; fill: rgb(0, 0, 0); fill-opacity: 0.2; stroke-width: 0; opacity: 1;"/><path class="sankey-link" d="M20,63.831070889894434C10,63.831070889894434 10,326.29605688429217 0,326.29605688429217L0,327.9767291531997C10,327.9767291531997 10,65.51174315880199 20,65.51174315880199Z" style="stroke: rgb(68, 68, 68); stroke-opacity: 1; fill: rgb(0, 0, 0); fill-opacity: 0.2; stroke-width: 0; opacity: 1;"/><path class="sankey-link" d="M20,32.51454427925015C10,32.51454427925015 10,325.7358327946563 0,325.7358327946563L0,326.29605688429217C10,326.29605688429217 10,33.074768368886005 20,33.074768368886005Z" style="stroke: rgb(0, 0, 0); stroke-opacity: 0.2; fill: rgb(0, 0, 0); fill-opacity: 0.2; stroke-width: 1; opacity: 1;"/><path class="sankey-link" d="M20,163.66300366300376C10,163.66300366300376 10,359.29325576384394 0,359.29325576384394L0,359.8534798534798C10,359.8534798534798 10,164.22322775263964 20,164.22322775263964Z" style="stroke: rgb(0, 0, 0); stroke-opacity: 0.2; fill: rgb(0, 0, 0); fill-opacity: 0.2; stroke-width: 1; opacity: 1;"/><path class="sankey-link" d="M20,217.1083818142641C10,217.1083818142641 10,359.8534798534798 0,359.8534798534798L0,359.965524671407C10,359.965524671407 10,217.2204266321913 20,217.2204266321913Z" style="stroke: rgb(0, 0, 0); stroke-opacity: 0.2; fill: rgb(0, 0, 0); fill-opacity: 0.2; stroke-width: 1; opacity: 1;"/><path class="sankey-link" d="M20,259.57336780866194C10,259.57336780866194 10,359.965524671407 0,359.965524671407L0,360.0775694893342C10,360.0775694893342 10,259.68541262658914 20,259.68541262658914Z" style="stroke: rgb(0, 0, 0); stroke-opacity: 0.2; fill: rgb(0, 0, 0); fill-opacity: 0.2; stroke-width: 1; opacity: 1;"/><path class="sankey-link" d="M20,65.51174315880199C10,65.51174315880199 10,359.18121094591675 0,359.18121094591675L0,359.29325576384394C10,359.29325576384394 10,65.62378797672916 20,65.62378797672916Z" style="stroke: rgb(0, 0, 0); stroke-opacity: 0.2; fill: rgb(0, 0, 0); fill-opacity: 0.2; stroke-width: 1; opacity: 1;"/><path class="sankey-link" d="M20,164.22322775263962C10,164.22322775263962 10,380.74983839689713 0,380.74983839689713L0,385.79185520361983C10,385.79185520361983 10,169.26524455936232 20,169.26524455936232Z" style="stroke: rgb(68, 68, 68); stroke-opacity: 1; fill: rgb(0, 0, 0); fill-opacity: 0.2; stroke-width: 0; opacity: 1;"/><path class="sankey-link" d="M20,65.62378797672916C10,65.62378797672916 10,380.0775694893341 0,380.0775694893341L0,380.7498383968972C10,380.7498383968972 10,66.29605688429218 20,66.29605688429218Z" style="stroke: rgb(0, 0, 0); stroke-opacity: 0.2; fill: rgb(0, 0, 0); fill-opacity: 0.2; stroke-width: 1; opacity: 1;"/><path class="sankey-link" d="M20,217.22042663219128C10,217.22042663219128 10,386.2400344753285 0,386.2400344753285L0,386.6882137470372C10,386.6882137470372 10,217.66860590389996 20,217.66860590389996Z" style="stroke: rgb(0, 0, 0); stroke-opacity: 0.2; fill: rgb(0, 0, 0); fill-opacity: 0.2; stroke-width: 1; opacity: 1;"/><path class="sankey-link" d="M20,195.5397543632837C10,195.5397543632837 10,385.79185520361983 0,385.79185520361983L0,386.2400344753285C10,386.2400344753285 10,195.98793363499237 20,195.98793363499237Z" style="stroke: rgb(0, 0, 0); stroke-opacity: 0.2; fill: rgb(0, 0, 0); fill-opacity: 0.2; stroke-width: 1; opacity: 1;"/><path class="sankey-link" d="M20,259.68541262658914C10,259.68541262658914 10,386.6882137470372 0,386.6882137470372L0,387.0243482008187C10,387.0243482008187 10,260.0215470803706 20,260.0215470803706Z" style="stroke: rgb(0, 0, 0); stroke-opacity: 0.2; fill: rgb(0, 0, 0); fill-opacity: 0.2; stroke-width: 1; opacity: 1;"/><path class="sankey-link" d="M20,169.26524455936232C10,169.26524455936232 10,408.25684119801764 0,408.25684119801764L0,408.9291101055807C10,408.9291101055807 10,169.93751346692534 20,169.93751346692534Z" style="stroke: rgb(0, 0, 0); stroke-opacity: 0.2; fill: rgb(0, 0, 0); fill-opacity: 0.2; stroke-width: 1; opacity: 1;"/><path class="sankey-link" d="M20,66.29605688429218C10,66.29605688429218 10,407.13639301874593 0,407.13639301874593L0,408.2568411980177C10,408.2568411980177 10,67.41650506356389 20,67.41650506356389Z" style="stroke: rgb(68, 68, 68); stroke-opacity: 1; fill: rgb(0, 0, 0); fill-opacity: 0.2; stroke-width: 0; opacity: 1;"/><path class="sankey-link" d="M20,260.0215470803707C10,260.0215470803707 10,408.92911010558066 0,408.92911010558066L0,409.04115492350786C10,409.04115492350786 10,260.1335918982979 20,260.1335918982979Z" style="stroke: rgb(0, 0, 0); stroke-opacity: 0.2; fill: rgb(0, 0, 0); fill-opacity: 0.2; stroke-width: 1; opacity: 1;"/><path class="sankey-link" d="M20,33.074768368886005C10,33.074768368886005 10,407.02434820081874 0,407.02434820081874L0,407.13639301874593C10,407.13639301874593 10,33.186813186813175 20,33.186813186813175Z" style="stroke: rgb(0, 0, 0); stroke-opacity: 0.2; fill: rgb(0, 0, 0); fill-opacity: 0.2; stroke-width: 1; opacity: 1;"/><path class="sankey-link" d="M20,18.06076276664511C261.5,18.06076276664511 261.5,55.68627450980393 503,55.68627450980393L503,59.71988795518208C261.5,59.71988795518208 261.5,22.09437621202326 20,22.09437621202326Z" style="stroke: rgb(68, 68, 68); stroke-opacity: 1; fill: rgb(0, 0, 0); fill-opacity: 0.2; stroke-width: 0; opacity: 1;"/><path class="sankey-link" d="M20,129.93751346692534C261.5,129.93751346692534 261.5,60.504201680672274 503,60.504201680672274L503,67.3389355742297C261.5,67.3389355742297 261.5,136.77224736048277 20,136.77224736048277Z" style="stroke: rgb(68, 68, 68); stroke-opacity: 1; fill: rgb(0, 0, 0); fill-opacity: 0.2; stroke-width: 0; opacity: 1;"/><path class="sankey-link" d="M20,190.27364792070668C261.5,190.27364792070668 261.5,67.3389355742297 503,67.3389355742297L503,69.91596638655462C261.5,69.91596638655462 261.5,192.85067873303163 20,192.85067873303163Z" style="stroke: rgb(68, 68, 68); stroke-opacity: 1; fill: rgb(0, 0, 0); fill-opacity: 0.2; stroke-width: 0; opacity: 1;"/><path class="sankey-link" d="M20,280.3576815341521C261.5,280.3576815341521 261.5,69.91596638655463 503,69.91596638655463L503,70.0280112044818C261.5,70.0280112044818 261.5,280.4697263520793 20,280.4697263520793Z" style="stroke: rgb(0, 0, 0); stroke-opacity: 0.2; fill: rgb(0, 0, 0); fill-opacity: 0.2; stroke-width: 1; opacity: 1;"/><path class="sankey-link" d="M20,53.74703727644905C261.5,53.74703727644905 261.5,59.71988795518208 503,59.71988795518208L503,60.504201680672274C261.5,60.504201680672274 261.5,54.53135100193924 20,54.53135100193924Z" style="stroke: rgb(0, 0, 0); stroke-opacity: 0.2; fill: rgb(0, 0, 0); fill-opacity: 0.2; stroke-width: 1; opacity: 1;"/><path class="sankey-link" d="M20,115.37168713639312C261.5,115.37168713639312 261.5,20.224089635854327 503,20.224089635854327L503,34.789915966386545C261.5,34.789915966386545 261.5,129.93751346692534 20,129.93751346692534Z" style="stroke: rgb(68, 68, 68); stroke-opacity: 1; fill: rgb(0, 0, 0); fill-opacity: 0.2; stroke-width: 0; opacity: 1;"/><path class="sankey-link" d="M20,16.043956043956033C261.5,16.043956043956033 261.5,17.6470588235294 503,17.6470588235294L503,19.663865546218474C261.5,19.663865546218474 261.5,18.06076276664511 20,18.06076276664511Z" style="stroke: rgb(68, 68, 68); stroke-opacity: 1; fill: rgb(0, 0, 0); fill-opacity: 0.2; stroke-width: 0; opacity: 1;"/><path class="sankey-link" d="M20,215.9879336349924C261.5,215.9879336349924 261.5,35.126050420168056 503,35.126050420168056L503,35.3501400560224C261.5,35.3501400560224 261.5,216.21202327084674 20,216.21202327084674Z" style="stroke: rgb(0, 0, 0); stroke-opacity: 0.2; fill: rgb(0, 0, 0); fill-opacity: 0.2; stroke-width: 1; opacity: 1;"/><path class="sankey-link" d="M20,53.1868131868132C261.5,53.1868131868132 261.5,19.663865546218474 503,19.663865546218474L503,20.224089635854327C261.5,20.224089635854327 261.5,53.74703727644905 20,53.74703727644905Z" style="stroke: rgb(0, 0, 0); stroke-opacity: 0.2; fill: rgb(0, 0, 0); fill-opacity: 0.2; stroke-width: 1; opacity: 1;"/><path class="sankey-link" d="M20,280.13359189829777C261.5,280.13359189829777 261.5,35.46218487394957 503,35.46218487394957L503,35.68627450980391C261.5,35.68627450980391 261.5,280.35768153415216 20,280.35768153415216Z" style="stroke: rgb(0, 0, 0); stroke-opacity: 0.2; fill: rgb(0, 0, 0); fill-opacity: 0.2; stroke-width: 1; opacity: 1;"/><path class="sankey-link" d="M20,189.93751346692517C261.5,189.93751346692517 261.5,34.789915966386545 503,34.789915966386545L503,35.126050420168056C261.5,35.126050420168056 261.5,190.2736479207067 20,190.2736479207067Z" style="stroke: rgb(0, 0, 0); stroke-opacity: 0.2; fill: rgb(0, 0, 0); fill-opacity: 0.2; stroke-width: 1; opacity: 1;"/><path class="sankey-link" d="M20,259.46132299073474C261.5,259.46132299073474 261.5,35.3501400560224 503,35.3501400560224L503,35.46218487394957C261.5,35.46218487394957 261.5,259.57336780866194 20,259.57336780866194Z" style="stroke: rgb(0, 0, 0); stroke-opacity: 0.2; fill: rgb(0, 0, 0); fill-opacity: 0.2; stroke-width: 1; opacity: 1;"/><path class="sankey-link" d="M20,136.77224736048277C261.5,136.77224736048277 261.5,91.03641456582639 503,91.03641456582639L503,93.2773109243698C261.5,93.2773109243698 261.5,139.01314371902617 20,139.01314371902617Z" style="stroke: rgb(68, 68, 68); stroke-opacity: 1; fill: rgb(0, 0, 0); fill-opacity: 0.2; stroke-width: 0; opacity: 1;"/><path class="sankey-link" d="M20,22.09437621202326C261.5,22.09437621202326 261.5,90.02801120448186 503,90.02801120448186L503,91.03641456582639C261.5,91.03641456582639 261.5,23.1027795733678 20,23.1027795733678Z" style="stroke: rgb(68, 68, 68); stroke-opacity: 1; fill: rgb(0, 0, 0); fill-opacity: 0.2; stroke-width: 0; opacity: 1;"/><path class="sankey-link" d="M20,192.8506787330316C261.5,192.8506787330316 261.5,93.27731092436981 503,93.27731092436981L503,93.50140056022416C261.5,93.50140056022416 261.5,193.07476836888594 20,193.07476836888594Z" style="stroke: rgb(0, 0, 0); stroke-opacity: 0.2; fill: rgb(0, 0, 0); fill-opacity: 0.2; stroke-width: 1; opacity: 1;"/><path class="sankey-link" d="M20,54.53135100193924C261.5,54.53135100193924 261.5,114.2857142857143 503,114.2857142857143L503,117.75910364145659C261.5,117.75910364145659 261.5,58.00474035768154 20,58.00474035768154Z" style="stroke: rgb(68, 68, 68); stroke-opacity: 1; fill: rgb(0, 0, 0); fill-opacity: 0.2; stroke-width: 0; opacity: 1;"/><path class="sankey-link" d="M20,139.01314371902617C261.5,139.01314371902617 261.5,117.98319327731095 503,117.98319327731095L503,118.87955182072831C261.5,118.87955182072831 261.5,139.90950226244354 20,139.90950226244354Z" style="stroke: rgb(0, 0, 0); stroke-opacity: 0.2; fill: rgb(0, 0, 0); fill-opacity: 0.2; stroke-width: 1; opacity: 1;"/><path class="sankey-link" d="M20,87.41650506356393C261.5,87.41650506356393 261.5,117.7591036414566 503,117.7591036414566L503,117.98319327731095C261.5,117.98319327731095 261.5,87.64059469941827 20,87.64059469941827Z" style="stroke: rgb(0, 0, 0); stroke-opacity: 0.2; fill: rgb(0, 0, 0); fill-opacity: 0.2; stroke-width: 1; opacity: 1;"/><path class="sankey-link" d="M20,23.102779573367798C261.5,23.102779573367798 261.5,113.50140056022411 503,113.50140056022411L503,114.2857142857143C261.5,114.2857142857143 261.5,23.88709329885799 20,23.88709329885799Z" style="stroke: rgb(0, 0, 0); stroke-opacity: 0.2; fill: rgb(0, 0, 0); fill-opacity: 0.2; stroke-width: 1; opacity: 1;"/><path class="sankey-link" d="M20,193.07476836888594C261.5,193.07476836888594 261.5,118.87955182072831 503,118.87955182072831L503,119.10364145658265C261.5,119.10364145658265 261.5,193.29885800474028 20,193.29885800474028Z" style="stroke: rgb(0, 0, 0); stroke-opacity: 0.2; fill: rgb(0, 0, 0); fill-opacity: 0.2; stroke-width: 1; opacity: 1;"/><path class="sankey-link" d="M20,139.90950226244354C261.5,139.90950226244354 261.5,147.17086834733888 503,147.17086834733888L503,151.98879551820724C261.5,151.98879551820724 261.5,144.7274294333119 20,144.7274294333119Z" style="stroke: rgb(68, 68, 68); stroke-opacity: 1; fill: rgb(0, 0, 0); fill-opacity: 0.2; stroke-width: 0; opacity: 1;"/><path class="sankey-link" d="M20,87.64059469941827C261.5,87.64059469941827 261.5,146.16246498599435 503,146.16246498599435L503,147.1708683473389C261.5,147.1708683473389 261.5,88.6489980607628 20,88.6489980607628Z" style="stroke: rgb(68, 68, 68); stroke-opacity: 1; fill: rgb(0, 0, 0); fill-opacity: 0.2; stroke-width: 0; opacity: 1;"/><path class="sankey-link" d="M20,23.887093298857994C261.5,23.887093298857994 261.5,139.10364145658258 503,139.10364145658258L503,144.25770308123242C261.5,144.25770308123242 261.5,29.041154923507857 20,29.041154923507857Z" style="stroke: rgb(68, 68, 68); stroke-opacity: 1; fill: rgb(0, 0, 0); fill-opacity: 0.2; stroke-width: 0; opacity: 1;"/><path class="sankey-link" d="M20,216.21202327084674C261.5,216.21202327084674 261.5,152.1008403361344 503,152.1008403361344L503,152.88515406162463C261.5,152.88515406162463 261.5,216.99633699633696 20,216.99633699633696Z" style="stroke: rgb(0, 0, 0); stroke-opacity: 0.2; fill: rgb(0, 0, 0); fill-opacity: 0.2; stroke-width: 1; opacity: 1;"/><path class="sankey-link" d="M20,58.00474035768154C261.5,58.00474035768154 261.5,144.25770308123245 503,144.25770308123245L503,146.16246498599438C261.5,146.16246498599438 261.5,59.90950226244344 20,59.90950226244344Z" style="stroke: rgb(68, 68, 68); stroke-opacity: 1; fill: rgb(0, 0, 0); fill-opacity: 0.2; stroke-width: 0; opacity: 1;"/><path class="sankey-link" d="M20,280.4697263520793C261.5,280.4697263520793 261.5,153.55742296918763 503,153.55742296918763L503,154.78991596638653C261.5,154.78991596638653 261.5,281.70221934927815 20,281.70221934927815Z" style="stroke: rgb(68, 68, 68); stroke-opacity: 1; fill: rgb(0, 0, 0); fill-opacity: 0.2; stroke-width: 0; opacity: 1;"/><path class="sankey-link" d="M20,237.6686059039C261.5,237.6686059039 261.5,152.8851540616246 503,152.8851540616246L503,153.55742296918763C261.5,153.55742296918763 261.5,238.340874811463 20,238.340874811463Z" style="stroke: rgb(0, 0, 0); stroke-opacity: 0.2; fill: rgb(0, 0, 0); fill-opacity: 0.2; stroke-width: 1; opacity: 1;"/><path class="sankey-link" d="M20,193.29885800474028C261.5,193.29885800474028 261.5,151.98879551820724 503,151.98879551820724L503,152.10084033613444C261.5,152.10084033613444 261.5,193.41090282266748 20,193.41090282266748Z" style="stroke: rgb(0, 0, 0); stroke-opacity: 0.2; fill: rgb(0, 0, 0); fill-opacity: 0.2; stroke-width: 1; opacity: 1;"/><path class="sankey-link" d="M20,29.041154923507854C261.5,29.041154923507854 261.5,174.7899159663865 503,174.7899159663865L503,175.35014005602238C261.5,175.35014005602238 261.5,29.601379013143706 20,29.601379013143706Z" style="stroke: rgb(0, 0, 0); stroke-opacity: 0.2; fill: rgb(0, 0, 0); fill-opacity: 0.2; stroke-width: 1; opacity: 1;"/><path class="sankey-link" d="M20,144.7274294333119C261.5,144.7274294333119 261.5,183.86554621848734 503,183.86554621848734L503,190.8123249299719C261.5,190.8123249299719 261.5,151.67420814479647 20,151.67420814479647Z" style="stroke: rgb(68, 68, 68); stroke-opacity: 1; fill: rgb(0, 0, 0); fill-opacity: 0.2; stroke-width: 0; opacity: 1;"/><path class="sankey-link" d="M20,59.909502262443446C261.5,59.909502262443446 261.5,175.35014005602235 503,175.35014005602235L503,178.03921568627445C261.5,178.03921568627445 261.5,62.59857789269555 20,62.59857789269555Z" style="stroke: rgb(68, 68, 68); stroke-opacity: 1; fill: rgb(0, 0, 0); fill-opacity: 0.2; stroke-width: 0; opacity: 1;"/><path class="sankey-link" d="M20,88.6489980607628C261.5,88.6489980607628 261.5,178.03921568627445 503,178.03921568627445L503,183.8655462184873C261.5,183.8655462184873 261.5,94.4753285929757 20,94.4753285929757Z" style="stroke: rgb(68, 68, 68); stroke-opacity: 1; fill: rgb(0, 0, 0); fill-opacity: 0.2; stroke-width: 0; opacity: 1;"/><path class="sankey-link" d="M20,281.7022193492782C261.5,281.7022193492782 261.5,190.9243697478991 503,190.9243697478991L503,191.26050420168065C261.5,191.26050420168065 261.5,282.0383538030597 20,282.0383538030597Z" style="stroke: rgb(0, 0, 0); stroke-opacity: 0.2; fill: rgb(0, 0, 0); fill-opacity: 0.2; stroke-width: 1; opacity: 1;"/><path class="sankey-link" d="M20,216.99633699633694C261.5,216.99633699633694 261.5,190.81232492997194 503,190.81232492997194L503,190.92436974789914C261.5,190.92436974789914 261.5,217.10838181426413 20,217.10838181426413Z" style="stroke: rgb(0, 0, 0); stroke-opacity: 0.2; fill: rgb(0, 0, 0); fill-opacity: 0.2; stroke-width: 1; opacity: 1;"/><path class="sankey-link" d="M20,151.6742081447965C261.5,151.6742081447965 261.5,212.26890756302512 503,212.26890756302512L503,214.06162464985985C261.5,214.06162464985985 261.5,153.46692523163122 20,153.46692523163122Z" style="stroke: rgb(68, 68, 68); stroke-opacity: 1; fill: rgb(0, 0, 0); fill-opacity: 0.2; stroke-width: 0; opacity: 1;"/><path class="sankey-link" d="M20,29.60137901314371C261.5,29.60137901314371 261.5,211.2605042016806 503,211.2605042016806L503,212.0448179271708C261.5,212.0448179271708 261.5,30.385692738633903 20,30.385692738633903Z" style="stroke: rgb(0, 0, 0); stroke-opacity: 0.2; fill: rgb(0, 0, 0); fill-opacity: 0.2; stroke-width: 1; opacity: 1;"/><path class="sankey-link" d="M20,62.598577892695545C261.5,62.598577892695545 261.5,212.04481792717078 503,212.04481792717078L503,212.26890756302512C261.5,212.26890756302512 261.5,62.822667528549886 20,62.822667528549886Z" style="stroke: rgb(0, 0, 0); stroke-opacity: 0.2; fill: rgb(0, 0, 0); fill-opacity: 0.2; stroke-width: 1; opacity: 1;"/><path class="sankey-link" d="M20,153.46692523163122C261.5,153.46692523163122 261.5,235.40616246498593 503,235.40616246498593L503,237.75910364145653C261.5,237.75910364145653 261.5,155.81986640810183 20,155.81986640810183Z" style="stroke: rgb(68, 68, 68); stroke-opacity: 1; fill: rgb(0, 0, 0); fill-opacity: 0.2; stroke-width: 0; opacity: 1;"/><path class="sankey-link" d="M20,62.822667528549886C261.5,62.822667528549886 261.5,234.3977591036414 503,234.3977591036414L503,235.40616246498595C261.5,235.40616246498595 261.5,63.83107088989442 20,63.83107088989442Z" style="stroke: rgb(68, 68, 68); stroke-opacity: 1; fill: rgb(0, 0, 0); fill-opacity: 0.2; stroke-width: 0; opacity: 1;"/><path class="sankey-link" d="M20,30.385692738633907C261.5,30.385692738633907 261.5,234.06162464985988 503,234.06162464985988L503,234.39775910364142C261.5,234.39775910364142 261.5,30.721827192415418 20,30.721827192415418Z" style="stroke: rgb(0, 0, 0); stroke-opacity: 0.2; fill: rgb(0, 0, 0); fill-opacity: 0.2; stroke-width: 1; opacity: 1;"/><path class="sankey-link" d="M20,193.41090282266745C261.5,193.41090282266745 261.5,237.7591036414565 503,237.7591036414565L503,237.98319327731085C261.5,237.98319327731085 261.5,193.6349924585218 20,193.6349924585218Z" style="stroke: rgb(0, 0, 0); stroke-opacity: 0.2; fill: rgb(0, 0, 0); fill-opacity: 0.2; stroke-width: 1; opacity: 1;"/></g><g class="sankey-node-set" style="cursor: move;"><g class="sankey-node" transform="translate(0.000,115.372)" style="opacity: 1;"><rect class="node-rect" width="20" height="54.56582633053205" style="stroke-width: 0.5; stroke: rgb(68, 68, 68); stroke-opacity: 1; fill: rgb(99, 110, 250); fill-opacity: 0.8;"/><text class="node-label" data-notex="1" x="0" y="0" text-anchor="start" transform="translate(23.25,32.882913165266025)" style="cursor: default; font-family: 'Open Sans', verdana, arial, sans-serif; font-size: 16px; fill: rgb(42, 63, 95); fill-opacity: 1; text-shadow: rgb(255, 255, 255) 1px 1px 1px, rgb(255, 255, 255) -1px -1px 1px, rgb(255, 255, 255) 1px -1px 1px, rgb(255, 255, 255) -1px 1px 1px; white-space: pre;">pymatgen.core</text></g><g class="sankey-node" transform="translate(0.000,16.044)" style="opacity: 1;"><rect class="node-rect" width="20" height="17.142857142857164" style="stroke-width: 0.5; stroke: rgb(68, 68, 68); stroke-opacity: 1; fill: rgb(239, 85, 59); fill-opacity: 0.8;"/><text class="node-label" data-notex="1" x="0" y="0" text-anchor="start" transform="translate(23.25,14.171428571428581)" style="cursor: default; font-family: 'Open Sans', verdana, arial, sans-serif; font-size: 16px; fill: rgb(42, 63, 95); fill-opacity: 1; text-shadow: rgb(255, 255, 255) 1px 1px 1px, rgb(255, 255, 255) -1px -1px 1px, rgb(255, 255, 255) 1px -1px 1px, rgb(255, 255, 255) -1px 1px 1px; white-space: pre;">pymatgen.analysis</text></g><g class="sankey-node" transform="translate(0.000,53.187)" style="opacity: 1;"><rect class="node-rect" width="20" height="14.229691876750735" style="stroke-width: 0.5; stroke: rgb(68, 68, 68); stroke-opacity: 1; fill: rgb(0, 204, 150); fill-opacity: 0.8;"/><text class="node-label" data-notex="1" x="0" y="0" text-anchor="start" transform="translate(23.25,12.714845938375367)" style="cursor: default; font-family: 'Open Sans', verdana, arial, sans-serif; font-size: 16px; fill: rgb(42, 63, 95); fill-opacity: 1; text-shadow: rgb(255, 255, 255) 1px 1px 1px, rgb(255, 255, 255) -1px -1px 1px, rgb(255, 255, 255) 1px -1px 1px, rgb(255, 255, 255) -1px 1px 1px; white-space: pre;">pymatgen.io</text></g><g class="sankey-node" transform="translate(0.000,87.417)" style="opacity: 1;"><rect class="node-rect" width="20" height="7.955182072829189" style="stroke-width: 0.5; stroke: rgb(68, 68, 68); stroke-opacity: 1; fill: rgb(171, 99, 250); fill-opacity: 0.8;"/><text class="node-label" data-notex="1" x="0" y="0" text-anchor="start" transform="translate(23.25,9.577591036414594)" style="cursor: default; font-family: 'Open Sans', verdana, arial, sans-serif; font-size: 16px; fill: rgb(42, 63, 95); fill-opacity: 1; text-shadow: rgb(255, 255, 255) 1px 1px 1px, rgb(255, 255, 255) -1px -1px 1px, rgb(255, 255, 255) 1px -1px 1px, rgb(255, 255, 255) -1px 1px 1px; white-space: pre;">pymatgen.entries</text></g><g class="sankey-node" transform="translate(0.000,189.938)" style="opacity: 1;"><rect class="node-rect" width="20" height="6.050420168067234" style="stroke-width: 0.5; stroke: rgb(68, 68, 68); stroke-opacity: 1; fill: rgb(255, 161, 90); fill-opacity: 0.8;"/><text class="node-label" data-notex="1" x="0" y="0" text-anchor="start" transform="translate(23.25,8.625210084033617)" style="cursor: default; font-family: 'Open Sans', verdana, arial, sans-serif; font-size: 16px; fill: rgb(42, 63, 95); fill-opacity: 1; text-shadow: rgb(255, 255, 255) 1px 1px 1px, rgb(255, 255, 255) -1px -1px 1px, rgb(255, 255, 255) 1px -1px 1px, rgb(255, 255, 255) -1px 1px 1px; white-space: pre;">pymatgen.symmetry</text></g><g class="sankey-node" transform="translate(0.000,215.988)" style="opacity: 1;"><rect class="node-rect" width="20" height="1.6806722689075855" style="stroke-width: 0.5; stroke: rgb(68, 68, 68); stroke-opacity: 1; fill: rgb(25, 211, 243); fill-opacity: 0.8;"/><text class="node-label" data-notex="1" x="0" y="0" text-anchor="start" transform="translate(23.25,6.440336134453792)" style="cursor: default; font-family: 'Open Sans', verdana, arial, sans-serif; font-size: 16px; fill: rgb(42, 63, 95); fill-opacity: 1; text-shadow: rgb(255, 255, 255) 1px 1px 1px, rgb(255, 255, 255) -1px -1px 1px, rgb(255, 255, 255) 1px -1px 1px, rgb(255, 255, 255) -1px 1px 1px; white-space: pre;">pymatgen.ext</text></g><g class="sankey-node" transform="translate(0.000,237.669)" style="opacity: 1;"><rect class="node-rect" width="20" height="1.7927170868347275" style="stroke-width: 0.5; stroke: rgb(68, 68, 68); stroke-opacity: 1; fill: rgb(255, 102, 146); fill-opacity: 0.8;"/><text class="node-label" data-notex="1" x="0" y="0" text-anchor="start" transform="translate(23.25,6.496358543417363)" style="cursor: default; font-family: 'Open Sans', verdana, arial, sans-serif; font-size: 16px; fill: rgb(42, 63, 95); fill-opacity: 1; text-shadow: rgb(255, 255, 255) 1px 1px 1px, rgb(255, 255, 255) -1px -1px 1px, rgb(255, 255, 255) 1px -1px 1px, rgb(255, 255, 255) -1px 1px 1px; white-space: pre;">pymatgen.electronic_structure</text></g><g class="sankey-node" transform="translate(0.000,259.461)" style="opacity: 1;"><rect class="node-rect" width="20" height="0.6722689075630228" style="stroke-width: 0.5; stroke: rgb(68, 68, 68); stroke-opacity: 1; fill: rgb(254, 203, 82); fill-opacity: 0.8;"/><text class="node-label" data-notex="1" x="0" y="0" text-anchor="start" transform="translate(23.25,5.936134453781511)" style="cursor: default; font-family: 'Open Sans', verdana, arial, sans-serif; font-size: 16px; fill: rgb(42, 63, 95); fill-opacity: 1; text-shadow: rgb(255, 255, 255) 1px 1px 1px, rgb(255, 255, 255) -1px -1px 1px, rgb(255, 255, 255) 1px -1px 1px, rgb(255, 255, 255) -1px 1px 1px; white-space: pre;">pymatgen.optimization</text></g><g class="sankey-node" transform="translate(0.000,280.134)" style="opacity: 1;"><rect class="node-rect" width="20" height="2.5770308123249492" style="stroke-width: 0.5; stroke: rgb(68, 68, 68); stroke-opacity: 1; fill: rgb(99, 110, 250); fill-opacity: 0.8;"/><text class="node-label" data-notex="1" x="0" y="0" text-anchor="start" transform="translate(23.25,6.888515406162474)" style="cursor: default; font-family: 'Open Sans', verdana, arial, sans-serif; font-size: 16px; fill: rgb(42, 63, 95); fill-opacity: 1; text-shadow: rgb(255, 255, 255) 1px 1px 1px, rgb(255, 255, 255) -1px -1px 1px, rgb(255, 255, 255) 1px -1px 1px, rgb(255, 255, 255) -1px 1px 1px; white-space: pre;">pymatgen.util</text></g><g class="sankey-node" transform="translate(0.000,302.711)" style="opacity: 1;"><rect class="node-rect" width="20" height="3.0252100840335743" style="stroke-width: 0.5; stroke: rgb(68, 68, 68); stroke-opacity: 1; fill: rgb(255, 161, 90); fill-opacity: 0.8;"/><text class="node-label" data-notex="1" x="0" y="0" text-anchor="start" transform="translate(23.25,7.112605042016787)" style="cursor: default; font-family: 'Open Sans', verdana, arial, sans-serif; font-size: 16px; fill: rgb(42, 63, 95); fill-opacity: 1; text-shadow: rgb(255, 255, 255) 1px 1px 1px, rgb(255, 255, 255) -1px -1px 1px, rgb(255, 255, 255) 1px -1px 1px, rgb(255, 255, 255) -1px 1px 1px; white-space: pre;">materials_discovery</text></g><g class="sankey-node" transform="translate(0.000,325.736)" style="opacity: 1;"><rect class="node-rect" width="20" height="13.445378151260456" style="stroke-width: 0.5; stroke: rgb(68, 68, 68); stroke-opacity: 1; fill: rgb(25, 211, 243); fill-opacity: 0.8;"/><text class="node-label" data-notex="1" x="0" y="0" text-anchor="start" transform="translate(23.25,12.322689075630228)" style="cursor: default; font-family: 'Open Sans', verdana, arial, sans-serif; font-size: 16px; fill: rgb(42, 63, 95); fill-opacity: 1; text-shadow: rgb(255, 255, 255) 1px 1px 1px, rgb(255, 255, 255) -1px -1px 1px, rgb(255, 255, 255) 1px -1px 1px, rgb(255, 255, 255) -1px 1px 1px; white-space: pre;">AIRS</text></g><g class="sankey-node" transform="translate(0.000,359.181)" style="opacity: 1;"><rect class="node-rect" width="20" height="0.8963585434173638" style="stroke-width: 0.5; stroke: rgb(68, 68, 68); stroke-opacity: 1; fill: rgb(255, 102, 146); fill-opacity: 0.8;"/><text class="node-label" data-notex="1" x="0" y="0" text-anchor="start" transform="translate(23.25,6.0481792717086815)" style="cursor: default; font-family: 'Open Sans', verdana, arial, sans-serif; font-size: 16px; fill: rgb(42, 63, 95); fill-opacity: 1; text-shadow: rgb(255, 255, 255) 1px 1px 1px, rgb(255, 255, 255) -1px -1px 1px, rgb(255, 255, 255) 1px -1px 1px, rgb(255, 255, 255) -1px 1px 1px; white-space: pre;">megnet</text></g><g class="sankey-node" transform="translate(0.000,380.078)" style="opacity: 1;"><rect class="node-rect" width="20" height="6.946778711484626" style="stroke-width: 0.5; stroke: rgb(68, 68, 68); stroke-opacity: 1; fill: rgb(182, 232, 128); fill-opacity: 0.8;"/><text class="node-label" data-notex="1" x="0" y="0" text-anchor="start" transform="translate(23.25,9.073389355742313)" style="cursor: default; font-family: 'Open Sans', verdana, arial, sans-serif; font-size: 16px; fill: rgb(42, 63, 95); fill-opacity: 1; text-shadow: rgb(255, 255, 255) 1px 1px 1px, rgb(255, 255, 255) -1px -1px 1px, rgb(255, 255, 255) 1px -1px 1px, rgb(255, 255, 255) -1px 1px 1px; white-space: pre;">matgl</text></g><g class="sankey-node" transform="translate(0.000,407.024)" style="opacity: 1;"><rect class="node-rect" width="20" height="2.0168067226891253" style="stroke-width: 0.5; stroke: rgb(68, 68, 68); stroke-opacity: 1; fill: rgb(255, 151, 255); fill-opacity: 0.8;"/><text class="node-label" data-notex="1" x="0" y="0" text-anchor="start" transform="translate(23.25,6.608403361344562)" style="cursor: default; font-family: 'Open Sans', verdana, arial, sans-serif; font-size: 16px; fill: rgb(42, 63, 95); fill-opacity: 1; text-shadow: rgb(255, 255, 255) 1px 1px 1px, rgb(255, 255, 255) -1px -1px 1px, rgb(255, 255, 255) 1px -1px 1px, rgb(255, 255, 255) -1px 1px 1px; white-space: pre;">PaddleScience</text></g><g class="sankey-node" transform="translate(503.000,55.686)" style="opacity: 1;"><rect class="node-rect" width="20" height="14.341736694677927" style="stroke-width: 0.5; stroke: rgb(68, 68, 68); stroke-opacity: 1; fill: rgb(254, 203, 82); fill-opacity: 0.8;"/><text class="node-label" data-notex="1" x="0" y="0" text-anchor="end" transform="translate(-3.25,12.770868347338963)" style="cursor: default; font-family: 'Open Sans', verdana, arial, sans-serif; font-size: 16px; fill: rgb(42, 63, 95); fill-opacity: 1; text-shadow: rgb(255, 255, 255) 1px 1px 1px, rgb(255, 255, 255) -1px -1px 1px, rgb(255, 255, 255) 1px -1px 1px, rgb(255, 255, 255) -1px 1px 1px; white-space: pre;">PyXtal</text></g><g class="sankey-node" transform="translate(503.000,17.647)" style="opacity: 1;"><rect class="node-rect" width="20" height="18.03921568627453" style="stroke-width: 0.5; stroke: rgb(68, 68, 68); stroke-opacity: 1; fill: rgb(99, 110, 250); fill-opacity: 0.8;"/><text class="node-label" data-notex="1" x="0" y="0" text-anchor="end" transform="translate(-3.25,14.619607843137265)" style="cursor: default; font-family: 'Open Sans', verdana, arial, sans-serif; font-size: 16px; fill: rgb(42, 63, 95); fill-opacity: 1; text-shadow: rgb(255, 255, 255) 1px 1px 1px, rgb(255, 255, 255) -1px -1px 1px, rgb(255, 255, 255) 1px -1px 1px, rgb(255, 255, 255) -1px 1px 1px; white-space: pre;">pymatviz</text></g><g class="sankey-node" transform="translate(503.000,90.028)" style="opacity: 1;"><rect class="node-rect" width="20" height="3.473389355742256" style="stroke-width: 0.5; stroke: rgb(68, 68, 68); stroke-opacity: 1; fill: rgb(239, 85, 59); fill-opacity: 0.8;"/><text class="node-label" data-notex="1" x="0" y="0" text-anchor="end" transform="translate(-3.25,7.336694677871128)" style="cursor: default; font-family: 'Open Sans', verdana, arial, sans-serif; font-size: 16px; fill: rgb(42, 63, 95); fill-opacity: 1; text-shadow: rgb(255, 255, 255) 1px 1px 1px, rgb(255, 255, 255) -1px -1px 1px, rgb(255, 255, 255) 1px -1px 1px, rgb(255, 255, 255) -1px 1px 1px; white-space: pre;">all-atom-diffusion-transformer</text></g><g class="sankey-node" transform="translate(503.000,113.501)" style="opacity: 1;"><rect class="node-rect" width="20" height="5.602240896358467" style="stroke-width: 0.5; stroke: rgb(68, 68, 68); stroke-opacity: 1; fill: rgb(0, 204, 150); fill-opacity: 0.8;"/><text class="node-label" data-notex="1" x="0" y="0" text-anchor="end" transform="translate(-3.25,8.401120448179233)" style="cursor: default; font-family: 'Open Sans', verdana, arial, sans-serif; font-size: 16px; fill: rgb(42, 63, 95); fill-opacity: 1; text-shadow: rgb(255, 255, 255) 1px 1px 1px, rgb(255, 255, 255) -1px -1px 1px, rgb(255, 255, 255) 1px -1px 1px, rgb(255, 255, 255) -1px 1px 1px; white-space: pre;">quacc</text></g><g class="sankey-node" transform="translate(503.000,139.104)" style="opacity: 1;"><rect class="node-rect" width="20" height="15.686274509803923" style="stroke-width: 0.5; stroke: rgb(68, 68, 68); stroke-opacity: 1; fill: rgb(171, 99, 250); fill-opacity: 0.8;"/><text class="node-label" data-notex="1" x="0" y="0" text-anchor="end" transform="translate(-3.25,13.443137254901961)" style="cursor: default; font-family: 'Open Sans', verdana, arial, sans-serif; font-size: 16px; fill: rgb(42, 63, 95); fill-opacity: 1; text-shadow: rgb(255, 255, 255) 1px 1px 1px, rgb(255, 255, 255) -1px -1px 1px, rgb(255, 255, 255) 1px -1px 1px, rgb(255, 255, 255) -1px 1px 1px; white-space: pre;">doped</text></g><g class="sankey-node" transform="translate(503.000,174.790)" style="opacity: 1;"><rect class="node-rect" width="20" height="16.470588235294088" style="stroke-width: 0.5; stroke: rgb(68, 68, 68); stroke-opacity: 1; fill: rgb(255, 161, 90); fill-opacity: 0.8;"/><text class="node-label" data-notex="1" x="0" y="0" text-anchor="end" transform="translate(-3.25,13.835294117647043)" style="cursor: default; font-family: 'Open Sans', verdana, arial, sans-serif; font-size: 16px; fill: rgb(42, 63, 95); fill-opacity: 1; text-shadow: rgb(255, 255, 255) 1px 1px 1px, rgb(255, 255, 255) -1px -1px 1px, rgb(255, 255, 255) 1px -1px 1px, rgb(255, 255, 255) -1px 1px 1px; white-space: pre;">matbench-discovery</text></g><g class="sankey-node" transform="translate(503.000,211.261)" style="opacity: 1;"><rect class="node-rect" width="20" height="2.80112044817929" style="stroke-width: 0.5; stroke: rgb(68, 68, 68); stroke-opacity: 1; fill: rgb(25, 211, 243); fill-opacity: 0.8;"/><text class="node-label" data-notex="1" x="0" y="0" text-anchor="end" transform="translate(-3.25,7.000560224089645)" style="cursor: default; font-family: 'Open Sans', verdana, arial, sans-serif; font-size: 16px; fill: rgb(42, 63, 95); fill-opacity: 1; text-shadow: rgb(255, 255, 255) 1px 1px 1px, rgb(255, 255, 255) -1px -1px 1px, rgb(255, 255, 255) 1px -1px 1px, rgb(255, 255, 255) -1px 1px 1px; white-space: pre;">matsciml</text></g><g class="sankey-node" transform="translate(503.000,234.062)" style="opacity: 1;"><rect class="node-rect" width="20" height="3.921568627450995" style="stroke-width: 0.5; stroke: rgb(68, 68, 68); stroke-opacity: 1; fill: rgb(255, 102, 146); fill-opacity: 0.8;"/><text class="node-label" data-notex="1" x="0" y="0" text-anchor="end" transform="translate(-3.25,7.560784313725497)" style="cursor: default; font-family: 'Open Sans', verdana, arial, sans-serif; font-size: 16px; fill: rgb(42, 63, 95); fill-opacity: 1; text-shadow: rgb(255, 255, 255) 1px 1px 1px, rgb(255, 255, 255) -1px -1px 1px, rgb(255, 255, 255) 1px -1px 1px, rgb(255, 255, 255) -1px 1px 1px; white-space: pre;">CrystaLLM</text></g></g></g><defs id="topdefs-ddf48d"><g class="clips"/></defs><g class="layer-above"><g class="imagelayer"/><g class="shapelayer"/></g><g class="infolayer"><g class="g-gtitle"/><g class="first-render"/></g></svg>
